<svg id="Layer_1" data-name="Layer 1" xmlns="http://www.w3.org/2000/svg" viewBox="0 0 2472.56 813.85"><defs><style>.cls-2{fill:#191919}</style></defs><path d="M573.68 259.87a162.91 162.91 0 00-97.41-149.16l-185.72 295.7H98.68L291 97.19H97.43v618.34l193.88-308.8h189.15l-190 309.83h120.32a162.9 162.9 0 00162.9-162.9c0-63.27-39.38-120.06-92.11-147.06a162.9 162.9 0 0092.11-146.73z" fill="#ff9f00"/><path class="cls-2" d="M1178 463.38a114.24 114.24 0 00-14-31.49 103.74 103.74 0 00-49.57-40.61 104.44 104.44 0 0044.48-40.94c11.09-18.64 16.67-40.88 16.67-66.11 0-39.24-12.06-71.28-35.82-95.28s-59.63-36.12-106.66-36.12l-199.13.2v482.21h205.8c45.75 0 81.45-12 106-35.7s37-57.34 37-99.84a135.3 135.3 0 00-4.77-36.32zM907.31 228.66h126.34c22.25 0 39.22 5.58 50.37 16.46s16.66 26.32 16.66 45.91c0 41-22.54 61.69-67 61.69H907.31zm131.13 330.75H907.31V429.3h131.8c21.94 0 39 5.78 50.91 17.07s17.87 27.41 17.87 47.95c0 43.8-22.72 65.09-69.45 65.09zm1124.1-26.61c0 34.91-10.4 61-31 77.46-20 16-50.89 24.26-91.77 24.39h-131.11l21.11-62.19h106.92c20 0 35-3 45-8.79 8.92-5.32 13.22-13.86 13.22-26 0-8.8-2.12-15.34-6.36-19.51-4.62-4.69-10.78-8.22-18.22-10.53l-4.11-1.28a127.85 127.85 0 00-25-6l-14.5-2.44c-23.23-3.72-42-8.47-55.58-14.18-14.44-6-25.67-15.08-33.56-26.83s-11.75-27.66-11.75-47.61a133.94 133.94 0 011.74-22.4c2.18-13.09 6.41-24.64 12.7-34.27 18-28 53.4-42.16 105.38-42.16h108.13v61.8h-104.96V372l-3.27.07c-52.18.83-52.18 23.68-52.18 31.19s2 13.15 6 17c4.5 4.37 10.46 7.58 17.65 9.69 8.09 2.38 37 9.05 45.31 10.66 23.94 4.49 43.06 9.75 56.67 15.66 14.5 6.29 25.54 15.66 32.79 27.91s10.75 28.47 10.75 48.62z"/><path class="cls-2" d="M2039.77 634.65h-131.11l21.11-62.19h106.92c20 0 35-3 45-8.79 8.92-5.32 13.22-13.86 13.22-26 0-8.8-2.12-15.34-6.36-19.51-4.62-4.69-10.78-8.22-18.22-10.53l-4.11-1.28a127.85 127.85 0 00-25-6l-14.5-2.44c-23.23-3.72-42-8.47-55.58-14.18-14.44-6-25.67-15.08-33.56-26.83s-11.75-27.66-11.75-47.61a133.94 133.94 0 011.74-22.4c2.18-13.09 6.41-24.64 12.7-34.27 18-28 53.4-42.16 105.38-42.16h108.13v61.8h-104.96V372l-3.27.07c-52.18.83-52.18 23.68-52.18 31.19s2 13.15 6 17c4.5 4.37 10.46 7.58 17.65 9.69 8.09 2.38 37 9.05 45.31 10.66 23.94 4.49 43.06 9.75 56.67 15.66 14.5 6.29 25.54 15.66 32.79 27.91s10.72 28.43 10.72 48.58c0 34.91-10.4 61-31 77.46-19.99 16.09-50.86 24.3-91.74 24.43zm173.91-408.17l70.66-.19.26 83.55 86.31-.13v61.42l-86.12.19.45 198.18 89.84-.26-22.84 62-96.07.26a41.51 41.51 0 01-41.46-41.39z"/><path class="cls-2" d="M2375.08 569.24l-22.84 62-96.07.26a41.51 41.51 0 01-41.46-41.39l-1-363.62 70.66-.19.26 83.55 86.31-.13v61.42l-86.12.19.45 198.18zM1380.63 306c-52.14 0-90.73 13.92-114.69 41.37-23.76 27.2-35.8 70.47-35.8 128.59 0 56.88 11.81 99.4 35.11 126.38 23.54 27.27 62.36 41.09 115.38 41.09S1472.49 629.5 1496 602c23.29-27.2 35.1-69.61 35.1-126 0-57.68-11.92-100.82-35.43-128.23-23.75-27.72-62.47-41.77-115.04-41.77zm-67.8 103.79c4.52-14.68 12-25.15 22.37-31.12 10.78-6.22 26.07-9.38 45.43-9.38s34.51 3.15 45.06 9.36c10.14 6 17.57 16.35 22.1 30.86 4.82 15.49 7.27 37.85 7.27 66.45 0 27.4-2.34 48.94-7 64-4.38 14.3-11.52 24.3-21.83 30.55-10.53 6.4-25.88 9.64-45.64 9.64s-35.26-3.25-46-9.67c-10.5-6.24-17.73-16.32-22.11-30.81-4.62-15.24-7-36.68-7-63.71.07-28.22 2.52-50.48 7.35-66.16zm530.76-62.05c-23.78-27.69-62.49-41.74-115.06-41.74-52.15 0-90.74 13.92-114.7 41.37-23.76 27.2-35.8 70.47-35.8 128.59 0 56.88 11.81 99.4 35.11 126.38 23.54 27.27 62.36 41.09 115.39 41.09s91.85-13.94 115.39-41.42c23.29-27.2 35.1-69.61 35.1-126-.02-57.72-11.92-100.86-35.43-128.27zM1802.94 476c0 27.42-2.33 48.95-7 64-4.38 14.3-11.52 24.3-21.83 30.55-10.52 6.4-25.88 9.64-45.63 9.64s-35.27-3.25-46-9.67c-10.5-6.24-17.73-16.32-22.11-30.81-4.62-15.25-7-36.68-7-63.71 0-28.23 2.45-50.49 7.28-66.17 4.52-14.68 12-25.15 22.37-31.12 10.79-6.22 26.07-9.38 45.44-9.38s34.5 3.15 45 9.36c10.14 6 17.57 16.35 22.1 30.86 4.94 15.45 7.38 37.81 7.38 66.45z"/></svg>