<?xml version="1.0" encoding="UTF-8" standalone="no"?>
<svg width="700" height ="400" version="1.1"
xmlns:svg ="http://www.w3.org/2000/svg"
xmlns:rdf="http://www.w3.org/1999/02/22-rdf-syntax-ns#"
xmlns:cc="http://web.resource.org/cc/"
xmlns:dc="http://purl.org/dc/elements/1.1/"
xmlns ="http://www.w3.org/2000/svg"
>
<!-- SVG plot written using Boost.Plot program (Creator Jacob Voytko) --> 
<!-- Use, modification and distribution of Boost.Plot subject to the --> 
<!-- Boost Software License, Version 1.0.--> 
<!-- (See accompanying file LICENSE_1_0.txt --> 
<!-- or copy at http://www.boost.org/LICENSE_1_0.txt) --> 

<clipPath id="plot_window"><rect x="48.8" y="54" width="624" height="286"/></clipPath>
<g id="imageBackground" stroke="rgb(211,211,211)" fill="rgb(255,255,255)" stroke-width="2"><rect x="0" y="0" width="700" height="400"/></g>
<g id="plotBackground" stroke="rgb(211,211,211)" fill="rgb(255,255,255)" stroke-width="2"><rect x="47.8" y="53" width="626" height="288"/></g>
<g id="yMinorGrid" stroke="rgb(200,220,255)" stroke-width="0.5"></g>
<g id="yMajorGrid" stroke="rgb(200,220,255)" stroke-width="1"></g>
<g id="xMinorGrid" stroke="rgb(200,220,255)" stroke-width="0.5"></g>
<g id="xMajorGrid" stroke="rgb(200,220,255)" stroke-width="1"></g>
<g id="yAxis" stroke="rgb(0,0,0)" stroke-width="1"><line x1="361" y1="53" x2="361" y2="346"/><line x1="47.8" y1="53" x2="47.8" y2="341"/></g>
<g id="xAxis" stroke="rgb(0,0,0)" stroke-width="1"><line x1="42.8" y1="161" x2="674" y2="161"/><line x1="42.8" y1="341" x2="674" y2="341"/></g>
<g id="yMinorTicks" stroke="rgb(0,0,0)" stroke-width="1"><path d="M45.8,147 L47.8,147 M45.8,132 L47.8,132 M45.8,118 L47.8,118 M45.8,103 L47.8,103 M45.8,74.6 L47.8,74.6 M45.8,60.2 L47.8,60.2 M45.8,161 L47.8,161 M45.8,175 L47.8,175 M45.8,190 L47.8,190 M45.8,204 L47.8,204 M45.8,219 L47.8,219 M45.8,233 L47.8,233 M45.8,247 L47.8,247 M45.8,262 L47.8,262 M45.8,276 L47.8,276 M45.8,291 L47.8,291 M45.8,305 L47.8,305 M45.8,305 L47.8,305 M45.8,319 L47.8,319 M45.8,334 L47.8,334 " fill="none"/></g>
<g id="xMinorTicks" stroke="rgb(0,0,0)" stroke-width="1"><path d="M424,341 L424,343 M486,341 L486,343 M549,341 L549,343 M611,341 L611,343 M298,341 L298,343 M236,341 L236,343 M173,341 L173,343 M110,341 L110,343 " fill="none"/></g>
<g id="yMajorTicks" stroke="rgb(0,0,0)" stroke-width="2"><path d="M42.8,161 L47.8,161 M42.8,89 L47.8,89 M42.8,161 L47.8,161 M42.8,233 L47.8,233 M42.8,305 L47.8,305 " fill="none"/></g>
<g id="xMajorTicks" stroke="rgb(0,0,0)" stroke-width="2"><path d="M361,341 L361,346 M674,341 L674,346 M361,341 L361,346 M47.8,341 L47.8,346 " fill="none"/></g>
<g id="xTicksValues">
<text x="361" y="362" text-anchor="middle" font-size="12" font-family="Lucida Sans Unicode">0</text>
<text x="674" y="362" text-anchor="middle" font-size="12" font-family="Lucida Sans Unicode">1</text>
<text x="361" y="362" text-anchor="middle" font-size="12" font-family="Lucida Sans Unicode">0</text>
<text x="47.8" y="362" text-anchor="middle" font-size="12" font-family="Lucida Sans Unicode">-1</text></g>
<g id="yTicksValues">
<text x="36.8" y="163" text-anchor="end" font-size="12" font-family="Lucida Sans Unicode">0</text>
<text x="36.8" y="91.4" text-anchor="end" font-size="12" font-family="Lucida Sans Unicode">2</text>
<text x="36.8" y="163" text-anchor="end" font-size="12" font-family="Lucida Sans Unicode">0</text>
<text x="36.8" y="235" text-anchor="end" font-size="12" font-family="Lucida Sans Unicode">-2</text>
<text x="36.8" y="307" text-anchor="end" font-size="12" font-family="Lucida Sans Unicode">-4</text></g>
<g id="yLabel">
<text x="14.9" y="197" text-anchor="middle" transform = "rotate(-90 14.9 197 )" font-size="14" font-family="Lucida Sans Unicode"></text></g>
<g id="xLabel">
<text x="361" y="377" text-anchor="middle" font-size="14" font-family="Lucida Sans Unicode">x</text></g>
<g id="plotLines" stroke-width="2"><g clip-path="url(#plot_window)" stroke="rgb(0,0,0)" fill="rgb(0,128,0)" stroke-width="2"><path d="M47.8,161 L47.8,125 L50.9,126 L54.1,92.5 L57.2,94.2 L60.3,95 L63.5,128 L66.6,129 L69.7,129 L72.8,161 L76,161 L79.1,130 L82.2,161 L85.4,131 L88.5,131 L91.6,161 L94.8,132 L97.9,132 L101,132 L104,132 L107,133 L110,105 L114,133 L117,106 L120,133 L123,134 L126,134 L129,134 L132,134 L135,134 L139,134 L142,134 L145,135 L148,135 L151,135 L154,135 L157,135 L161,135 L164,161 L167,161 L170,161 L173,161 L176,161 L179,161 L182,161 L186,136 L189,111 L192,136 L195,136 L198,136 L201,136 L204,136 L207,137 L211,137 L214,137 L217,137 L220,137 L223,137 L226,137 L229,137 L233,137 L236,137 L239,137 L242,137 L245,137 L248,137 L251,137 L254,137 L258,137 L261,137 L264,161 L267,161 L270,138 L273,161 L276,161 L279,161 L283,161 L286,138 L289,138 L292,161 L295,161 L298,161 L301,161 L305,161 L308,161 L311,161 L314,161 L317,138 L320,138 L323,161 L326,161 L330,161 L333,161 L336,138 L339,161 L342,161 L345,161 L348,161 L352,161 L355,161 L358,161 L361,161 L364,161 L367,161 L370,161 L373,161 L377,161 L380,161 L383,161 L386,138 L389,161 L392,138 L395,138 L398,161 L402,138 L405,161 L408,161 L411,161 L414,161 L417,161 L420,138 L424,161 L427,161 L430,161 L433,161 L436,161 L439,161 L442,161 L445,161 L449,161 L452,161 L455,138 L458,137 L461,137 L464,137 L467,137 L470,137 L474,137 L477,137 L480,137 L483,137 L486,137 L489,137 L492,137 L496,137 L499,137 L502,137 L505,137 L508,137 L511,137 L514,136 L517,136 L521,136 L524,136 L527,136 L530,111 L533,161 L536,161 L539,161 L542,161 L546,161 L549,161 L552,161 L555,161 L558,135 L561,135 L564,135 L568,135 L571,135 L574,135 L577,134 L580,134 L583,134 L586,134 L589,134 L593,107 L596,134 L599,133 L602,77.8 L605,133 L608,133 L611,133 L615,132 L618,103 L621,132 L624,132 L627,161 L630,161 L633,131 L636,161 L640,130 L643,161 L646,161 L649,129 L652,129 L655,128 L658,128 L661,94.1 L665,92.9 L668,126 L671,89.2 L671,161 Z" fill="rgb(0,128,0)"/></g>
<g clip-path="url(#plot_window)" stroke="rgb(0,0,0)" fill="rgb(0,128,0)" stroke-width="2"><path d="M47.8,161 L47.8,233 L50.9,230 L54.1,229 L57.2,228 L60.3,227 L63.5,194 L66.6,193 L69.7,193 L72.8,192 L76,192 L79.1,192 L82.2,191 L85.4,191 L88.5,191 L91.6,191 L94.8,190 L97.9,219 L101,161 L104,161 L107,161 L110,161 L114,161 L117,161 L120,161 L123,161 L126,161 L129,161 L132,161 L135,161 L139,188 L142,187 L145,187 L148,161 L151,161 L154,187 L157,187 L161,187 L164,161 L167,187 L170,186 L173,186 L176,186 L179,186 L182,186 L186,161 L189,186 L192,186 L195,186 L198,186 L201,186 L204,186 L207,185 L211,185 L214,185 L217,185 L220,185 L223,161 L226,161 L229,185 L233,161 L236,161 L239,185 L242,185 L245,161 L248,185 L251,161 L254,161 L258,185 L261,185 L264,184 L267,184 L270,184 L273,184 L276,184 L279,184 L283,184 L286,184 L289,184 L292,184 L295,184 L298,184 L301,184 L305,184 L308,184 L311,184 L314,184 L317,184 L320,184 L323,184 L326,184 L330,184 L333,184 L336,184 L339,184 L342,184 L345,184 L348,184 L352,184 L355,184 L358,184 L361,184 L364,184 L367,184 L370,184 L373,184 L377,184 L380,184 L383,184 L386,184 L389,184 L392,184 L395,184 L398,184 L402,184 L405,184 L408,184 L411,184 L414,184 L417,184 L420,184 L424,184 L427,184 L430,184 L433,184 L436,184 L439,184 L442,184 L445,184 L449,184 L452,184 L455,184 L458,185 L461,185 L464,161 L467,185 L470,161 L474,185 L477,185 L480,161 L483,185 L486,185 L489,161 L492,185 L496,185 L499,185 L502,185 L505,185 L508,185 L511,185 L514,186 L517,186 L521,186 L524,186 L527,186 L530,186 L533,186 L536,186 L539,186 L542,186 L546,186 L549,186 L552,187 L555,187 L558,187 L561,187 L564,187 L568,187 L571,161 L574,161 L577,161 L580,161 L583,161 L586,161 L589,161 L593,161 L596,161 L599,161 L602,161 L605,161 L608,161 L611,189 L615,161 L618,161 L621,219 L624,190 L627,191 L630,191 L633,191 L636,191 L640,192 L643,192 L646,192 L649,193 L652,193 L655,194 L658,226 L661,228 L665,229 L668,196 L671,341 L671,161 Z" fill="rgb(0,128,0)"/></g>
</g>
<g id="plotPoints" clip-path="url(#plot_window)"><g stroke="rgb(0,128,0)" fill="rgb(0,128,0)"><circle cx="47.8" cy="125" r="0"/><circle cx="50.9" cy="126" r="0"/><circle cx="54.1" cy="92.5" r="0"/><circle cx="57.2" cy="94.2" r="0"/><circle cx="60.3" cy="95" r="0"/><circle cx="63.5" cy="128" r="0"/><circle cx="66.6" cy="129" r="0"/><circle cx="69.7" cy="129" r="0"/><circle cx="72.8" cy="161" r="0"/><circle cx="76" cy="161" r="0"/><circle cx="79.1" cy="130" r="0"/><circle cx="82.2" cy="161" r="0"/><circle cx="85.4" cy="131" r="0"/><circle cx="88.5" cy="131" r="0"/><circle cx="91.6" cy="161" r="0"/><circle cx="94.8" cy="132" r="0"/><circle cx="97.9" cy="132" r="0"/><circle cx="101" cy="132" r="0"/><circle cx="104" cy="132" r="0"/><circle cx="107" cy="133" r="0"/><circle cx="110" cy="105" r="0"/><circle cx="114" cy="133" r="0"/><circle cx="117" cy="106" r="0"/><circle cx="120" cy="133" r="0"/><circle cx="123" cy="134" r="0"/><circle cx="126" cy="134" r="0"/><circle cx="129" cy="134" r="0"/><circle cx="132" cy="134" r="0"/><circle cx="135" cy="134" r="0"/><circle cx="139" cy="134" r="0"/><circle cx="142" cy="134" r="0"/><circle cx="145" cy="135" r="0"/><circle cx="148" cy="135" r="0"/><circle cx="151" cy="135" r="0"/><circle cx="154" cy="135" r="0"/><circle cx="157" cy="135" r="0"/><circle cx="161" cy="135" r="0"/><circle cx="164" cy="161" r="0"/><circle cx="167" cy="161" r="0"/><circle cx="170" cy="161" r="0"/><circle cx="173" cy="161" r="0"/><circle cx="176" cy="161" r="0"/><circle cx="179" cy="161" r="0"/><circle cx="182" cy="161" r="0"/><circle cx="186" cy="136" r="0"/><circle cx="189" cy="111" r="0"/><circle cx="192" cy="136" r="0"/><circle cx="195" cy="136" r="0"/><circle cx="198" cy="136" r="0"/><circle cx="201" cy="136" r="0"/><circle cx="204" cy="136" r="0"/><circle cx="207" cy="137" r="0"/><circle cx="211" cy="137" r="0"/><circle cx="214" cy="137" r="0"/><circle cx="217" cy="137" r="0"/><circle cx="220" cy="137" r="0"/><circle cx="223" cy="137" r="0"/><circle cx="226" cy="137" r="0"/><circle cx="229" cy="137" r="0"/><circle cx="233" cy="137" r="0"/><circle cx="236" cy="137" r="0"/><circle cx="239" cy="137" r="0"/><circle cx="242" cy="137" r="0"/><circle cx="245" cy="137" r="0"/><circle cx="248" cy="137" r="0"/><circle cx="251" cy="137" r="0"/><circle cx="254" cy="137" r="0"/><circle cx="258" cy="137" r="0"/><circle cx="261" cy="137" r="0"/><circle cx="264" cy="161" r="0"/><circle cx="267" cy="161" r="0"/><circle cx="270" cy="138" r="0"/><circle cx="273" cy="161" r="0"/><circle cx="276" cy="161" r="0"/><circle cx="279" cy="161" r="0"/><circle cx="283" cy="161" r="0"/><circle cx="286" cy="138" r="0"/><circle cx="289" cy="138" r="0"/><circle cx="292" cy="161" r="0"/><circle cx="295" cy="161" r="0"/><circle cx="298" cy="161" r="0"/><circle cx="301" cy="161" r="0"/><circle cx="305" cy="161" r="0"/><circle cx="308" cy="161" r="0"/><circle cx="311" cy="161" r="0"/><circle cx="314" cy="161" r="0"/><circle cx="317" cy="138" r="0"/><circle cx="320" cy="138" r="0"/><circle cx="323" cy="161" r="0"/><circle cx="326" cy="161" r="0"/><circle cx="330" cy="161" r="0"/><circle cx="333" cy="161" r="0"/><circle cx="336" cy="138" r="0"/><circle cx="339" cy="161" r="0"/><circle cx="342" cy="161" r="0"/><circle cx="345" cy="161" r="0"/><circle cx="348" cy="161" r="0"/><circle cx="352" cy="161" r="0"/><circle cx="355" cy="161" r="0"/><circle cx="358" cy="161" r="0"/><circle cx="361" cy="161" r="0"/><circle cx="364" cy="161" r="0"/><circle cx="367" cy="161" r="0"/><circle cx="370" cy="161" r="0"/><circle cx="373" cy="161" r="0"/><circle cx="377" cy="161" r="0"/><circle cx="380" cy="161" r="0"/><circle cx="383" cy="161" r="0"/><circle cx="386" cy="138" r="0"/><circle cx="389" cy="161" r="0"/><circle cx="392" cy="138" r="0"/><circle cx="395" cy="138" r="0"/><circle cx="398" cy="161" r="0"/><circle cx="402" cy="138" r="0"/><circle cx="405" cy="161" r="0"/><circle cx="408" cy="161" r="0"/><circle cx="411" cy="161" r="0"/><circle cx="414" cy="161" r="0"/><circle cx="417" cy="161" r="0"/><circle cx="420" cy="138" r="0"/><circle cx="424" cy="161" r="0"/><circle cx="427" cy="161" r="0"/><circle cx="430" cy="161" r="0"/><circle cx="433" cy="161" r="0"/><circle cx="436" cy="161" r="0"/><circle cx="439" cy="161" r="0"/><circle cx="442" cy="161" r="0"/><circle cx="445" cy="161" r="0"/><circle cx="449" cy="161" r="0"/><circle cx="452" cy="161" r="0"/><circle cx="455" cy="138" r="0"/><circle cx="458" cy="137" r="0"/><circle cx="461" cy="137" r="0"/><circle cx="464" cy="137" r="0"/><circle cx="467" cy="137" r="0"/><circle cx="470" cy="137" r="0"/><circle cx="474" cy="137" r="0"/><circle cx="477" cy="137" r="0"/><circle cx="480" cy="137" r="0"/><circle cx="483" cy="137" r="0"/><circle cx="486" cy="137" r="0"/><circle cx="489" cy="137" r="0"/><circle cx="492" cy="137" r="0"/><circle cx="496" cy="137" r="0"/><circle cx="499" cy="137" r="0"/><circle cx="502" cy="137" r="0"/><circle cx="505" cy="137" r="0"/><circle cx="508" cy="137" r="0"/><circle cx="511" cy="137" r="0"/><circle cx="514" cy="136" r="0"/><circle cx="517" cy="136" r="0"/><circle cx="521" cy="136" r="0"/><circle cx="524" cy="136" r="0"/><circle cx="527" cy="136" r="0"/><circle cx="530" cy="111" r="0"/><circle cx="533" cy="161" r="0"/><circle cx="536" cy="161" r="0"/><circle cx="539" cy="161" r="0"/><circle cx="542" cy="161" r="0"/><circle cx="546" cy="161" r="0"/><circle cx="549" cy="161" r="0"/><circle cx="552" cy="161" r="0"/><circle cx="555" cy="161" r="0"/><circle cx="558" cy="135" r="0"/><circle cx="561" cy="135" r="0"/><circle cx="564" cy="135" r="0"/><circle cx="568" cy="135" r="0"/><circle cx="571" cy="135" r="0"/><circle cx="574" cy="135" r="0"/><circle cx="577" cy="134" r="0"/><circle cx="580" cy="134" r="0"/><circle cx="583" cy="134" r="0"/><circle cx="586" cy="134" r="0"/><circle cx="589" cy="134" r="0"/><circle cx="593" cy="107" r="0"/><circle cx="596" cy="134" r="0"/><circle cx="599" cy="133" r="0"/><circle cx="602" cy="77.8" r="0"/><circle cx="605" cy="133" r="0"/><circle cx="608" cy="133" r="0"/><circle cx="611" cy="133" r="0"/><circle cx="615" cy="132" r="0"/><circle cx="618" cy="103" r="0"/><circle cx="621" cy="132" r="0"/><circle cx="624" cy="132" r="0"/><circle cx="627" cy="161" r="0"/><circle cx="630" cy="161" r="0"/><circle cx="633" cy="131" r="0"/><circle cx="636" cy="161" r="0"/><circle cx="640" cy="130" r="0"/><circle cx="643" cy="161" r="0"/><circle cx="646" cy="161" r="0"/><circle cx="649" cy="129" r="0"/><circle cx="652" cy="129" r="0"/><circle cx="655" cy="128" r="0"/><circle cx="658" cy="128" r="0"/><circle cx="661" cy="94.1" r="0"/><circle cx="665" cy="92.9" r="0"/><circle cx="668" cy="126" r="0"/><circle cx="671" cy="89.2" r="0"/></g>
<g stroke="rgb(0,128,0)" fill="rgb(0,128,0)"><circle cx="47.8" cy="233" r="0"/><circle cx="50.9" cy="230" r="0"/><circle cx="54.1" cy="229" r="0"/><circle cx="57.2" cy="228" r="0"/><circle cx="60.3" cy="227" r="0"/><circle cx="63.5" cy="194" r="0"/><circle cx="66.6" cy="193" r="0"/><circle cx="69.7" cy="193" r="0"/><circle cx="72.8" cy="192" r="0"/><circle cx="76" cy="192" r="0"/><circle cx="79.1" cy="192" r="0"/><circle cx="82.2" cy="191" r="0"/><circle cx="85.4" cy="191" r="0"/><circle cx="88.5" cy="191" r="0"/><circle cx="91.6" cy="191" r="0"/><circle cx="94.8" cy="190" r="0"/><circle cx="97.9" cy="219" r="0"/><circle cx="101" cy="161" r="0"/><circle cx="104" cy="161" r="0"/><circle cx="107" cy="161" r="0"/><circle cx="110" cy="161" r="0"/><circle cx="114" cy="161" r="0"/><circle cx="117" cy="161" r="0"/><circle cx="120" cy="161" r="0"/><circle cx="123" cy="161" r="0"/><circle cx="126" cy="161" r="0"/><circle cx="129" cy="161" r="0"/><circle cx="132" cy="161" r="0"/><circle cx="135" cy="161" r="0"/><circle cx="139" cy="188" r="0"/><circle cx="142" cy="187" r="0"/><circle cx="145" cy="187" r="0"/><circle cx="148" cy="161" r="0"/><circle cx="151" cy="161" r="0"/><circle cx="154" cy="187" r="0"/><circle cx="157" cy="187" r="0"/><circle cx="161" cy="187" r="0"/><circle cx="164" cy="161" r="0"/><circle cx="167" cy="187" r="0"/><circle cx="170" cy="186" r="0"/><circle cx="173" cy="186" r="0"/><circle cx="176" cy="186" r="0"/><circle cx="179" cy="186" r="0"/><circle cx="182" cy="186" r="0"/><circle cx="186" cy="161" r="0"/><circle cx="189" cy="186" r="0"/><circle cx="192" cy="186" r="0"/><circle cx="195" cy="186" r="0"/><circle cx="198" cy="186" r="0"/><circle cx="201" cy="186" r="0"/><circle cx="204" cy="186" r="0"/><circle cx="207" cy="185" r="0"/><circle cx="211" cy="185" r="0"/><circle cx="214" cy="185" r="0"/><circle cx="217" cy="185" r="0"/><circle cx="220" cy="185" r="0"/><circle cx="223" cy="161" r="0"/><circle cx="226" cy="161" r="0"/><circle cx="229" cy="185" r="0"/><circle cx="233" cy="161" r="0"/><circle cx="236" cy="161" r="0"/><circle cx="239" cy="185" r="0"/><circle cx="242" cy="185" r="0"/><circle cx="245" cy="161" r="0"/><circle cx="248" cy="185" r="0"/><circle cx="251" cy="161" r="0"/><circle cx="254" cy="161" r="0"/><circle cx="258" cy="185" r="0"/><circle cx="261" cy="185" r="0"/><circle cx="264" cy="184" r="0"/><circle cx="267" cy="184" r="0"/><circle cx="270" cy="184" r="0"/><circle cx="273" cy="184" r="0"/><circle cx="276" cy="184" r="0"/><circle cx="279" cy="184" r="0"/><circle cx="283" cy="184" r="0"/><circle cx="286" cy="184" r="0"/><circle cx="289" cy="184" r="0"/><circle cx="292" cy="184" r="0"/><circle cx="295" cy="184" r="0"/><circle cx="298" cy="184" r="0"/><circle cx="301" cy="184" r="0"/><circle cx="305" cy="184" r="0"/><circle cx="308" cy="184" r="0"/><circle cx="311" cy="184" r="0"/><circle cx="314" cy="184" r="0"/><circle cx="317" cy="184" r="0"/><circle cx="320" cy="184" r="0"/><circle cx="323" cy="184" r="0"/><circle cx="326" cy="184" r="0"/><circle cx="330" cy="184" r="0"/><circle cx="333" cy="184" r="0"/><circle cx="336" cy="184" r="0"/><circle cx="339" cy="184" r="0"/><circle cx="342" cy="184" r="0"/><circle cx="345" cy="184" r="0"/><circle cx="348" cy="184" r="0"/><circle cx="352" cy="184" r="0"/><circle cx="355" cy="184" r="0"/><circle cx="358" cy="184" r="0"/><circle cx="361" cy="184" r="0"/><circle cx="364" cy="184" r="0"/><circle cx="367" cy="184" r="0"/><circle cx="370" cy="184" r="0"/><circle cx="373" cy="184" r="0"/><circle cx="377" cy="184" r="0"/><circle cx="380" cy="184" r="0"/><circle cx="383" cy="184" r="0"/><circle cx="386" cy="184" r="0"/><circle cx="389" cy="184" r="0"/><circle cx="392" cy="184" r="0"/><circle cx="395" cy="184" r="0"/><circle cx="398" cy="184" r="0"/><circle cx="402" cy="184" r="0"/><circle cx="405" cy="184" r="0"/><circle cx="408" cy="184" r="0"/><circle cx="411" cy="184" r="0"/><circle cx="414" cy="184" r="0"/><circle cx="417" cy="184" r="0"/><circle cx="420" cy="184" r="0"/><circle cx="424" cy="184" r="0"/><circle cx="427" cy="184" r="0"/><circle cx="430" cy="184" r="0"/><circle cx="433" cy="184" r="0"/><circle cx="436" cy="184" r="0"/><circle cx="439" cy="184" r="0"/><circle cx="442" cy="184" r="0"/><circle cx="445" cy="184" r="0"/><circle cx="449" cy="184" r="0"/><circle cx="452" cy="184" r="0"/><circle cx="455" cy="184" r="0"/><circle cx="458" cy="185" r="0"/><circle cx="461" cy="185" r="0"/><circle cx="464" cy="161" r="0"/><circle cx="467" cy="185" r="0"/><circle cx="470" cy="161" r="0"/><circle cx="474" cy="185" r="0"/><circle cx="477" cy="185" r="0"/><circle cx="480" cy="161" r="0"/><circle cx="483" cy="185" r="0"/><circle cx="486" cy="185" r="0"/><circle cx="489" cy="161" r="0"/><circle cx="492" cy="185" r="0"/><circle cx="496" cy="185" r="0"/><circle cx="499" cy="185" r="0"/><circle cx="502" cy="185" r="0"/><circle cx="505" cy="185" r="0"/><circle cx="508" cy="185" r="0"/><circle cx="511" cy="185" r="0"/><circle cx="514" cy="186" r="0"/><circle cx="517" cy="186" r="0"/><circle cx="521" cy="186" r="0"/><circle cx="524" cy="186" r="0"/><circle cx="527" cy="186" r="0"/><circle cx="530" cy="186" r="0"/><circle cx="533" cy="186" r="0"/><circle cx="536" cy="186" r="0"/><circle cx="539" cy="186" r="0"/><circle cx="542" cy="186" r="0"/><circle cx="546" cy="186" r="0"/><circle cx="549" cy="186" r="0"/><circle cx="552" cy="187" r="0"/><circle cx="555" cy="187" r="0"/><circle cx="558" cy="187" r="0"/><circle cx="561" cy="187" r="0"/><circle cx="564" cy="187" r="0"/><circle cx="568" cy="187" r="0"/><circle cx="571" cy="161" r="0"/><circle cx="574" cy="161" r="0"/><circle cx="577" cy="161" r="0"/><circle cx="580" cy="161" r="0"/><circle cx="583" cy="161" r="0"/><circle cx="586" cy="161" r="0"/><circle cx="589" cy="161" r="0"/><circle cx="593" cy="161" r="0"/><circle cx="596" cy="161" r="0"/><circle cx="599" cy="161" r="0"/><circle cx="602" cy="161" r="0"/><circle cx="605" cy="161" r="0"/><circle cx="608" cy="161" r="0"/><circle cx="611" cy="189" r="0"/><circle cx="615" cy="161" r="0"/><circle cx="618" cy="161" r="0"/><circle cx="621" cy="219" r="0"/><circle cx="624" cy="190" r="0"/><circle cx="627" cy="191" r="0"/><circle cx="630" cy="191" r="0"/><circle cx="633" cy="191" r="0"/><circle cx="636" cy="191" r="0"/><circle cx="640" cy="192" r="0"/><circle cx="643" cy="192" r="0"/><circle cx="646" cy="192" r="0"/><circle cx="649" cy="193" r="0"/><circle cx="652" cy="193" r="0"/><circle cx="655" cy="194" r="0"/><circle cx="658" cy="226" r="0"/><circle cx="661" cy="228" r="0"/><circle cx="665" cy="229" r="0"/><circle cx="668" cy="196" r="0"/><circle cx="671" cy="341" r="0"/></g>
</g>
<g id="title">
<text x="350" y="36" text-anchor="middle" font-size="18" font-family="Lucida Sans Unicode">Errors in Elliptic Integral E, double</text></g>
<g id="plotXValues"></g>
<g id="plotYValues"></g>
</svg>
