<?xml version="1.0" encoding="UTF-8" standalone="no"?>
<svg width="700" height ="400" version="1.1"
xmlns:svg ="http://www.w3.org/2000/svg"
xmlns:rdf="http://www.w3.org/1999/02/22-rdf-syntax-ns#"
xmlns:cc="http://web.resource.org/cc/"
xmlns:dc="http://purl.org/dc/elements/1.1/"
xmlns ="http://www.w3.org/2000/svg"
>
<!-- SVG plot written using Boost.Plot program (Creator Jacob Voytko) --> 
<!-- Use, modification and distribution of Boost.Plot subject to the --> 
<!-- Boost Software License, Version 1.0.--> 
<!-- (See accompanying file LICENSE_1_0.txt --> 
<!-- or copy at http://www.boost.org/LICENSE_1_0.txt) --> 

<clipPath id="plot_window"><rect x="57.2" y="54" width="616" height="286"/></clipPath>
<g id="imageBackground" stroke="rgb(211,211,211)" fill="rgb(255,255,255)" stroke-width="2"><rect x="0" y="0" width="700" height="400"/></g>
<g id="plotBackground" stroke="rgb(211,211,211)" fill="rgb(255,255,255)" stroke-width="2"><rect x="56.2" y="53" width="618" height="288"/></g>
<g id="yMinorGrid" stroke="rgb(200,220,255)" stroke-width="0.5"></g>
<g id="yMajorGrid" stroke="rgb(200,220,255)" stroke-width="1"></g>
<g id="xMinorGrid" stroke="rgb(200,220,255)" stroke-width="0.5"></g>
<g id="xMajorGrid" stroke="rgb(200,220,255)" stroke-width="1"></g>
<g id="yAxis" stroke="rgb(0,0,0)" stroke-width="1"><line x1="365" y1="53" x2="365" y2="346"/><line x1="56.2" y1="53" x2="56.2" y2="341"/></g>
<g id="xAxis" stroke="rgb(0,0,0)" stroke-width="1"><line x1="51.2" y1="168" x2="674" y2="168"/><line x1="51.2" y1="341" x2="674" y2="341"/></g>
<g id="yMinorTicks" stroke="rgb(0,0,0)" stroke-width="1"><path d="M54.2,153 L56.2,153 M54.2,137 L56.2,137 M54.2,122 L56.2,122 M54.2,107 L56.2,107 M54.2,76 L56.2,76 M54.2,60.7 L56.2,60.7 M54.2,168 L56.2,168 M54.2,184 L56.2,184 M54.2,199 L56.2,199 M54.2,214 L56.2,214 M54.2,230 L56.2,230 M54.2,245 L56.2,245 M54.2,260 L56.2,260 M54.2,276 L56.2,276 M54.2,291 L56.2,291 M54.2,306 L56.2,306 M54.2,322 L56.2,322 M54.2,337 L56.2,337 " fill="none"/></g>
<g id="xMinorTicks" stroke="rgb(0,0,0)" stroke-width="1"><path d="M427,341 L427,343 M489,341 L489,343 M550,341 L550,343 M612,341 L612,343 M303,341 L303,343 M242,341 L242,343 M180,341 L180,343 M118,341 L118,343 " fill="none"/></g>
<g id="yMajorTicks" stroke="rgb(0,0,0)" stroke-width="2"><path d="M51.2,168 L56.2,168 M51.2,91.4 L56.2,91.4 M51.2,168 L56.2,168 M51.2,245 L56.2,245 M51.2,322 L56.2,322 " fill="none"/></g>
<g id="xMajorTicks" stroke="rgb(0,0,0)" stroke-width="2"><path d="M365,341 L365,346 M674,341 L674,346 M365,341 L365,346 M56.2,341 L56.2,346 " fill="none"/></g>
<g id="xTicksValues">
<text x="365" y="362" text-anchor="middle" font-size="12" font-family="Lucida Sans Unicode">0</text>
<text x="674" y="362" text-anchor="middle" font-size="12" font-family="Lucida Sans Unicode">1</text>
<text x="365" y="362" text-anchor="middle" font-size="12" font-family="Lucida Sans Unicode">0</text>
<text x="56.2" y="362" text-anchor="middle" font-size="12" font-family="Lucida Sans Unicode">-1</text></g>
<g id="yTicksValues">
<text x="45.2" y="171" text-anchor="end" font-size="12" font-family="Lucida Sans Unicode">0</text>
<text x="45.2" y="93.8" text-anchor="end" font-size="12" font-family="Lucida Sans Unicode">20</text>
<text x="45.2" y="171" text-anchor="end" font-size="12" font-family="Lucida Sans Unicode">0</text>
<text x="45.2" y="247" text-anchor="end" font-size="12" font-family="Lucida Sans Unicode">-20</text>
<text x="45.2" y="324" text-anchor="end" font-size="12" font-family="Lucida Sans Unicode">-40</text></g>
<g id="yLabel">
<text x="14.9" y="197" text-anchor="middle" transform = "rotate(-90 14.9 197 )" font-size="14" font-family="Lucida Sans Unicode"></text></g>
<g id="xLabel">
<text x="365" y="377" text-anchor="middle" font-size="14" font-family="Lucida Sans Unicode">x</text></g>
<g id="plotLines" stroke-width="2"><g clip-path="url(#plot_window)" stroke="rgb(0,0,0)" fill="rgb(0,128,0)" stroke-width="2"><path d="M56.2,168 L56.2,53.4 L59.3,161 L62.4,163 L65.5,163 L68.6,162 L71.6,165 L74.7,165 L77.8,165 L80.9,165 L84,165 L87.1,165 L90.2,168 L93.3,168 L96.4,168 L99.4,168 L103,168 L106,168 L109,168 L112,168 L115,168 L118,168 L121,168 L124,166 L127,166 L130,166 L133,166 L137,166 L140,164 L143,166 L146,166 L149,166 L152,166 L155,166 L158,166 L161,166 L164,166 L167,166 L170,164 L174,166 L177,166 L180,166 L183,166 L186,166 L189,166 L192,164 L195,166 L198,166 L201,166 L204,166 L208,166 L211,166 L214,166 L217,166 L220,166 L223,166 L226,166 L229,166 L232,166 L235,166 L238,166 L242,166 L245,166 L248,166 L251,166 L254,166 L257,166 L260,166 L263,166 L266,166 L269,166 L272,166 L276,166 L279,166 L282,166 L285,166 L288,166 L291,166 L294,166 L297,166 L300,166 L303,166 L306,166 L309,166 L313,166 L316,166 L319,166 L322,166 L325,166 L328,166 L331,166 L334,166 L337,166 L340,166 L343,166 L347,166 L350,166 L353,166 L356,166 L359,168 L362,168 L365,168 L368,166 L371,168 L374,166 L377,168 L381,166 L384,166 L387,166 L390,166 L393,166 L396,166 L399,166 L402,166 L405,166 L408,166 L411,166 L415,166 L418,166 L421,166 L424,166 L427,166 L430,166 L433,166 L436,166 L439,166 L442,166 L445,166 L449,166 L452,166 L455,166 L458,166 L461,166 L464,166 L467,166 L470,166 L473,166 L476,166 L479,166 L482,166 L486,166 L489,166 L492,166 L495,166 L498,166 L501,166 L504,166 L507,166 L510,166 L513,166 L516,166 L520,166 L523,166 L526,166 L529,166 L532,166 L535,166 L538,166 L541,164 L544,166 L547,166 L550,164 L554,164 L557,164 L560,166 L563,166 L566,166 L569,166 L572,166 L575,166 L578,166 L581,166 L584,166 L588,166 L591,166 L594,164 L597,166 L600,166 L603,166 L606,168 L609,168 L612,168 L615,168 L618,168 L621,168 L625,168 L628,168 L631,168 L634,168 L637,168 L640,165 L643,165 L646,165 L649,165 L652,165 L655,165 L659,162 L662,163 L665,163 L668,159 L671,53.4 L671,168 Z" fill="rgb(0,128,0)"/></g>
<g clip-path="url(#plot_window)" stroke="rgb(0,0,0)" fill="rgb(0,128,0)" stroke-width="2"><path d="M56.2,168 L56.2,339 L59.3,178 L62.4,174 L65.5,171 L68.6,171 L71.6,171 L74.7,168 L77.8,175 L80.9,171 L84,172 L87.1,175 L90.2,172 L93.3,172 L96.4,172 L99.4,172 L103,172 L106,172 L109,172 L112,172 L115,172 L118,170 L121,172 L124,170 L127,170 L130,168 L133,168 L137,168 L140,168 L143,170 L146,168 L149,168 L152,168 L155,168 L158,168 L161,168 L164,168 L167,168 L170,168 L174,168 L177,168 L180,168 L183,168 L186,168 L189,168 L192,168 L195,170 L198,170 L201,170 L204,170 L208,170 L211,170 L214,170 L217,170 L220,171 L223,171 L226,171 L229,168 L232,168 L235,168 L238,171 L242,168 L245,168 L248,168 L251,168 L254,168 L257,168 L260,168 L263,168 L266,171 L269,171 L272,171 L276,171 L279,171 L282,171 L285,171 L288,171 L291,171 L294,171 L297,171 L300,171 L303,171 L306,171 L309,171 L313,171 L316,171 L319,171 L322,171 L325,171 L328,171 L331,171 L334,171 L337,171 L340,171 L343,171 L347,171 L350,171 L353,171 L356,171 L359,171 L362,171 L365,171 L368,171 L371,171 L374,171 L377,171 L381,171 L384,171 L387,171 L390,171 L393,171 L396,171 L399,171 L402,171 L405,171 L408,171 L411,171 L415,171 L418,171 L421,171 L424,171 L427,171 L430,171 L433,171 L436,171 L439,171 L442,171 L445,171 L449,171 L452,171 L455,171 L458,171 L461,171 L464,168 L467,168 L470,168 L473,168 L476,168 L479,168 L482,168 L486,168 L489,168 L492,168 L495,168 L498,168 L501,171 L504,171 L507,171 L510,170 L513,170 L516,170 L520,170 L523,170 L526,170 L529,170 L532,170 L535,168 L538,168 L541,168 L544,168 L547,168 L550,168 L554,168 L557,168 L560,168 L563,168 L566,168 L569,168 L572,168 L575,168 L578,168 L581,168 L584,168 L588,168 L591,168 L594,168 L597,170 L600,168 L603,170 L606,170 L609,170 L612,172 L615,172 L618,172 L621,172 L625,172 L628,172 L631,172 L634,172 L637,172 L640,172 L643,172 L646,171 L649,175 L652,168 L655,171 L659,171 L662,174 L665,174 L668,175 L671,197 L671,168 Z" fill="rgb(0,128,0)"/></g>
</g>
<g id="plotPoints" clip-path="url(#plot_window)"><g stroke="rgb(0,128,0)" fill="rgb(0,128,0)"><circle cx="59.3" cy="161" r="0"/><circle cx="62.4" cy="163" r="0"/><circle cx="65.5" cy="163" r="0"/><circle cx="68.6" cy="162" r="0"/><circle cx="71.6" cy="165" r="0"/><circle cx="74.7" cy="165" r="0"/><circle cx="77.8" cy="165" r="0"/><circle cx="80.9" cy="165" r="0"/><circle cx="84" cy="165" r="0"/><circle cx="87.1" cy="165" r="0"/><circle cx="90.2" cy="168" r="0"/><circle cx="93.3" cy="168" r="0"/><circle cx="96.4" cy="168" r="0"/><circle cx="99.4" cy="168" r="0"/><circle cx="103" cy="168" r="0"/><circle cx="106" cy="168" r="0"/><circle cx="109" cy="168" r="0"/><circle cx="112" cy="168" r="0"/><circle cx="115" cy="168" r="0"/><circle cx="118" cy="168" r="0"/><circle cx="121" cy="168" r="0"/><circle cx="124" cy="166" r="0"/><circle cx="127" cy="166" r="0"/><circle cx="130" cy="166" r="0"/><circle cx="133" cy="166" r="0"/><circle cx="137" cy="166" r="0"/><circle cx="140" cy="164" r="0"/><circle cx="143" cy="166" r="0"/><circle cx="146" cy="166" r="0"/><circle cx="149" cy="166" r="0"/><circle cx="152" cy="166" r="0"/><circle cx="155" cy="166" r="0"/><circle cx="158" cy="166" r="0"/><circle cx="161" cy="166" r="0"/><circle cx="164" cy="166" r="0"/><circle cx="167" cy="166" r="0"/><circle cx="170" cy="164" r="0"/><circle cx="174" cy="166" r="0"/><circle cx="177" cy="166" r="0"/><circle cx="180" cy="166" r="0"/><circle cx="183" cy="166" r="0"/><circle cx="186" cy="166" r="0"/><circle cx="189" cy="166" r="0"/><circle cx="192" cy="164" r="0"/><circle cx="195" cy="166" r="0"/><circle cx="198" cy="166" r="0"/><circle cx="201" cy="166" r="0"/><circle cx="204" cy="166" r="0"/><circle cx="208" cy="166" r="0"/><circle cx="211" cy="166" r="0"/><circle cx="214" cy="166" r="0"/><circle cx="217" cy="166" r="0"/><circle cx="220" cy="166" r="0"/><circle cx="223" cy="166" r="0"/><circle cx="226" cy="166" r="0"/><circle cx="229" cy="166" r="0"/><circle cx="232" cy="166" r="0"/><circle cx="235" cy="166" r="0"/><circle cx="238" cy="166" r="0"/><circle cx="242" cy="166" r="0"/><circle cx="245" cy="166" r="0"/><circle cx="248" cy="166" r="0"/><circle cx="251" cy="166" r="0"/><circle cx="254" cy="166" r="0"/><circle cx="257" cy="166" r="0"/><circle cx="260" cy="166" r="0"/><circle cx="263" cy="166" r="0"/><circle cx="266" cy="166" r="0"/><circle cx="269" cy="166" r="0"/><circle cx="272" cy="166" r="0"/><circle cx="276" cy="166" r="0"/><circle cx="279" cy="166" r="0"/><circle cx="282" cy="166" r="0"/><circle cx="285" cy="166" r="0"/><circle cx="288" cy="166" r="0"/><circle cx="291" cy="166" r="0"/><circle cx="294" cy="166" r="0"/><circle cx="297" cy="166" r="0"/><circle cx="300" cy="166" r="0"/><circle cx="303" cy="166" r="0"/><circle cx="306" cy="166" r="0"/><circle cx="309" cy="166" r="0"/><circle cx="313" cy="166" r="0"/><circle cx="316" cy="166" r="0"/><circle cx="319" cy="166" r="0"/><circle cx="322" cy="166" r="0"/><circle cx="325" cy="166" r="0"/><circle cx="328" cy="166" r="0"/><circle cx="331" cy="166" r="0"/><circle cx="334" cy="166" r="0"/><circle cx="337" cy="166" r="0"/><circle cx="340" cy="166" r="0"/><circle cx="343" cy="166" r="0"/><circle cx="347" cy="166" r="0"/><circle cx="350" cy="166" r="0"/><circle cx="353" cy="166" r="0"/><circle cx="356" cy="166" r="0"/><circle cx="359" cy="168" r="0"/><circle cx="362" cy="168" r="0"/><circle cx="365" cy="168" r="0"/><circle cx="368" cy="166" r="0"/><circle cx="371" cy="168" r="0"/><circle cx="374" cy="166" r="0"/><circle cx="377" cy="168" r="0"/><circle cx="381" cy="166" r="0"/><circle cx="384" cy="166" r="0"/><circle cx="387" cy="166" r="0"/><circle cx="390" cy="166" r="0"/><circle cx="393" cy="166" r="0"/><circle cx="396" cy="166" r="0"/><circle cx="399" cy="166" r="0"/><circle cx="402" cy="166" r="0"/><circle cx="405" cy="166" r="0"/><circle cx="408" cy="166" r="0"/><circle cx="411" cy="166" r="0"/><circle cx="415" cy="166" r="0"/><circle cx="418" cy="166" r="0"/><circle cx="421" cy="166" r="0"/><circle cx="424" cy="166" r="0"/><circle cx="427" cy="166" r="0"/><circle cx="430" cy="166" r="0"/><circle cx="433" cy="166" r="0"/><circle cx="436" cy="166" r="0"/><circle cx="439" cy="166" r="0"/><circle cx="442" cy="166" r="0"/><circle cx="445" cy="166" r="0"/><circle cx="449" cy="166" r="0"/><circle cx="452" cy="166" r="0"/><circle cx="455" cy="166" r="0"/><circle cx="458" cy="166" r="0"/><circle cx="461" cy="166" r="0"/><circle cx="464" cy="166" r="0"/><circle cx="467" cy="166" r="0"/><circle cx="470" cy="166" r="0"/><circle cx="473" cy="166" r="0"/><circle cx="476" cy="166" r="0"/><circle cx="479" cy="166" r="0"/><circle cx="482" cy="166" r="0"/><circle cx="486" cy="166" r="0"/><circle cx="489" cy="166" r="0"/><circle cx="492" cy="166" r="0"/><circle cx="495" cy="166" r="0"/><circle cx="498" cy="166" r="0"/><circle cx="501" cy="166" r="0"/><circle cx="504" cy="166" r="0"/><circle cx="507" cy="166" r="0"/><circle cx="510" cy="166" r="0"/><circle cx="513" cy="166" r="0"/><circle cx="516" cy="166" r="0"/><circle cx="520" cy="166" r="0"/><circle cx="523" cy="166" r="0"/><circle cx="526" cy="166" r="0"/><circle cx="529" cy="166" r="0"/><circle cx="532" cy="166" r="0"/><circle cx="535" cy="166" r="0"/><circle cx="538" cy="166" r="0"/><circle cx="541" cy="164" r="0"/><circle cx="544" cy="166" r="0"/><circle cx="547" cy="166" r="0"/><circle cx="550" cy="164" r="0"/><circle cx="554" cy="164" r="0"/><circle cx="557" cy="164" r="0"/><circle cx="560" cy="166" r="0"/><circle cx="563" cy="166" r="0"/><circle cx="566" cy="166" r="0"/><circle cx="569" cy="166" r="0"/><circle cx="572" cy="166" r="0"/><circle cx="575" cy="166" r="0"/><circle cx="578" cy="166" r="0"/><circle cx="581" cy="166" r="0"/><circle cx="584" cy="166" r="0"/><circle cx="588" cy="166" r="0"/><circle cx="591" cy="166" r="0"/><circle cx="594" cy="164" r="0"/><circle cx="597" cy="166" r="0"/><circle cx="600" cy="166" r="0"/><circle cx="603" cy="166" r="0"/><circle cx="606" cy="168" r="0"/><circle cx="609" cy="168" r="0"/><circle cx="612" cy="168" r="0"/><circle cx="615" cy="168" r="0"/><circle cx="618" cy="168" r="0"/><circle cx="621" cy="168" r="0"/><circle cx="625" cy="168" r="0"/><circle cx="628" cy="168" r="0"/><circle cx="631" cy="168" r="0"/><circle cx="634" cy="168" r="0"/><circle cx="637" cy="168" r="0"/><circle cx="640" cy="165" r="0"/><circle cx="643" cy="165" r="0"/><circle cx="646" cy="165" r="0"/><circle cx="649" cy="165" r="0"/><circle cx="652" cy="165" r="0"/><circle cx="655" cy="165" r="0"/><circle cx="659" cy="162" r="0"/><circle cx="662" cy="163" r="0"/><circle cx="665" cy="163" r="0"/><circle cx="668" cy="159" r="0"/><circle cx="671" cy="53.4" r="0"/></g>
<g stroke="rgb(0,128,0)" fill="rgb(0,128,0)"><circle cx="59.3" cy="178" r="0"/><circle cx="62.4" cy="174" r="0"/><circle cx="65.5" cy="171" r="0"/><circle cx="68.6" cy="171" r="0"/><circle cx="71.6" cy="171" r="0"/><circle cx="74.7" cy="168" r="0"/><circle cx="77.8" cy="175" r="0"/><circle cx="80.9" cy="171" r="0"/><circle cx="84" cy="172" r="0"/><circle cx="87.1" cy="175" r="0"/><circle cx="90.2" cy="172" r="0"/><circle cx="93.3" cy="172" r="0"/><circle cx="96.4" cy="172" r="0"/><circle cx="99.4" cy="172" r="0"/><circle cx="103" cy="172" r="0"/><circle cx="106" cy="172" r="0"/><circle cx="109" cy="172" r="0"/><circle cx="112" cy="172" r="0"/><circle cx="115" cy="172" r="0"/><circle cx="118" cy="170" r="0"/><circle cx="121" cy="172" r="0"/><circle cx="124" cy="170" r="0"/><circle cx="127" cy="170" r="0"/><circle cx="130" cy="168" r="0"/><circle cx="133" cy="168" r="0"/><circle cx="137" cy="168" r="0"/><circle cx="140" cy="168" r="0"/><circle cx="143" cy="170" r="0"/><circle cx="146" cy="168" r="0"/><circle cx="149" cy="168" r="0"/><circle cx="152" cy="168" r="0"/><circle cx="155" cy="168" r="0"/><circle cx="158" cy="168" r="0"/><circle cx="161" cy="168" r="0"/><circle cx="164" cy="168" r="0"/><circle cx="167" cy="168" r="0"/><circle cx="170" cy="168" r="0"/><circle cx="174" cy="168" r="0"/><circle cx="177" cy="168" r="0"/><circle cx="180" cy="168" r="0"/><circle cx="183" cy="168" r="0"/><circle cx="186" cy="168" r="0"/><circle cx="189" cy="168" r="0"/><circle cx="192" cy="168" r="0"/><circle cx="195" cy="170" r="0"/><circle cx="198" cy="170" r="0"/><circle cx="201" cy="170" r="0"/><circle cx="204" cy="170" r="0"/><circle cx="208" cy="170" r="0"/><circle cx="211" cy="170" r="0"/><circle cx="214" cy="170" r="0"/><circle cx="217" cy="170" r="0"/><circle cx="220" cy="171" r="0"/><circle cx="223" cy="171" r="0"/><circle cx="226" cy="171" r="0"/><circle cx="229" cy="168" r="0"/><circle cx="232" cy="168" r="0"/><circle cx="235" cy="168" r="0"/><circle cx="238" cy="171" r="0"/><circle cx="242" cy="168" r="0"/><circle cx="245" cy="168" r="0"/><circle cx="248" cy="168" r="0"/><circle cx="251" cy="168" r="0"/><circle cx="254" cy="168" r="0"/><circle cx="257" cy="168" r="0"/><circle cx="260" cy="168" r="0"/><circle cx="263" cy="168" r="0"/><circle cx="266" cy="171" r="0"/><circle cx="269" cy="171" r="0"/><circle cx="272" cy="171" r="0"/><circle cx="276" cy="171" r="0"/><circle cx="279" cy="171" r="0"/><circle cx="282" cy="171" r="0"/><circle cx="285" cy="171" r="0"/><circle cx="288" cy="171" r="0"/><circle cx="291" cy="171" r="0"/><circle cx="294" cy="171" r="0"/><circle cx="297" cy="171" r="0"/><circle cx="300" cy="171" r="0"/><circle cx="303" cy="171" r="0"/><circle cx="306" cy="171" r="0"/><circle cx="309" cy="171" r="0"/><circle cx="313" cy="171" r="0"/><circle cx="316" cy="171" r="0"/><circle cx="319" cy="171" r="0"/><circle cx="322" cy="171" r="0"/><circle cx="325" cy="171" r="0"/><circle cx="328" cy="171" r="0"/><circle cx="331" cy="171" r="0"/><circle cx="334" cy="171" r="0"/><circle cx="337" cy="171" r="0"/><circle cx="340" cy="171" r="0"/><circle cx="343" cy="171" r="0"/><circle cx="347" cy="171" r="0"/><circle cx="350" cy="171" r="0"/><circle cx="353" cy="171" r="0"/><circle cx="356" cy="171" r="0"/><circle cx="359" cy="171" r="0"/><circle cx="362" cy="171" r="0"/><circle cx="365" cy="171" r="0"/><circle cx="368" cy="171" r="0"/><circle cx="371" cy="171" r="0"/><circle cx="374" cy="171" r="0"/><circle cx="377" cy="171" r="0"/><circle cx="381" cy="171" r="0"/><circle cx="384" cy="171" r="0"/><circle cx="387" cy="171" r="0"/><circle cx="390" cy="171" r="0"/><circle cx="393" cy="171" r="0"/><circle cx="396" cy="171" r="0"/><circle cx="399" cy="171" r="0"/><circle cx="402" cy="171" r="0"/><circle cx="405" cy="171" r="0"/><circle cx="408" cy="171" r="0"/><circle cx="411" cy="171" r="0"/><circle cx="415" cy="171" r="0"/><circle cx="418" cy="171" r="0"/><circle cx="421" cy="171" r="0"/><circle cx="424" cy="171" r="0"/><circle cx="427" cy="171" r="0"/><circle cx="430" cy="171" r="0"/><circle cx="433" cy="171" r="0"/><circle cx="436" cy="171" r="0"/><circle cx="439" cy="171" r="0"/><circle cx="442" cy="171" r="0"/><circle cx="445" cy="171" r="0"/><circle cx="449" cy="171" r="0"/><circle cx="452" cy="171" r="0"/><circle cx="455" cy="171" r="0"/><circle cx="458" cy="171" r="0"/><circle cx="461" cy="171" r="0"/><circle cx="464" cy="168" r="0"/><circle cx="467" cy="168" r="0"/><circle cx="470" cy="168" r="0"/><circle cx="473" cy="168" r="0"/><circle cx="476" cy="168" r="0"/><circle cx="479" cy="168" r="0"/><circle cx="482" cy="168" r="0"/><circle cx="486" cy="168" r="0"/><circle cx="489" cy="168" r="0"/><circle cx="492" cy="168" r="0"/><circle cx="495" cy="168" r="0"/><circle cx="498" cy="168" r="0"/><circle cx="501" cy="171" r="0"/><circle cx="504" cy="171" r="0"/><circle cx="507" cy="171" r="0"/><circle cx="510" cy="170" r="0"/><circle cx="513" cy="170" r="0"/><circle cx="516" cy="170" r="0"/><circle cx="520" cy="170" r="0"/><circle cx="523" cy="170" r="0"/><circle cx="526" cy="170" r="0"/><circle cx="529" cy="170" r="0"/><circle cx="532" cy="170" r="0"/><circle cx="535" cy="168" r="0"/><circle cx="538" cy="168" r="0"/><circle cx="541" cy="168" r="0"/><circle cx="544" cy="168" r="0"/><circle cx="547" cy="168" r="0"/><circle cx="550" cy="168" r="0"/><circle cx="554" cy="168" r="0"/><circle cx="557" cy="168" r="0"/><circle cx="560" cy="168" r="0"/><circle cx="563" cy="168" r="0"/><circle cx="566" cy="168" r="0"/><circle cx="569" cy="168" r="0"/><circle cx="572" cy="168" r="0"/><circle cx="575" cy="168" r="0"/><circle cx="578" cy="168" r="0"/><circle cx="581" cy="168" r="0"/><circle cx="584" cy="168" r="0"/><circle cx="588" cy="168" r="0"/><circle cx="591" cy="168" r="0"/><circle cx="594" cy="168" r="0"/><circle cx="597" cy="170" r="0"/><circle cx="600" cy="168" r="0"/><circle cx="603" cy="170" r="0"/><circle cx="606" cy="170" r="0"/><circle cx="609" cy="170" r="0"/><circle cx="612" cy="172" r="0"/><circle cx="615" cy="172" r="0"/><circle cx="618" cy="172" r="0"/><circle cx="621" cy="172" r="0"/><circle cx="625" cy="172" r="0"/><circle cx="628" cy="172" r="0"/><circle cx="631" cy="172" r="0"/><circle cx="634" cy="172" r="0"/><circle cx="637" cy="172" r="0"/><circle cx="640" cy="172" r="0"/><circle cx="643" cy="172" r="0"/><circle cx="646" cy="171" r="0"/><circle cx="649" cy="175" r="0"/><circle cx="652" cy="168" r="0"/><circle cx="655" cy="171" r="0"/><circle cx="659" cy="171" r="0"/><circle cx="662" cy="174" r="0"/><circle cx="665" cy="174" r="0"/><circle cx="668" cy="175" r="0"/><circle cx="671" cy="197" r="0"/></g>
</g>
<g id="title">
<text x="350" y="36" text-anchor="middle" font-size="18" font-family="Lucida Sans Unicode">Errors in Elliptic Integral K, 80 bit long double</text></g>
<g id="plotXValues"></g>
<g id="plotYValues"></g>
</svg>
