<?xml version="1.0" encoding="UTF-8" standalone="no"?>
<svg width="700" height ="400" version="1.1"
xmlns:svg ="http://www.w3.org/2000/svg"
xmlns:rdf="http://www.w3.org/1999/02/22-rdf-syntax-ns#"
xmlns:cc="http://web.resource.org/cc/"
xmlns:dc="http://purl.org/dc/elements/1.1/"
xmlns ="http://www.w3.org/2000/svg"
>
<!-- SVG plot written using Boost.Plot program (Creator Jacob Voytko) --> 
<!-- Use, modification and distribution of Boost.Plot subject to the --> 
<!-- Boost Software License, Version 1.0.--> 
<!-- (See accompanying file LICENSE_1_0.txt --> 
<!-- or copy at http://www.boost.org/LICENSE_1_0.txt) --> 

<clipPath id="plot_window"><rect x="48.8" y="54" width="624" height="286"/></clipPath>
<g id="imageBackground" stroke="rgb(211,211,211)" fill="rgb(255,255,255)" stroke-width="2"><rect x="0" y="0" width="700" height="400"/></g>
<g id="plotBackground" stroke="rgb(211,211,211)" fill="rgb(255,255,255)" stroke-width="2"><rect x="47.8" y="53" width="626" height="288"/></g>
<g id="yMinorGrid" stroke="rgb(200,220,255)" stroke-width="0.5"></g>
<g id="yMajorGrid" stroke="rgb(200,220,255)" stroke-width="1"></g>
<g id="xMinorGrid" stroke="rgb(200,220,255)" stroke-width="0.5"></g>
<g id="xMajorGrid" stroke="rgb(200,220,255)" stroke-width="1"></g>
<g id="yAxis" stroke="rgb(0,0,0)" stroke-width="1"><line x1="361" y1="53" x2="361" y2="346"/><line x1="47.8" y1="53" x2="47.8" y2="341"/></g>
<g id="xAxis" stroke="rgb(0,0,0)" stroke-width="1"><line x1="42.8" y1="197" x2="674" y2="197"/><line x1="42.8" y1="341" x2="674" y2="341"/></g>
<g id="yMinorTicks" stroke="rgb(0,0,0)" stroke-width="1"><path d="M45.8,178 L47.8,178 M45.8,159 L47.8,159 M45.8,139 L47.8,139 M45.8,120 L47.8,120 M45.8,81.8 L47.8,81.8 M45.8,62.6 L47.8,62.6 M45.8,197 L47.8,197 M45.8,216 L47.8,216 M45.8,235 L47.8,235 M45.8,255 L47.8,255 M45.8,274 L47.8,274 M45.8,293 L47.8,293 M45.8,312 L47.8,312 M45.8,331 L47.8,331 " fill="none"/></g>
<g id="xMinorTicks" stroke="rgb(0,0,0)" stroke-width="1"><path d="M424,341 L424,343 M486,341 L486,343 M549,341 L549,343 M611,341 L611,343 M298,341 L298,343 M236,341 L236,343 M173,341 L173,343 M110,341 L110,343 " fill="none"/></g>
<g id="yMajorTicks" stroke="rgb(0,0,0)" stroke-width="2"><path d="M42.8,197 L47.8,197 M42.8,101 L47.8,101 M42.8,197 L47.8,197 M42.8,293 L47.8,293 " fill="none"/></g>
<g id="xMajorTicks" stroke="rgb(0,0,0)" stroke-width="2"><path d="M361,341 L361,346 M674,341 L674,346 M361,341 L361,346 M47.8,341 L47.8,346 " fill="none"/></g>
<g id="xTicksValues">
<text x="361" y="362" text-anchor="middle" font-size="12" font-family="Lucida Sans Unicode">0</text>
<text x="674" y="362" text-anchor="middle" font-size="12" font-family="Lucida Sans Unicode">1</text>
<text x="361" y="362" text-anchor="middle" font-size="12" font-family="Lucida Sans Unicode">0</text>
<text x="47.8" y="362" text-anchor="middle" font-size="12" font-family="Lucida Sans Unicode">-1</text></g>
<g id="yTicksValues">
<text x="36.8" y="199" text-anchor="end" font-size="12" font-family="Lucida Sans Unicode">0</text>
<text x="36.8" y="103" text-anchor="end" font-size="12" font-family="Lucida Sans Unicode">2</text>
<text x="36.8" y="199" text-anchor="end" font-size="12" font-family="Lucida Sans Unicode">0</text>
<text x="36.8" y="295" text-anchor="end" font-size="12" font-family="Lucida Sans Unicode">-2</text></g>
<g id="yLabel">
<text x="14.9" y="197" text-anchor="middle" transform = "rotate(-90 14.9 197 )" font-size="14" font-family="Lucida Sans Unicode"></text></g>
<g id="xLabel">
<text x="361" y="377" text-anchor="middle" font-size="14" font-family="Lucida Sans Unicode">x</text></g>
<g id="plotLines" stroke-width="2"><g clip-path="url(#plot_window)" stroke="rgb(0,0,0)" fill="rgb(0,128,0)" stroke-width="2"><path d="M47.8,197 L47.8,102 L50.9,151 L54.1,106 L57.2,108 L60.3,66.3 L63.5,154 L66.6,154 L69.7,155 L72.8,155 L76,156 L79.1,156 L82.2,197 L85.4,197 L88.5,197 L91.6,197 L94.8,197 L97.9,158 L101,159 L104,159 L107,159 L110,159 L114,160 L117,123 L120,197 L123,197 L126,197 L129,197 L132,197 L135,197 L139,126 L142,197 L145,197 L148,197 L151,197 L154,197 L157,197 L161,94.1 L164,163 L167,163 L170,163 L173,163 L176,163 L179,163 L182,164 L186,164 L189,131 L192,164 L195,164 L198,164 L201,164 L204,164 L207,164 L211,164 L214,165 L217,165 L220,133 L223,165 L226,165 L229,165 L233,165 L236,165 L239,165 L242,165 L245,165 L248,165 L251,166 L254,197 L258,166 L261,166 L264,166 L267,166 L270,197 L273,197 L276,197 L279,166 L283,197 L286,197 L289,197 L292,166 L295,166 L298,166 L301,166 L305,166 L308,197 L311,197 L314,166 L317,166 L320,166 L323,166 L326,197 L330,166 L333,166 L336,197 L339,197 L342,197 L345,197 L348,197 L352,197 L355,197 L358,197 L361,197 L364,197 L367,197 L370,197 L373,197 L377,197 L380,197 L383,197 L386,166 L389,166 L392,166 L395,166 L398,197 L402,166 L405,166 L408,166 L411,166 L414,166 L417,166 L420,166 L424,197 L427,166 L430,166 L433,166 L436,166 L439,166 L442,166 L445,166 L449,166 L452,197 L455,166 L458,197 L461,197 L464,166 L467,165 L470,165 L474,165 L477,165 L480,165 L483,165 L486,165 L489,165 L492,165 L496,165 L499,133 L502,165 L505,165 L508,164 L511,164 L514,164 L517,164 L521,164 L524,164 L527,164 L530,131 L533,164 L536,164 L539,163 L542,163 L546,163 L549,163 L552,163 L555,163 L558,128 L561,197 L564,197 L568,197 L571,197 L574,197 L577,197 L580,126 L583,161 L586,197 L589,197 L593,197 L596,197 L599,197 L602,123 L605,160 L608,159 L611,159 L615,159 L618,159 L621,158 L624,197 L627,197 L630,197 L633,197 L636,197 L640,156 L643,156 L646,155 L649,155 L652,154 L655,110 L658,64.9 L661,152 L665,106 L668,151 L671,102 L671,197 Z" fill="rgb(0,128,0)"/></g>
<g clip-path="url(#plot_window)" stroke="rgb(0,0,0)" fill="rgb(0,128,0)" stroke-width="2"><path d="M47.8,197 L47.8,291 L50.9,244 L54.1,288 L57.2,242 L60.3,241 L63.5,240 L66.6,197 L69.7,239 L72.8,239 L76,238 L79.1,238 L82.2,237 L85.4,237 L88.5,237 L91.6,236 L94.8,236 L97.9,236 L101,235 L104,235 L107,197 L110,197 L114,234 L117,234 L120,234 L123,234 L126,233 L129,233 L132,233 L135,233 L139,232 L142,268 L145,267 L148,267 L151,267 L154,266 L157,266 L161,300 L164,231 L167,231 L170,231 L173,231 L176,231 L179,231 L182,230 L186,230 L189,197 L192,230 L195,197 L198,197 L201,197 L204,197 L207,197 L211,197 L214,229 L217,197 L220,197 L223,229 L226,229 L229,229 L233,229 L236,229 L239,229 L242,229 L245,229 L248,229 L251,229 L254,228 L258,228 L261,260 L264,228 L267,228 L270,228 L273,228 L276,228 L279,228 L283,228 L286,228 L289,228 L292,228 L295,228 L298,228 L301,228 L305,228 L308,228 L311,228 L314,228 L317,228 L320,228 L323,228 L326,228 L330,228 L333,228 L336,228 L339,228 L342,228 L345,228 L348,228 L352,228 L355,258 L358,228 L361,228 L364,228 L367,228 L370,228 L373,228 L377,228 L380,228 L383,228 L386,228 L389,228 L392,228 L395,228 L398,228 L402,228 L405,228 L408,228 L411,228 L414,228 L417,228 L420,228 L424,228 L427,228 L430,228 L433,228 L436,228 L439,228 L442,228 L445,228 L449,228 L452,228 L455,228 L458,260 L461,228 L464,228 L467,229 L470,229 L474,229 L477,229 L480,229 L483,229 L486,229 L489,229 L492,229 L496,229 L499,229 L502,197 L505,197 L508,229 L511,197 L514,197 L517,197 L521,230 L524,230 L527,197 L530,197 L533,230 L536,230 L539,231 L542,231 L546,231 L549,231 L552,231 L555,231 L558,266 L561,266 L564,266 L568,267 L571,267 L574,267 L577,268 L580,268 L583,233 L586,233 L589,269 L593,233 L596,234 L599,234 L602,234 L605,197 L608,197 L611,197 L615,235 L618,197 L621,236 L624,236 L627,236 L630,237 L633,237 L636,238 L640,238 L643,197 L646,239 L649,197 L652,240 L655,240 L658,241 L661,242 L665,288 L668,244 L671,293 L671,197 Z" fill="rgb(0,128,0)"/></g>
</g>
<g id="plotPoints" clip-path="url(#plot_window)"><g stroke="rgb(0,128,0)" fill="rgb(0,128,0)"><circle cx="47.8" cy="102" r="0"/><circle cx="50.9" cy="151" r="0"/><circle cx="54.1" cy="106" r="0"/><circle cx="57.2" cy="108" r="0"/><circle cx="60.3" cy="66.3" r="0"/><circle cx="63.5" cy="154" r="0"/><circle cx="66.6" cy="154" r="0"/><circle cx="69.7" cy="155" r="0"/><circle cx="72.8" cy="155" r="0"/><circle cx="76" cy="156" r="0"/><circle cx="79.1" cy="156" r="0"/><circle cx="82.2" cy="197" r="0"/><circle cx="85.4" cy="197" r="0"/><circle cx="88.5" cy="197" r="0"/><circle cx="91.6" cy="197" r="0"/><circle cx="94.8" cy="197" r="0"/><circle cx="97.9" cy="158" r="0"/><circle cx="101" cy="159" r="0"/><circle cx="104" cy="159" r="0"/><circle cx="107" cy="159" r="0"/><circle cx="110" cy="159" r="0"/><circle cx="114" cy="160" r="0"/><circle cx="117" cy="123" r="0"/><circle cx="120" cy="197" r="0"/><circle cx="123" cy="197" r="0"/><circle cx="126" cy="197" r="0"/><circle cx="129" cy="197" r="0"/><circle cx="132" cy="197" r="0"/><circle cx="135" cy="197" r="0"/><circle cx="139" cy="126" r="0"/><circle cx="142" cy="197" r="0"/><circle cx="145" cy="197" r="0"/><circle cx="148" cy="197" r="0"/><circle cx="151" cy="197" r="0"/><circle cx="154" cy="197" r="0"/><circle cx="157" cy="197" r="0"/><circle cx="161" cy="94.1" r="0"/><circle cx="164" cy="163" r="0"/><circle cx="167" cy="163" r="0"/><circle cx="170" cy="163" r="0"/><circle cx="173" cy="163" r="0"/><circle cx="176" cy="163" r="0"/><circle cx="179" cy="163" r="0"/><circle cx="182" cy="164" r="0"/><circle cx="186" cy="164" r="0"/><circle cx="189" cy="131" r="0"/><circle cx="192" cy="164" r="0"/><circle cx="195" cy="164" r="0"/><circle cx="198" cy="164" r="0"/><circle cx="201" cy="164" r="0"/><circle cx="204" cy="164" r="0"/><circle cx="207" cy="164" r="0"/><circle cx="211" cy="164" r="0"/><circle cx="214" cy="165" r="0"/><circle cx="217" cy="165" r="0"/><circle cx="220" cy="133" r="0"/><circle cx="223" cy="165" r="0"/><circle cx="226" cy="165" r="0"/><circle cx="229" cy="165" r="0"/><circle cx="233" cy="165" r="0"/><circle cx="236" cy="165" r="0"/><circle cx="239" cy="165" r="0"/><circle cx="242" cy="165" r="0"/><circle cx="245" cy="165" r="0"/><circle cx="248" cy="165" r="0"/><circle cx="251" cy="166" r="0"/><circle cx="254" cy="197" r="0"/><circle cx="258" cy="166" r="0"/><circle cx="261" cy="166" r="0"/><circle cx="264" cy="166" r="0"/><circle cx="267" cy="166" r="0"/><circle cx="270" cy="197" r="0"/><circle cx="273" cy="197" r="0"/><circle cx="276" cy="197" r="0"/><circle cx="279" cy="166" r="0"/><circle cx="283" cy="197" r="0"/><circle cx="286" cy="197" r="0"/><circle cx="289" cy="197" r="0"/><circle cx="292" cy="166" r="0"/><circle cx="295" cy="166" r="0"/><circle cx="298" cy="166" r="0"/><circle cx="301" cy="166" r="0"/><circle cx="305" cy="166" r="0"/><circle cx="308" cy="197" r="0"/><circle cx="311" cy="197" r="0"/><circle cx="314" cy="166" r="0"/><circle cx="317" cy="166" r="0"/><circle cx="320" cy="166" r="0"/><circle cx="323" cy="166" r="0"/><circle cx="326" cy="197" r="0"/><circle cx="330" cy="166" r="0"/><circle cx="333" cy="166" r="0"/><circle cx="336" cy="197" r="0"/><circle cx="339" cy="197" r="0"/><circle cx="342" cy="197" r="0"/><circle cx="345" cy="197" r="0"/><circle cx="348" cy="197" r="0"/><circle cx="352" cy="197" r="0"/><circle cx="355" cy="197" r="0"/><circle cx="358" cy="197" r="0"/><circle cx="361" cy="197" r="0"/><circle cx="364" cy="197" r="0"/><circle cx="367" cy="197" r="0"/><circle cx="370" cy="197" r="0"/><circle cx="373" cy="197" r="0"/><circle cx="377" cy="197" r="0"/><circle cx="380" cy="197" r="0"/><circle cx="383" cy="197" r="0"/><circle cx="386" cy="166" r="0"/><circle cx="389" cy="166" r="0"/><circle cx="392" cy="166" r="0"/><circle cx="395" cy="166" r="0"/><circle cx="398" cy="197" r="0"/><circle cx="402" cy="166" r="0"/><circle cx="405" cy="166" r="0"/><circle cx="408" cy="166" r="0"/><circle cx="411" cy="166" r="0"/><circle cx="414" cy="166" r="0"/><circle cx="417" cy="166" r="0"/><circle cx="420" cy="166" r="0"/><circle cx="424" cy="197" r="0"/><circle cx="427" cy="166" r="0"/><circle cx="430" cy="166" r="0"/><circle cx="433" cy="166" r="0"/><circle cx="436" cy="166" r="0"/><circle cx="439" cy="166" r="0"/><circle cx="442" cy="166" r="0"/><circle cx="445" cy="166" r="0"/><circle cx="449" cy="166" r="0"/><circle cx="452" cy="197" r="0"/><circle cx="455" cy="166" r="0"/><circle cx="458" cy="197" r="0"/><circle cx="461" cy="197" r="0"/><circle cx="464" cy="166" r="0"/><circle cx="467" cy="165" r="0"/><circle cx="470" cy="165" r="0"/><circle cx="474" cy="165" r="0"/><circle cx="477" cy="165" r="0"/><circle cx="480" cy="165" r="0"/><circle cx="483" cy="165" r="0"/><circle cx="486" cy="165" r="0"/><circle cx="489" cy="165" r="0"/><circle cx="492" cy="165" r="0"/><circle cx="496" cy="165" r="0"/><circle cx="499" cy="133" r="0"/><circle cx="502" cy="165" r="0"/><circle cx="505" cy="165" r="0"/><circle cx="508" cy="164" r="0"/><circle cx="511" cy="164" r="0"/><circle cx="514" cy="164" r="0"/><circle cx="517" cy="164" r="0"/><circle cx="521" cy="164" r="0"/><circle cx="524" cy="164" r="0"/><circle cx="527" cy="164" r="0"/><circle cx="530" cy="131" r="0"/><circle cx="533" cy="164" r="0"/><circle cx="536" cy="164" r="0"/><circle cx="539" cy="163" r="0"/><circle cx="542" cy="163" r="0"/><circle cx="546" cy="163" r="0"/><circle cx="549" cy="163" r="0"/><circle cx="552" cy="163" r="0"/><circle cx="555" cy="163" r="0"/><circle cx="558" cy="128" r="0"/><circle cx="561" cy="197" r="0"/><circle cx="564" cy="197" r="0"/><circle cx="568" cy="197" r="0"/><circle cx="571" cy="197" r="0"/><circle cx="574" cy="197" r="0"/><circle cx="577" cy="197" r="0"/><circle cx="580" cy="126" r="0"/><circle cx="583" cy="161" r="0"/><circle cx="586" cy="197" r="0"/><circle cx="589" cy="197" r="0"/><circle cx="593" cy="197" r="0"/><circle cx="596" cy="197" r="0"/><circle cx="599" cy="197" r="0"/><circle cx="602" cy="123" r="0"/><circle cx="605" cy="160" r="0"/><circle cx="608" cy="159" r="0"/><circle cx="611" cy="159" r="0"/><circle cx="615" cy="159" r="0"/><circle cx="618" cy="159" r="0"/><circle cx="621" cy="158" r="0"/><circle cx="624" cy="197" r="0"/><circle cx="627" cy="197" r="0"/><circle cx="630" cy="197" r="0"/><circle cx="633" cy="197" r="0"/><circle cx="636" cy="197" r="0"/><circle cx="640" cy="156" r="0"/><circle cx="643" cy="156" r="0"/><circle cx="646" cy="155" r="0"/><circle cx="649" cy="155" r="0"/><circle cx="652" cy="154" r="0"/><circle cx="655" cy="110" r="0"/><circle cx="658" cy="64.9" r="0"/><circle cx="661" cy="152" r="0"/><circle cx="665" cy="106" r="0"/><circle cx="668" cy="151" r="0"/><circle cx="671" cy="102" r="0"/></g>
<g stroke="rgb(0,128,0)" fill="rgb(0,128,0)"><circle cx="47.8" cy="291" r="0"/><circle cx="50.9" cy="244" r="0"/><circle cx="54.1" cy="288" r="0"/><circle cx="57.2" cy="242" r="0"/><circle cx="60.3" cy="241" r="0"/><circle cx="63.5" cy="240" r="0"/><circle cx="66.6" cy="197" r="0"/><circle cx="69.7" cy="239" r="0"/><circle cx="72.8" cy="239" r="0"/><circle cx="76" cy="238" r="0"/><circle cx="79.1" cy="238" r="0"/><circle cx="82.2" cy="237" r="0"/><circle cx="85.4" cy="237" r="0"/><circle cx="88.5" cy="237" r="0"/><circle cx="91.6" cy="236" r="0"/><circle cx="94.8" cy="236" r="0"/><circle cx="97.9" cy="236" r="0"/><circle cx="101" cy="235" r="0"/><circle cx="104" cy="235" r="0"/><circle cx="107" cy="197" r="0"/><circle cx="110" cy="197" r="0"/><circle cx="114" cy="234" r="0"/><circle cx="117" cy="234" r="0"/><circle cx="120" cy="234" r="0"/><circle cx="123" cy="234" r="0"/><circle cx="126" cy="233" r="0"/><circle cx="129" cy="233" r="0"/><circle cx="132" cy="233" r="0"/><circle cx="135" cy="233" r="0"/><circle cx="139" cy="232" r="0"/><circle cx="142" cy="268" r="0"/><circle cx="145" cy="267" r="0"/><circle cx="148" cy="267" r="0"/><circle cx="151" cy="267" r="0"/><circle cx="154" cy="266" r="0"/><circle cx="157" cy="266" r="0"/><circle cx="161" cy="300" r="0"/><circle cx="164" cy="231" r="0"/><circle cx="167" cy="231" r="0"/><circle cx="170" cy="231" r="0"/><circle cx="173" cy="231" r="0"/><circle cx="176" cy="231" r="0"/><circle cx="179" cy="231" r="0"/><circle cx="182" cy="230" r="0"/><circle cx="186" cy="230" r="0"/><circle cx="189" cy="197" r="0"/><circle cx="192" cy="230" r="0"/><circle cx="195" cy="197" r="0"/><circle cx="198" cy="197" r="0"/><circle cx="201" cy="197" r="0"/><circle cx="204" cy="197" r="0"/><circle cx="207" cy="197" r="0"/><circle cx="211" cy="197" r="0"/><circle cx="214" cy="229" r="0"/><circle cx="217" cy="197" r="0"/><circle cx="220" cy="197" r="0"/><circle cx="223" cy="229" r="0"/><circle cx="226" cy="229" r="0"/><circle cx="229" cy="229" r="0"/><circle cx="233" cy="229" r="0"/><circle cx="236" cy="229" r="0"/><circle cx="239" cy="229" r="0"/><circle cx="242" cy="229" r="0"/><circle cx="245" cy="229" r="0"/><circle cx="248" cy="229" r="0"/><circle cx="251" cy="229" r="0"/><circle cx="254" cy="228" r="0"/><circle cx="258" cy="228" r="0"/><circle cx="261" cy="260" r="0"/><circle cx="264" cy="228" r="0"/><circle cx="267" cy="228" r="0"/><circle cx="270" cy="228" r="0"/><circle cx="273" cy="228" r="0"/><circle cx="276" cy="228" r="0"/><circle cx="279" cy="228" r="0"/><circle cx="283" cy="228" r="0"/><circle cx="286" cy="228" r="0"/><circle cx="289" cy="228" r="0"/><circle cx="292" cy="228" r="0"/><circle cx="295" cy="228" r="0"/><circle cx="298" cy="228" r="0"/><circle cx="301" cy="228" r="0"/><circle cx="305" cy="228" r="0"/><circle cx="308" cy="228" r="0"/><circle cx="311" cy="228" r="0"/><circle cx="314" cy="228" r="0"/><circle cx="317" cy="228" r="0"/><circle cx="320" cy="228" r="0"/><circle cx="323" cy="228" r="0"/><circle cx="326" cy="228" r="0"/><circle cx="330" cy="228" r="0"/><circle cx="333" cy="228" r="0"/><circle cx="336" cy="228" r="0"/><circle cx="339" cy="228" r="0"/><circle cx="342" cy="228" r="0"/><circle cx="345" cy="228" r="0"/><circle cx="348" cy="228" r="0"/><circle cx="352" cy="228" r="0"/><circle cx="355" cy="258" r="0"/><circle cx="358" cy="228" r="0"/><circle cx="361" cy="228" r="0"/><circle cx="364" cy="228" r="0"/><circle cx="367" cy="228" r="0"/><circle cx="370" cy="228" r="0"/><circle cx="373" cy="228" r="0"/><circle cx="377" cy="228" r="0"/><circle cx="380" cy="228" r="0"/><circle cx="383" cy="228" r="0"/><circle cx="386" cy="228" r="0"/><circle cx="389" cy="228" r="0"/><circle cx="392" cy="228" r="0"/><circle cx="395" cy="228" r="0"/><circle cx="398" cy="228" r="0"/><circle cx="402" cy="228" r="0"/><circle cx="405" cy="228" r="0"/><circle cx="408" cy="228" r="0"/><circle cx="411" cy="228" r="0"/><circle cx="414" cy="228" r="0"/><circle cx="417" cy="228" r="0"/><circle cx="420" cy="228" r="0"/><circle cx="424" cy="228" r="0"/><circle cx="427" cy="228" r="0"/><circle cx="430" cy="228" r="0"/><circle cx="433" cy="228" r="0"/><circle cx="436" cy="228" r="0"/><circle cx="439" cy="228" r="0"/><circle cx="442" cy="228" r="0"/><circle cx="445" cy="228" r="0"/><circle cx="449" cy="228" r="0"/><circle cx="452" cy="228" r="0"/><circle cx="455" cy="228" r="0"/><circle cx="458" cy="260" r="0"/><circle cx="461" cy="228" r="0"/><circle cx="464" cy="228" r="0"/><circle cx="467" cy="229" r="0"/><circle cx="470" cy="229" r="0"/><circle cx="474" cy="229" r="0"/><circle cx="477" cy="229" r="0"/><circle cx="480" cy="229" r="0"/><circle cx="483" cy="229" r="0"/><circle cx="486" cy="229" r="0"/><circle cx="489" cy="229" r="0"/><circle cx="492" cy="229" r="0"/><circle cx="496" cy="229" r="0"/><circle cx="499" cy="229" r="0"/><circle cx="502" cy="197" r="0"/><circle cx="505" cy="197" r="0"/><circle cx="508" cy="229" r="0"/><circle cx="511" cy="197" r="0"/><circle cx="514" cy="197" r="0"/><circle cx="517" cy="197" r="0"/><circle cx="521" cy="230" r="0"/><circle cx="524" cy="230" r="0"/><circle cx="527" cy="197" r="0"/><circle cx="530" cy="197" r="0"/><circle cx="533" cy="230" r="0"/><circle cx="536" cy="230" r="0"/><circle cx="539" cy="231" r="0"/><circle cx="542" cy="231" r="0"/><circle cx="546" cy="231" r="0"/><circle cx="549" cy="231" r="0"/><circle cx="552" cy="231" r="0"/><circle cx="555" cy="231" r="0"/><circle cx="558" cy="266" r="0"/><circle cx="561" cy="266" r="0"/><circle cx="564" cy="266" r="0"/><circle cx="568" cy="267" r="0"/><circle cx="571" cy="267" r="0"/><circle cx="574" cy="267" r="0"/><circle cx="577" cy="268" r="0"/><circle cx="580" cy="268" r="0"/><circle cx="583" cy="233" r="0"/><circle cx="586" cy="233" r="0"/><circle cx="589" cy="269" r="0"/><circle cx="593" cy="233" r="0"/><circle cx="596" cy="234" r="0"/><circle cx="599" cy="234" r="0"/><circle cx="602" cy="234" r="0"/><circle cx="605" cy="197" r="0"/><circle cx="608" cy="197" r="0"/><circle cx="611" cy="197" r="0"/><circle cx="615" cy="235" r="0"/><circle cx="618" cy="197" r="0"/><circle cx="621" cy="236" r="0"/><circle cx="624" cy="236" r="0"/><circle cx="627" cy="236" r="0"/><circle cx="630" cy="237" r="0"/><circle cx="633" cy="237" r="0"/><circle cx="636" cy="238" r="0"/><circle cx="640" cy="238" r="0"/><circle cx="643" cy="197" r="0"/><circle cx="646" cy="239" r="0"/><circle cx="649" cy="197" r="0"/><circle cx="652" cy="240" r="0"/><circle cx="655" cy="240" r="0"/><circle cx="658" cy="241" r="0"/><circle cx="661" cy="242" r="0"/><circle cx="665" cy="288" r="0"/><circle cx="668" cy="244" r="0"/><circle cx="671" cy="293" r="0"/></g>
</g>
<g id="title">
<text x="350" y="36" text-anchor="middle" font-size="18" font-family="Lucida Sans Unicode">Errors in Elliptic Integral E, 80 bit long double</text></g>
<g id="plotXValues"></g>
<g id="plotYValues"></g>
</svg>
