<?xml version="1.0" encoding="utf-8" standalone="no"?>
<!DOCTYPE svg PUBLIC "-//W3C//DTD SVG 1.1//EN"
  "http://www.w3.org/Graphics/SVG/1.1/DTD/svg11.dtd">
<!-- Created with matplotlib (https://matplotlib.org/) -->
<svg height="576pt" version="1.1" viewBox="0 0 504 576" width="504pt" xmlns="http://www.w3.org/2000/svg" xmlns:xlink="http://www.w3.org/1999/xlink">
 <defs>
  <style type="text/css">
*{stroke-linecap:butt;stroke-linejoin:round;}
  </style>
 </defs>
 <g id="figure_1">
  <g id="patch_1">
   <path d="M 0 576 
L 504 576 
L 504 0 
L 0 0 
z
" style="fill:#ffffff;"/>
  </g>
  <g id="axes_1">
   <g id="patch_2">
    <path d="M 80.74125 534.04 
L 486.855 534.04 
L 486.855 13.32 
L 80.74125 13.32 
z
" style="fill:#ffffff;"/>
   </g>
   <g id="patch_3">
    <path clip-path="url(#pabc28fcca8)" d="M 80.74125 521.641905 
L 145.824618 521.641905 
L 145.824618 534.04 
L 80.74125 534.04 
z
" style="fill:#ff0000;"/>
   </g>
   <g id="patch_4">
    <path clip-path="url(#pabc28fcca8)" d="M 132.564306 521.641905 
L 145.824618 521.641905 
L 145.824618 534.04 
L 132.564306 534.04 
z
" style="fill:url(#heec0181a81);stroke:#ffffff;stroke-linejoin:miter;"/>
   </g>
   <g id="patch_5">
    <path clip-path="url(#pabc28fcca8)" d="M 80.74125 509.24381 
L 203.144126 509.24381 
L 203.144126 521.641905 
L 80.74125 521.641905 
z
" style="fill:#ff1a00;"/>
   </g>
   <g id="patch_6">
    <path clip-path="url(#pabc28fcca8)" d="M 186.555515 509.24381 
L 203.144126 509.24381 
L 203.144126 521.641905 
L 186.555515 521.641905 
z
" style="fill:url(#heec0181a81);stroke:#ffffff;stroke-linejoin:miter;"/>
   </g>
   <g id="patch_7">
    <path clip-path="url(#pabc28fcca8)" d="M 80.74125 496.845714 
L 215.013164 496.845714 
L 215.013164 509.24381 
L 80.74125 509.24381 
z
" style="fill:#ff3300;"/>
   </g>
   <g id="patch_8">
    <path clip-path="url(#pabc28fcca8)" d="M 197.789161 496.845714 
L 215.013164 496.845714 
L 215.013164 509.24381 
L 197.789161 509.24381 
z
" style="fill:url(#heec0181a81);stroke:#ffffff;stroke-linejoin:miter;"/>
   </g>
   <g id="patch_9">
    <path clip-path="url(#pabc28fcca8)" d="M 80.74125 484.447619 
L 316.282492 484.447619 
L 316.282492 496.845714 
L 80.74125 496.845714 
z
" style="fill:#ff4c00;"/>
   </g>
   <g id="patch_10">
    <path clip-path="url(#pabc28fcca8)" d="M 297.636519 484.447619 
L 316.282492 484.447619 
L 316.282492 496.845714 
L 297.636519 496.845714 
z
" style="fill:url(#heec0181a81);stroke:#ffffff;stroke-linejoin:miter;"/>
   </g>
   <g id="patch_11">
    <path clip-path="url(#pabc28fcca8)" d="M 80.74125 472.049524 
L 105.443136 472.049524 
L 105.443136 484.447619 
L 80.74125 484.447619 
z
" style="fill:#ff6600;"/>
   </g>
   <g id="patch_12">
    <path clip-path="url(#pabc28fcca8)" d="M 105.361354 472.049524 
L 105.443136 472.049524 
L 105.443136 484.447619 
L 105.361354 484.447619 
z
" style="fill:url(#heec0181a81);stroke:#ffffff;stroke-linejoin:miter;"/>
   </g>
   <g id="patch_13">
    <path clip-path="url(#pabc28fcca8)" d="M 80.74125 459.651429 
L 156.653141 459.651429 
L 156.653141 472.049524 
L 80.74125 472.049524 
z
" style="fill:#ff8000;"/>
   </g>
   <g id="patch_14">
    <path clip-path="url(#pabc28fcca8)" d="M 156.561012 459.651429 
L 156.653141 459.651429 
L 156.653141 472.049524 
L 156.561012 472.049524 
z
" style="fill:url(#heec0181a81);stroke:#ffffff;stroke-linejoin:miter;"/>
   </g>
   <g id="patch_15">
    <path clip-path="url(#pabc28fcca8)" d="M 80.74125 447.253333 
L 121.198368 447.253333 
L 121.198368 459.651429 
L 80.74125 459.651429 
z
" style="fill:#ff9900;"/>
   </g>
   <g id="patch_16">
    <path clip-path="url(#pabc28fcca8)" d="M 121.156148 447.253333 
L 121.198368 447.253333 
L 121.198368 459.651429 
L 121.156148 459.651429 
z
" style="fill:url(#heec0181a81);stroke:#ffffff;stroke-linejoin:miter;"/>
   </g>
   <g id="patch_17">
    <path clip-path="url(#pabc28fcca8)" d="M 80.74125 434.855238 
L 160.721204 434.855238 
L 160.721204 447.253333 
L 80.74125 447.253333 
z
" style="fill:#ffb200;"/>
   </g>
   <g id="patch_18">
    <path clip-path="url(#pabc28fcca8)" d="M 158.089642 434.855238 
L 160.721204 434.855238 
L 160.721204 447.253333 
L 158.089642 447.253333 
z
" style="fill:url(#heec0181a81);stroke:#ffffff;stroke-linejoin:miter;"/>
   </g>
   <g id="patch_19">
    <path clip-path="url(#pabc28fcca8)" d="M 80.74125 422.457143 
L 195.933842 422.457143 
L 195.933842 434.855238 
L 80.74125 434.855238 
z
" style="fill:#4c4c4c;"/>
   </g>
   <g id="patch_20">
    <path clip-path="url(#pabc28fcca8)" d="M 189.046277 422.457143 
L 195.933842 422.457143 
L 195.933842 434.855238 
L 189.046277 434.855238 
z
" style="fill:url(#heec0181a81);stroke:#ffffff;stroke-linejoin:miter;"/>
   </g>
   <g id="patch_21">
    <path clip-path="url(#pabc28fcca8)" d="M 80.74125 410.059048 
L 238.347771 410.059048 
L 238.347771 422.457143 
L 80.74125 422.457143 
z
"/>
   </g>
   <g id="patch_22">
    <path clip-path="url(#pabc28fcca8)" d="M 219.495131 410.059048 
L 238.347771 410.059048 
L 238.347771 422.457143 
L 219.495131 422.457143 
z
" style="fill:url(#heec0181a81);stroke:#ffffff;stroke-linejoin:miter;"/>
   </g>
   <g id="patch_23">
    <path clip-path="url(#pabc28fcca8)" d="M 80.74125 385.262857 
L 137.022158 385.262857 
L 137.022158 397.660952 
L 80.74125 397.660952 
z
" style="fill:#ff0000;"/>
   </g>
   <g id="patch_24">
    <path clip-path="url(#pabc28fcca8)" d="M 125.491698 385.262857 
L 137.022158 385.262857 
L 137.022158 397.660952 
L 125.491698 397.660952 
z
" style="fill:url(#heec0181a81);stroke:#ffffff;stroke-linejoin:miter;"/>
   </g>
   <g id="patch_25">
    <path clip-path="url(#pabc28fcca8)" d="M 80.74125 372.864762 
L 167.985327 372.864762 
L 167.985327 385.262857 
L 80.74125 385.262857 
z
" style="fill:#ff1a00;"/>
   </g>
   <g id="patch_26">
    <path clip-path="url(#pabc28fcca8)" d="M 152.668425 372.864762 
L 167.985327 372.864762 
L 167.985327 385.262857 
L 152.668425 385.262857 
z
" style="fill:url(#heec0181a81);stroke:#ffffff;stroke-linejoin:miter;"/>
   </g>
   <g id="patch_27">
    <path clip-path="url(#pabc28fcca8)" d="M 80.74125 360.466667 
L 230.403154 360.466667 
L 230.403154 372.864762 
L 80.74125 372.864762 
z
" style="fill:#ff3300;"/>
   </g>
   <g id="patch_28">
    <path clip-path="url(#pabc28fcca8)" d="M 211.041108 360.466667 
L 230.403154 360.466667 
L 230.403154 372.864762 
L 211.041108 372.864762 
z
" style="fill:url(#heec0181a81);stroke:#ffffff;stroke-linejoin:miter;"/>
   </g>
   <g id="patch_29">
    <path clip-path="url(#pabc28fcca8)" d="M 80.74125 348.068571 
L 257.604763 348.068571 
L 257.604763 360.466667 
L 80.74125 360.466667 
z
" style="fill:#ff4c00;"/>
   </g>
   <g id="patch_30">
    <path clip-path="url(#pabc28fcca8)" d="M 239.626606 348.068571 
L 257.604763 348.068571 
L 257.604763 360.466667 
L 239.626606 360.466667 
z
" style="fill:url(#heec0181a81);stroke:#ffffff;stroke-linejoin:miter;"/>
   </g>
   <g id="patch_31">
    <path clip-path="url(#pabc28fcca8)" d="M 80.74125 335.670476 
L 106.108095 335.670476 
L 106.108095 348.068571 
L 80.74125 348.068571 
z
" style="fill:#ff6600;"/>
   </g>
   <g id="patch_32">
    <path clip-path="url(#pabc28fcca8)" d="M 106.066926 335.670476 
L 106.108095 335.670476 
L 106.108095 348.068571 
L 106.066926 348.068571 
z
" style="fill:url(#heec0181a81);stroke:#ffffff;stroke-linejoin:miter;"/>
   </g>
   <g id="patch_33">
    <path clip-path="url(#pabc28fcca8)" d="M 80.74125 323.272381 
L 130.022645 323.272381 
L 130.022645 335.670476 
L 80.74125 335.670476 
z
" style="fill:#ff8000;"/>
   </g>
   <g id="patch_34">
    <path clip-path="url(#pabc28fcca8)" d="M 129.738046 323.272381 
L 130.022645 323.272381 
L 130.022645 335.670476 
L 129.738046 335.670476 
z
" style="fill:url(#heec0181a81);stroke:#ffffff;stroke-linejoin:miter;"/>
   </g>
   <g id="patch_35">
    <path clip-path="url(#pabc28fcca8)" d="M 80.74125 310.874286 
L 106.638591 310.874286 
L 106.638591 323.272381 
L 80.74125 323.272381 
z
" style="fill:#ff9900;"/>
   </g>
   <g id="patch_36">
    <path clip-path="url(#pabc28fcca8)" d="M 106.096124 310.874286 
L 106.638591 310.874286 
L 106.638591 323.272381 
L 106.096124 323.272381 
z
" style="fill:url(#heec0181a81);stroke:#ffffff;stroke-linejoin:miter;"/>
   </g>
   <g id="patch_37">
    <path clip-path="url(#pabc28fcca8)" d="M 80.74125 298.47619 
L 132.181885 298.47619 
L 132.181885 310.874286 
L 80.74125 310.874286 
z
" style="fill:#ffb200;"/>
   </g>
   <g id="patch_38">
    <path clip-path="url(#pabc28fcca8)" d="M 130.406245 298.47619 
L 132.181885 298.47619 
L 132.181885 310.874286 
L 130.406245 310.874286 
z
" style="fill:url(#heec0181a81);stroke:#ffffff;stroke-linejoin:miter;"/>
   </g>
   <g id="patch_39">
    <path clip-path="url(#pabc28fcca8)" d="M 80.74125 286.078095 
L 217.497504 286.078095 
L 217.497504 298.47619 
L 80.74125 298.47619 
z
" style="fill:#4c4c4c;"/>
   </g>
   <g id="patch_40">
    <path clip-path="url(#pabc28fcca8)" d="M 204.120495 286.078095 
L 217.497504 286.078095 
L 217.497504 298.47619 
L 204.120495 298.47619 
z
" style="fill:url(#heec0181a81);stroke:#ffffff;stroke-linejoin:miter;"/>
   </g>
   <g id="patch_41">
    <path clip-path="url(#pabc28fcca8)" d="M 80.74125 273.68 
L 211.416164 273.68 
L 211.416164 286.078095 
L 80.74125 286.078095 
z
"/>
   </g>
   <g id="patch_42">
    <path clip-path="url(#pabc28fcca8)" d="M 193.72421 273.68 
L 211.416164 273.68 
L 211.416164 286.078095 
L 193.72421 286.078095 
z
" style="fill:url(#heec0181a81);stroke:#ffffff;stroke-linejoin:miter;"/>
   </g>
   <g id="patch_43">
    <path clip-path="url(#pabc28fcca8)" d="M 80.74125 248.88381 
L 173.014691 248.88381 
L 173.014691 261.281905 
L 80.74125 261.281905 
z
" style="fill:#ff0000;"/>
   </g>
   <g id="patch_44">
    <path clip-path="url(#pabc28fcca8)" d="M 166.556092 248.88381 
L 173.014691 248.88381 
L 173.014691 261.281905 
L 166.556092 261.281905 
z
" style="fill:url(#heec0181a81);stroke:#ffffff;stroke-linejoin:miter;"/>
   </g>
   <g id="patch_45">
    <path clip-path="url(#pabc28fcca8)" d="M 80.74125 236.485714 
L 219.297266 236.485714 
L 219.297266 248.88381 
L 80.74125 248.88381 
z
" style="fill:#ff1c00;"/>
   </g>
   <g id="patch_46">
    <path clip-path="url(#pabc28fcca8)" d="M 172.322452 236.485714 
L 219.297266 236.485714 
L 219.297266 248.88381 
L 172.322452 248.88381 
z
" style="fill:url(#heec0181a81);stroke:#ffffff;stroke-linejoin:miter;"/>
   </g>
   <g id="patch_47">
    <path clip-path="url(#pabc28fcca8)" d="M 80.74125 224.087619 
L 459.323979 224.087619 
L 459.323979 236.485714 
L 80.74125 236.485714 
z
" style="fill:#ff3900;"/>
   </g>
   <g id="patch_48">
    <path clip-path="url(#pabc28fcca8)" d="M 302.067112 224.087619 
L 459.323979 224.087619 
L 459.323979 236.485714 
L 302.067112 236.485714 
z
" style="fill:url(#heec0181a81);stroke:#ffffff;stroke-linejoin:miter;"/>
   </g>
   <g id="patch_49">
    <path clip-path="url(#pabc28fcca8)" d="M 80.74125 211.689524 
L 429.02737 211.689524 
L 429.02737 224.087619 
L 80.74125 224.087619 
z
" style="fill:#ff5500;"/>
   </g>
   <g id="patch_50">
    <path clip-path="url(#pabc28fcca8)" d="M 268.995545 211.689524 
L 429.02737 211.689524 
L 429.02737 224.087619 
L 268.995545 224.087619 
z
" style="fill:url(#heec0181a81);stroke:#ffffff;stroke-linejoin:miter;"/>
   </g>
   <g id="patch_51">
    <path clip-path="url(#pabc28fcca8)" d="M 80.74125 199.291429 
L 106.617922 199.291429 
L 106.617922 211.689524 
L 80.74125 211.689524 
z
" style="fill:#ff7100;"/>
   </g>
   <g id="patch_52">
    <path clip-path="url(#pabc28fcca8)" d="M 103.566928 199.291429 
L 106.617922 199.291429 
L 106.617922 211.689524 
L 103.566928 211.689524 
z
" style="fill:url(#heec0181a81);stroke:#ffffff;stroke-linejoin:miter;"/>
   </g>
   <g id="patch_53">
    <path clip-path="url(#pabc28fcca8)" d="M 80.74125 186.893333 
L 136.10703 186.893333 
L 136.10703 199.291429 
L 80.74125 199.291429 
z
" style="fill:#ff8e00;"/>
   </g>
   <g id="patch_54">
    <path clip-path="url(#pabc28fcca8)" d="M 121.00795 186.893333 
L 136.10703 186.893333 
L 136.10703 199.291429 
L 121.00795 199.291429 
z
" style="fill:url(#heec0181a81);stroke:#ffffff;stroke-linejoin:miter;"/>
   </g>
   <g id="patch_55">
    <path clip-path="url(#pabc28fcca8)" d="M 80.74125 174.495238 
L 107.894898 174.495238 
L 107.894898 186.893333 
L 80.74125 186.893333 
z
" style="fill:#ffaa00;"/>
   </g>
   <g id="patch_56">
    <path clip-path="url(#pabc28fcca8)" d="M 103.772092 174.495238 
L 107.894898 174.495238 
L 107.894898 186.893333 
L 103.772092 186.893333 
z
" style="fill:url(#heec0181a81);stroke:#ffffff;stroke-linejoin:miter;"/>
   </g>
   <g id="patch_57">
    <path clip-path="url(#pabc28fcca8)" d="M 80.74125 162.097143 
L 131.086055 162.097143 
L 131.086055 174.495238 
L 80.74125 174.495238 
z
" style="fill:#ffc600;"/>
   </g>
   <g id="patch_58">
    <path clip-path="url(#pabc28fcca8)" d="M 120.62654 162.097143 
L 131.086055 162.097143 
L 131.086055 174.495238 
L 120.62654 174.495238 
z
" style="fill:url(#heec0181a81);stroke:#ffffff;stroke-linejoin:miter;"/>
   </g>
   <g id="patch_59">
    <path clip-path="url(#pabc28fcca8)" d="M 80.74125 149.699048 
L 297.027445 149.699048 
L 297.027445 162.097143 
L 80.74125 162.097143 
z
"/>
   </g>
   <g id="patch_60">
    <path clip-path="url(#pabc28fcca8)" d="M 261.863919 149.699048 
L 297.027445 149.699048 
L 297.027445 162.097143 
L 261.863919 162.097143 
z
" style="fill:url(#heec0181a81);stroke:#ffffff;stroke-linejoin:miter;"/>
   </g>
   <g id="patch_61">
    <path clip-path="url(#pabc28fcca8)" d="M 80.74125 124.902857 
L 181.961859 124.902857 
L 181.961859 137.300952 
L 80.74125 137.300952 
z
" style="fill:#ff0000;"/>
   </g>
   <g id="patch_62">
    <path clip-path="url(#pabc28fcca8)" d="M 167.101216 124.902857 
L 181.961859 124.902857 
L 181.961859 137.300952 
L 167.101216 137.300952 
z
" style="fill:url(#heec0181a81);stroke:#ffffff;stroke-linejoin:miter;"/>
   </g>
   <g id="patch_63">
    <path clip-path="url(#pabc28fcca8)" d="M 80.74125 112.504762 
L 273.407018 112.504762 
L 273.407018 124.902857 
L 80.74125 124.902857 
z
" style="fill:#ff1c00;"/>
   </g>
   <g id="patch_64">
    <path clip-path="url(#pabc28fcca8)" d="M 168.232184 112.504762 
L 273.407018 112.504762 
L 273.407018 124.902857 
L 168.232184 124.902857 
z
" style="fill:url(#heec0181a81);stroke:#ffffff;stroke-linejoin:miter;"/>
   </g>
   <g id="patch_65">
    <path clip-path="url(#pabc28fcca8)" d="M 80.74125 100.106667 
L 385.179772 100.106667 
L 385.179772 112.504762 
L 80.74125 112.504762 
z
" style="fill:#ff3900;"/>
   </g>
   <g id="patch_66">
    <path clip-path="url(#pabc28fcca8)" d="M 262.643301 100.106667 
L 385.179772 100.106667 
L 385.179772 112.504762 
L 262.643301 112.504762 
z
" style="fill:url(#heec0181a81);stroke:#ffffff;stroke-linejoin:miter;"/>
   </g>
   <g id="patch_67">
    <path clip-path="url(#pabc28fcca8)" d="M 80.74125 87.708571 
L 310.964686 87.708571 
L 310.964686 100.106667 
L 80.74125 100.106667 
z
" style="fill:#ff5500;"/>
   </g>
   <g id="patch_68">
    <path clip-path="url(#pabc28fcca8)" d="M 232.519194 87.708571 
L 310.964686 87.708571 
L 310.964686 100.106667 
L 232.519194 100.106667 
z
" style="fill:url(#heec0181a81);stroke:#ffffff;stroke-linejoin:miter;"/>
   </g>
   <g id="patch_69">
    <path clip-path="url(#pabc28fcca8)" d="M 80.74125 75.310476 
L 101.845065 75.310476 
L 101.845065 87.708571 
L 80.74125 87.708571 
z
" style="fill:#ff7100;"/>
   </g>
   <g id="patch_70">
    <path clip-path="url(#pabc28fcca8)" d="M 101.446912 75.310476 
L 101.845065 75.310476 
L 101.845065 87.708571 
L 101.446912 87.708571 
z
" style="fill:url(#heec0181a81);stroke:#ffffff;stroke-linejoin:miter;"/>
   </g>
   <g id="patch_71">
    <path clip-path="url(#pabc28fcca8)" d="M 80.74125 62.912381 
L 110.222456 62.912381 
L 110.222456 75.310476 
L 80.74125 75.310476 
z
" style="fill:#ff8e00;"/>
   </g>
   <g id="patch_72">
    <path clip-path="url(#pabc28fcca8)" d="M 109.883272 62.912381 
L 110.222456 62.912381 
L 110.222456 75.310476 
L 109.883272 75.310476 
z
" style="fill:url(#heec0181a81);stroke:#ffffff;stroke-linejoin:miter;"/>
   </g>
   <g id="patch_73">
    <path clip-path="url(#pabc28fcca8)" d="M 80.74125 50.514286 
L 102.037195 50.514286 
L 102.037195 62.912381 
L 80.74125 62.912381 
z
" style="fill:#ffaa00;"/>
   </g>
   <g id="patch_74">
    <path clip-path="url(#pabc28fcca8)" d="M 101.669635 50.514286 
L 102.037195 50.514286 
L 102.037195 62.912381 
L 101.669635 62.912381 
z
" style="fill:url(#heec0181a81);stroke:#ffffff;stroke-linejoin:miter;"/>
   </g>
   <g id="patch_75">
    <path clip-path="url(#pabc28fcca8)" d="M 80.74125 38.11619 
L 110.397339 38.11619 
L 110.397339 50.514286 
L 80.74125 50.514286 
z
" style="fill:#ffc600;"/>
   </g>
   <g id="patch_76">
    <path clip-path="url(#pabc28fcca8)" d="M 110.107067 38.11619 
L 110.397339 38.11619 
L 110.397339 50.514286 
L 110.107067 50.514286 
z
" style="fill:url(#heec0181a81);stroke:#ffffff;stroke-linejoin:miter;"/>
   </g>
   <g id="patch_77">
    <path clip-path="url(#pabc28fcca8)" d="M 80.74125 25.718095 
L 286.481542 25.718095 
L 286.481542 38.11619 
L 80.74125 38.11619 
z
"/>
   </g>
   <g id="patch_78">
    <path clip-path="url(#pabc28fcca8)" d="M 241.400379 25.718095 
L 286.481542 25.718095 
L 286.481542 38.11619 
L 241.400379 38.11619 
z
" style="fill:url(#heec0181a81);stroke:#ffffff;stroke-linejoin:miter;"/>
   </g>
   <g id="matplotlib.axis_1">
    <g id="xtick_1">
     <g id="line2d_1">
      <defs>
       <path d="M 0 0 
L 0 3.5 
" id="m929afb3b98" style="stroke:#000000;stroke-width:0.8;"/>
      </defs>
      <g>
       <use style="stroke:#000000;stroke-width:0.8;" x="80.74125" xlink:href="#m929afb3b98" y="534.04"/>
      </g>
     </g>
     <g id="text_1">
      <!-- 0 -->
      <defs>
       <path d="M 31.78125 66.40625 
Q 24.171875 66.40625 20.328125 58.90625 
Q 16.5 51.421875 16.5 36.375 
Q 16.5 21.390625 20.328125 13.890625 
Q 24.171875 6.390625 31.78125 6.390625 
Q 39.453125 6.390625 43.28125 13.890625 
Q 47.125 21.390625 47.125 36.375 
Q 47.125 51.421875 43.28125 58.90625 
Q 39.453125 66.40625 31.78125 66.40625 
z
M 31.78125 74.21875 
Q 44.046875 74.21875 50.515625 64.515625 
Q 56.984375 54.828125 56.984375 36.375 
Q 56.984375 17.96875 50.515625 8.265625 
Q 44.046875 -1.421875 31.78125 -1.421875 
Q 19.53125 -1.421875 13.0625 8.265625 
Q 6.59375 17.96875 6.59375 36.375 
Q 6.59375 54.828125 13.0625 64.515625 
Q 19.53125 74.21875 31.78125 74.21875 
z
" id="DejaVuSans-48"/>
      </defs>
      <g transform="translate(77.56 548.638438)scale(0.1 -0.1)">
       <use xlink:href="#DejaVuSans-48"/>
      </g>
     </g>
    </g>
    <g id="xtick_2">
     <g id="line2d_2">
      <g>
       <use style="stroke:#000000;stroke-width:0.8;" x="131.505469" xlink:href="#m929afb3b98" y="534.04"/>
      </g>
     </g>
     <g id="text_2">
      <!-- 10 -->
      <defs>
       <path d="M 12.40625 8.296875 
L 28.515625 8.296875 
L 28.515625 63.921875 
L 10.984375 60.40625 
L 10.984375 69.390625 
L 28.421875 72.90625 
L 38.28125 72.90625 
L 38.28125 8.296875 
L 54.390625 8.296875 
L 54.390625 0 
L 12.40625 0 
z
" id="DejaVuSans-49"/>
      </defs>
      <g transform="translate(125.142969 548.638438)scale(0.1 -0.1)">
       <use xlink:href="#DejaVuSans-49"/>
       <use x="63.623047" xlink:href="#DejaVuSans-48"/>
      </g>
     </g>
    </g>
    <g id="xtick_3">
     <g id="line2d_3">
      <g>
       <use style="stroke:#000000;stroke-width:0.8;" x="182.269688" xlink:href="#m929afb3b98" y="534.04"/>
      </g>
     </g>
     <g id="text_3">
      <!-- 20 -->
      <defs>
       <path d="M 19.1875 8.296875 
L 53.609375 8.296875 
L 53.609375 0 
L 7.328125 0 
L 7.328125 8.296875 
Q 12.9375 14.109375 22.625 23.890625 
Q 32.328125 33.6875 34.8125 36.53125 
Q 39.546875 41.84375 41.421875 45.53125 
Q 43.3125 49.21875 43.3125 52.78125 
Q 43.3125 58.59375 39.234375 62.25 
Q 35.15625 65.921875 28.609375 65.921875 
Q 23.96875 65.921875 18.8125 64.3125 
Q 13.671875 62.703125 7.8125 59.421875 
L 7.8125 69.390625 
Q 13.765625 71.78125 18.9375 73 
Q 24.125 74.21875 28.421875 74.21875 
Q 39.75 74.21875 46.484375 68.546875 
Q 53.21875 62.890625 53.21875 53.421875 
Q 53.21875 48.921875 51.53125 44.890625 
Q 49.859375 40.875 45.40625 35.40625 
Q 44.1875 33.984375 37.640625 27.21875 
Q 31.109375 20.453125 19.1875 8.296875 
z
" id="DejaVuSans-50"/>
      </defs>
      <g transform="translate(175.907188 548.638438)scale(0.1 -0.1)">
       <use xlink:href="#DejaVuSans-50"/>
       <use x="63.623047" xlink:href="#DejaVuSans-48"/>
      </g>
     </g>
    </g>
    <g id="xtick_4">
     <g id="line2d_4">
      <g>
       <use style="stroke:#000000;stroke-width:0.8;" x="233.033906" xlink:href="#m929afb3b98" y="534.04"/>
      </g>
     </g>
     <g id="text_4">
      <!-- 30 -->
      <defs>
       <path d="M 40.578125 39.3125 
Q 47.65625 37.796875 51.625 33 
Q 55.609375 28.21875 55.609375 21.1875 
Q 55.609375 10.40625 48.1875 4.484375 
Q 40.765625 -1.421875 27.09375 -1.421875 
Q 22.515625 -1.421875 17.65625 -0.515625 
Q 12.796875 0.390625 7.625 2.203125 
L 7.625 11.71875 
Q 11.71875 9.328125 16.59375 8.109375 
Q 21.484375 6.890625 26.8125 6.890625 
Q 36.078125 6.890625 40.9375 10.546875 
Q 45.796875 14.203125 45.796875 21.1875 
Q 45.796875 27.640625 41.28125 31.265625 
Q 36.765625 34.90625 28.71875 34.90625 
L 20.21875 34.90625 
L 20.21875 43.015625 
L 29.109375 43.015625 
Q 36.375 43.015625 40.234375 45.921875 
Q 44.09375 48.828125 44.09375 54.296875 
Q 44.09375 59.90625 40.109375 62.90625 
Q 36.140625 65.921875 28.71875 65.921875 
Q 24.65625 65.921875 20.015625 65.03125 
Q 15.375 64.15625 9.8125 62.3125 
L 9.8125 71.09375 
Q 15.4375 72.65625 20.34375 73.4375 
Q 25.25 74.21875 29.59375 74.21875 
Q 40.828125 74.21875 47.359375 69.109375 
Q 53.90625 64.015625 53.90625 55.328125 
Q 53.90625 49.265625 50.4375 45.09375 
Q 46.96875 40.921875 40.578125 39.3125 
z
" id="DejaVuSans-51"/>
      </defs>
      <g transform="translate(226.671406 548.638438)scale(0.1 -0.1)">
       <use xlink:href="#DejaVuSans-51"/>
       <use x="63.623047" xlink:href="#DejaVuSans-48"/>
      </g>
     </g>
    </g>
    <g id="xtick_5">
     <g id="line2d_5">
      <g>
       <use style="stroke:#000000;stroke-width:0.8;" x="283.798125" xlink:href="#m929afb3b98" y="534.04"/>
      </g>
     </g>
     <g id="text_5">
      <!-- 40 -->
      <defs>
       <path d="M 37.796875 64.3125 
L 12.890625 25.390625 
L 37.796875 25.390625 
z
M 35.203125 72.90625 
L 47.609375 72.90625 
L 47.609375 25.390625 
L 58.015625 25.390625 
L 58.015625 17.1875 
L 47.609375 17.1875 
L 47.609375 0 
L 37.796875 0 
L 37.796875 17.1875 
L 4.890625 17.1875 
L 4.890625 26.703125 
z
" id="DejaVuSans-52"/>
      </defs>
      <g transform="translate(277.435625 548.638438)scale(0.1 -0.1)">
       <use xlink:href="#DejaVuSans-52"/>
       <use x="63.623047" xlink:href="#DejaVuSans-48"/>
      </g>
     </g>
    </g>
    <g id="xtick_6">
     <g id="line2d_6">
      <g>
       <use style="stroke:#000000;stroke-width:0.8;" x="334.562344" xlink:href="#m929afb3b98" y="534.04"/>
      </g>
     </g>
     <g id="text_6">
      <!-- 50 -->
      <defs>
       <path d="M 10.796875 72.90625 
L 49.515625 72.90625 
L 49.515625 64.59375 
L 19.828125 64.59375 
L 19.828125 46.734375 
Q 21.96875 47.46875 24.109375 47.828125 
Q 26.265625 48.1875 28.421875 48.1875 
Q 40.625 48.1875 47.75 41.5 
Q 54.890625 34.8125 54.890625 23.390625 
Q 54.890625 11.625 47.5625 5.09375 
Q 40.234375 -1.421875 26.90625 -1.421875 
Q 22.3125 -1.421875 17.546875 -0.640625 
Q 12.796875 0.140625 7.71875 1.703125 
L 7.71875 11.625 
Q 12.109375 9.234375 16.796875 8.0625 
Q 21.484375 6.890625 26.703125 6.890625 
Q 35.15625 6.890625 40.078125 11.328125 
Q 45.015625 15.765625 45.015625 23.390625 
Q 45.015625 31 40.078125 35.4375 
Q 35.15625 39.890625 26.703125 39.890625 
Q 22.75 39.890625 18.8125 39.015625 
Q 14.890625 38.140625 10.796875 36.28125 
z
" id="DejaVuSans-53"/>
      </defs>
      <g transform="translate(328.199844 548.638438)scale(0.1 -0.1)">
       <use xlink:href="#DejaVuSans-53"/>
       <use x="63.623047" xlink:href="#DejaVuSans-48"/>
      </g>
     </g>
    </g>
    <g id="xtick_7">
     <g id="line2d_7">
      <g>
       <use style="stroke:#000000;stroke-width:0.8;" x="385.326563" xlink:href="#m929afb3b98" y="534.04"/>
      </g>
     </g>
     <g id="text_7">
      <!-- 60 -->
      <defs>
       <path d="M 33.015625 40.375 
Q 26.375 40.375 22.484375 35.828125 
Q 18.609375 31.296875 18.609375 23.390625 
Q 18.609375 15.53125 22.484375 10.953125 
Q 26.375 6.390625 33.015625 6.390625 
Q 39.65625 6.390625 43.53125 10.953125 
Q 47.40625 15.53125 47.40625 23.390625 
Q 47.40625 31.296875 43.53125 35.828125 
Q 39.65625 40.375 33.015625 40.375 
z
M 52.59375 71.296875 
L 52.59375 62.3125 
Q 48.875 64.0625 45.09375 64.984375 
Q 41.3125 65.921875 37.59375 65.921875 
Q 27.828125 65.921875 22.671875 59.328125 
Q 17.53125 52.734375 16.796875 39.40625 
Q 19.671875 43.65625 24.015625 45.921875 
Q 28.375 48.1875 33.59375 48.1875 
Q 44.578125 48.1875 50.953125 41.515625 
Q 57.328125 34.859375 57.328125 23.390625 
Q 57.328125 12.15625 50.6875 5.359375 
Q 44.046875 -1.421875 33.015625 -1.421875 
Q 20.359375 -1.421875 13.671875 8.265625 
Q 6.984375 17.96875 6.984375 36.375 
Q 6.984375 53.65625 15.1875 63.9375 
Q 23.390625 74.21875 37.203125 74.21875 
Q 40.921875 74.21875 44.703125 73.484375 
Q 48.484375 72.75 52.59375 71.296875 
z
" id="DejaVuSans-54"/>
      </defs>
      <g transform="translate(378.964063 548.638438)scale(0.1 -0.1)">
       <use xlink:href="#DejaVuSans-54"/>
       <use x="63.623047" xlink:href="#DejaVuSans-48"/>
      </g>
     </g>
    </g>
    <g id="xtick_8">
     <g id="line2d_8">
      <g>
       <use style="stroke:#000000;stroke-width:0.8;" x="436.090781" xlink:href="#m929afb3b98" y="534.04"/>
      </g>
     </g>
     <g id="text_8">
      <!-- 70 -->
      <defs>
       <path d="M 8.203125 72.90625 
L 55.078125 72.90625 
L 55.078125 68.703125 
L 28.609375 0 
L 18.3125 0 
L 43.21875 64.59375 
L 8.203125 64.59375 
z
" id="DejaVuSans-55"/>
      </defs>
      <g transform="translate(429.728281 548.638438)scale(0.1 -0.1)">
       <use xlink:href="#DejaVuSans-55"/>
       <use x="63.623047" xlink:href="#DejaVuSans-48"/>
      </g>
     </g>
    </g>
    <g id="xtick_9">
     <g id="line2d_9">
      <g>
       <use style="stroke:#000000;stroke-width:0.8;" x="486.855" xlink:href="#m929afb3b98" y="534.04"/>
      </g>
     </g>
     <g id="text_9">
      <!-- 80 -->
      <defs>
       <path d="M 31.78125 34.625 
Q 24.75 34.625 20.71875 30.859375 
Q 16.703125 27.09375 16.703125 20.515625 
Q 16.703125 13.921875 20.71875 10.15625 
Q 24.75 6.390625 31.78125 6.390625 
Q 38.8125 6.390625 42.859375 10.171875 
Q 46.921875 13.96875 46.921875 20.515625 
Q 46.921875 27.09375 42.890625 30.859375 
Q 38.875 34.625 31.78125 34.625 
z
M 21.921875 38.8125 
Q 15.578125 40.375 12.03125 44.71875 
Q 8.5 49.078125 8.5 55.328125 
Q 8.5 64.0625 14.71875 69.140625 
Q 20.953125 74.21875 31.78125 74.21875 
Q 42.671875 74.21875 48.875 69.140625 
Q 55.078125 64.0625 55.078125 55.328125 
Q 55.078125 49.078125 51.53125 44.71875 
Q 48 40.375 41.703125 38.8125 
Q 48.828125 37.15625 52.796875 32.3125 
Q 56.78125 27.484375 56.78125 20.515625 
Q 56.78125 9.90625 50.3125 4.234375 
Q 43.84375 -1.421875 31.78125 -1.421875 
Q 19.734375 -1.421875 13.25 4.234375 
Q 6.78125 9.90625 6.78125 20.515625 
Q 6.78125 27.484375 10.78125 32.3125 
Q 14.796875 37.15625 21.921875 38.8125 
z
M 18.3125 54.390625 
Q 18.3125 48.734375 21.84375 45.5625 
Q 25.390625 42.390625 31.78125 42.390625 
Q 38.140625 42.390625 41.71875 45.5625 
Q 45.3125 48.734375 45.3125 54.390625 
Q 45.3125 60.0625 41.71875 63.234375 
Q 38.140625 66.40625 31.78125 66.40625 
Q 25.390625 66.40625 21.84375 63.234375 
Q 18.3125 60.0625 18.3125 54.390625 
z
" id="DejaVuSans-56"/>
      </defs>
      <g transform="translate(480.4925 548.638438)scale(0.1 -0.1)">
       <use xlink:href="#DejaVuSans-56"/>
       <use x="63.623047" xlink:href="#DejaVuSans-48"/>
      </g>
     </g>
    </g>
    <g id="text_10">
     <!-- average CPU cycles per random input value (smaller is better) -->
     <defs>
      <path d="M 34.28125 27.484375 
Q 23.390625 27.484375 19.1875 25 
Q 14.984375 22.515625 14.984375 16.5 
Q 14.984375 11.71875 18.140625 8.90625 
Q 21.296875 6.109375 26.703125 6.109375 
Q 34.1875 6.109375 38.703125 11.40625 
Q 43.21875 16.703125 43.21875 25.484375 
L 43.21875 27.484375 
z
M 52.203125 31.203125 
L 52.203125 0 
L 43.21875 0 
L 43.21875 8.296875 
Q 40.140625 3.328125 35.546875 0.953125 
Q 30.953125 -1.421875 24.3125 -1.421875 
Q 15.921875 -1.421875 10.953125 3.296875 
Q 6 8.015625 6 15.921875 
Q 6 25.140625 12.171875 29.828125 
Q 18.359375 34.515625 30.609375 34.515625 
L 43.21875 34.515625 
L 43.21875 35.40625 
Q 43.21875 41.609375 39.140625 45 
Q 35.0625 48.390625 27.6875 48.390625 
Q 23 48.390625 18.546875 47.265625 
Q 14.109375 46.140625 10.015625 43.890625 
L 10.015625 52.203125 
Q 14.9375 54.109375 19.578125 55.046875 
Q 24.21875 56 28.609375 56 
Q 40.484375 56 46.34375 49.84375 
Q 52.203125 43.703125 52.203125 31.203125 
z
" id="DejaVuSans-97"/>
      <path d="M 2.984375 54.6875 
L 12.5 54.6875 
L 29.59375 8.796875 
L 46.6875 54.6875 
L 56.203125 54.6875 
L 35.6875 0 
L 23.484375 0 
z
" id="DejaVuSans-118"/>
      <path d="M 56.203125 29.59375 
L 56.203125 25.203125 
L 14.890625 25.203125 
Q 15.484375 15.921875 20.484375 11.0625 
Q 25.484375 6.203125 34.421875 6.203125 
Q 39.59375 6.203125 44.453125 7.46875 
Q 49.3125 8.734375 54.109375 11.28125 
L 54.109375 2.78125 
Q 49.265625 0.734375 44.1875 -0.34375 
Q 39.109375 -1.421875 33.890625 -1.421875 
Q 20.796875 -1.421875 13.15625 6.1875 
Q 5.515625 13.8125 5.515625 26.8125 
Q 5.515625 40.234375 12.765625 48.109375 
Q 20.015625 56 32.328125 56 
Q 43.359375 56 49.78125 48.890625 
Q 56.203125 41.796875 56.203125 29.59375 
z
M 47.21875 32.234375 
Q 47.125 39.59375 43.09375 43.984375 
Q 39.0625 48.390625 32.421875 48.390625 
Q 24.90625 48.390625 20.390625 44.140625 
Q 15.875 39.890625 15.1875 32.171875 
z
" id="DejaVuSans-101"/>
      <path d="M 41.109375 46.296875 
Q 39.59375 47.171875 37.8125 47.578125 
Q 36.03125 48 33.890625 48 
Q 26.265625 48 22.1875 43.046875 
Q 18.109375 38.09375 18.109375 28.8125 
L 18.109375 0 
L 9.078125 0 
L 9.078125 54.6875 
L 18.109375 54.6875 
L 18.109375 46.1875 
Q 20.953125 51.171875 25.484375 53.578125 
Q 30.03125 56 36.53125 56 
Q 37.453125 56 38.578125 55.875 
Q 39.703125 55.765625 41.0625 55.515625 
z
" id="DejaVuSans-114"/>
      <path d="M 45.40625 27.984375 
Q 45.40625 37.75 41.375 43.109375 
Q 37.359375 48.484375 30.078125 48.484375 
Q 22.859375 48.484375 18.828125 43.109375 
Q 14.796875 37.75 14.796875 27.984375 
Q 14.796875 18.265625 18.828125 12.890625 
Q 22.859375 7.515625 30.078125 7.515625 
Q 37.359375 7.515625 41.375 12.890625 
Q 45.40625 18.265625 45.40625 27.984375 
z
M 54.390625 6.78125 
Q 54.390625 -7.171875 48.1875 -13.984375 
Q 42 -20.796875 29.203125 -20.796875 
Q 24.46875 -20.796875 20.265625 -20.09375 
Q 16.0625 -19.390625 12.109375 -17.921875 
L 12.109375 -9.1875 
Q 16.0625 -11.328125 19.921875 -12.34375 
Q 23.78125 -13.375 27.78125 -13.375 
Q 36.625 -13.375 41.015625 -8.765625 
Q 45.40625 -4.15625 45.40625 5.171875 
L 45.40625 9.625 
Q 42.625 4.78125 38.28125 2.390625 
Q 33.9375 0 27.875 0 
Q 17.828125 0 11.671875 7.65625 
Q 5.515625 15.328125 5.515625 27.984375 
Q 5.515625 40.671875 11.671875 48.328125 
Q 17.828125 56 27.875 56 
Q 33.9375 56 38.28125 53.609375 
Q 42.625 51.21875 45.40625 46.390625 
L 45.40625 54.6875 
L 54.390625 54.6875 
z
" id="DejaVuSans-103"/>
      <path id="DejaVuSans-32"/>
      <path d="M 64.40625 67.28125 
L 64.40625 56.890625 
Q 59.421875 61.53125 53.78125 63.8125 
Q 48.140625 66.109375 41.796875 66.109375 
Q 29.296875 66.109375 22.65625 58.46875 
Q 16.015625 50.828125 16.015625 36.375 
Q 16.015625 21.96875 22.65625 14.328125 
Q 29.296875 6.6875 41.796875 6.6875 
Q 48.140625 6.6875 53.78125 8.984375 
Q 59.421875 11.28125 64.40625 15.921875 
L 64.40625 5.609375 
Q 59.234375 2.09375 53.4375 0.328125 
Q 47.65625 -1.421875 41.21875 -1.421875 
Q 24.65625 -1.421875 15.125 8.703125 
Q 5.609375 18.84375 5.609375 36.375 
Q 5.609375 53.953125 15.125 64.078125 
Q 24.65625 74.21875 41.21875 74.21875 
Q 47.75 74.21875 53.53125 72.484375 
Q 59.328125 70.75 64.40625 67.28125 
z
" id="DejaVuSans-67"/>
      <path d="M 19.671875 64.796875 
L 19.671875 37.40625 
L 32.078125 37.40625 
Q 38.96875 37.40625 42.71875 40.96875 
Q 46.484375 44.53125 46.484375 51.125 
Q 46.484375 57.671875 42.71875 61.234375 
Q 38.96875 64.796875 32.078125 64.796875 
z
M 9.8125 72.90625 
L 32.078125 72.90625 
Q 44.34375 72.90625 50.609375 67.359375 
Q 56.890625 61.8125 56.890625 51.125 
Q 56.890625 40.328125 50.609375 34.8125 
Q 44.34375 29.296875 32.078125 29.296875 
L 19.671875 29.296875 
L 19.671875 0 
L 9.8125 0 
z
" id="DejaVuSans-80"/>
      <path d="M 8.6875 72.90625 
L 18.609375 72.90625 
L 18.609375 28.609375 
Q 18.609375 16.890625 22.84375 11.734375 
Q 27.09375 6.59375 36.625 6.59375 
Q 46.09375 6.59375 50.34375 11.734375 
Q 54.59375 16.890625 54.59375 28.609375 
L 54.59375 72.90625 
L 64.5 72.90625 
L 64.5 27.390625 
Q 64.5 13.140625 57.4375 5.859375 
Q 50.390625 -1.421875 36.625 -1.421875 
Q 22.796875 -1.421875 15.734375 5.859375 
Q 8.6875 13.140625 8.6875 27.390625 
z
" id="DejaVuSans-85"/>
      <path d="M 48.78125 52.59375 
L 48.78125 44.1875 
Q 44.96875 46.296875 41.140625 47.34375 
Q 37.3125 48.390625 33.40625 48.390625 
Q 24.65625 48.390625 19.8125 42.84375 
Q 14.984375 37.3125 14.984375 27.296875 
Q 14.984375 17.28125 19.8125 11.734375 
Q 24.65625 6.203125 33.40625 6.203125 
Q 37.3125 6.203125 41.140625 7.25 
Q 44.96875 8.296875 48.78125 10.40625 
L 48.78125 2.09375 
Q 45.015625 0.34375 40.984375 -0.53125 
Q 36.96875 -1.421875 32.421875 -1.421875 
Q 20.0625 -1.421875 12.78125 6.34375 
Q 5.515625 14.109375 5.515625 27.296875 
Q 5.515625 40.671875 12.859375 48.328125 
Q 20.21875 56 33.015625 56 
Q 37.15625 56 41.109375 55.140625 
Q 45.0625 54.296875 48.78125 52.59375 
z
" id="DejaVuSans-99"/>
      <path d="M 32.171875 -5.078125 
Q 28.375 -14.84375 24.75 -17.8125 
Q 21.140625 -20.796875 15.09375 -20.796875 
L 7.90625 -20.796875 
L 7.90625 -13.28125 
L 13.1875 -13.28125 
Q 16.890625 -13.28125 18.9375 -11.515625 
Q 21 -9.765625 23.484375 -3.21875 
L 25.09375 0.875 
L 2.984375 54.6875 
L 12.5 54.6875 
L 29.59375 11.921875 
L 46.6875 54.6875 
L 56.203125 54.6875 
z
" id="DejaVuSans-121"/>
      <path d="M 9.421875 75.984375 
L 18.40625 75.984375 
L 18.40625 0 
L 9.421875 0 
z
" id="DejaVuSans-108"/>
      <path d="M 44.28125 53.078125 
L 44.28125 44.578125 
Q 40.484375 46.53125 36.375 47.5 
Q 32.28125 48.484375 27.875 48.484375 
Q 21.1875 48.484375 17.84375 46.4375 
Q 14.5 44.390625 14.5 40.28125 
Q 14.5 37.15625 16.890625 35.375 
Q 19.28125 33.59375 26.515625 31.984375 
L 29.59375 31.296875 
Q 39.15625 29.25 43.1875 25.515625 
Q 47.21875 21.78125 47.21875 15.09375 
Q 47.21875 7.46875 41.1875 3.015625 
Q 35.15625 -1.421875 24.609375 -1.421875 
Q 20.21875 -1.421875 15.453125 -0.5625 
Q 10.6875 0.296875 5.421875 2 
L 5.421875 11.28125 
Q 10.40625 8.6875 15.234375 7.390625 
Q 20.0625 6.109375 24.8125 6.109375 
Q 31.15625 6.109375 34.5625 8.28125 
Q 37.984375 10.453125 37.984375 14.40625 
Q 37.984375 18.0625 35.515625 20.015625 
Q 33.0625 21.96875 24.703125 23.78125 
L 21.578125 24.515625 
Q 13.234375 26.265625 9.515625 29.90625 
Q 5.8125 33.546875 5.8125 39.890625 
Q 5.8125 47.609375 11.28125 51.796875 
Q 16.75 56 26.8125 56 
Q 31.78125 56 36.171875 55.265625 
Q 40.578125 54.546875 44.28125 53.078125 
z
" id="DejaVuSans-115"/>
      <path d="M 18.109375 8.203125 
L 18.109375 -20.796875 
L 9.078125 -20.796875 
L 9.078125 54.6875 
L 18.109375 54.6875 
L 18.109375 46.390625 
Q 20.953125 51.265625 25.265625 53.625 
Q 29.59375 56 35.59375 56 
Q 45.5625 56 51.78125 48.09375 
Q 58.015625 40.1875 58.015625 27.296875 
Q 58.015625 14.40625 51.78125 6.484375 
Q 45.5625 -1.421875 35.59375 -1.421875 
Q 29.59375 -1.421875 25.265625 0.953125 
Q 20.953125 3.328125 18.109375 8.203125 
z
M 48.6875 27.296875 
Q 48.6875 37.203125 44.609375 42.84375 
Q 40.53125 48.484375 33.40625 48.484375 
Q 26.265625 48.484375 22.1875 42.84375 
Q 18.109375 37.203125 18.109375 27.296875 
Q 18.109375 17.390625 22.1875 11.75 
Q 26.265625 6.109375 33.40625 6.109375 
Q 40.53125 6.109375 44.609375 11.75 
Q 48.6875 17.390625 48.6875 27.296875 
z
" id="DejaVuSans-112"/>
      <path d="M 54.890625 33.015625 
L 54.890625 0 
L 45.90625 0 
L 45.90625 32.71875 
Q 45.90625 40.484375 42.875 44.328125 
Q 39.84375 48.1875 33.796875 48.1875 
Q 26.515625 48.1875 22.3125 43.546875 
Q 18.109375 38.921875 18.109375 30.90625 
L 18.109375 0 
L 9.078125 0 
L 9.078125 54.6875 
L 18.109375 54.6875 
L 18.109375 46.1875 
Q 21.34375 51.125 25.703125 53.5625 
Q 30.078125 56 35.796875 56 
Q 45.21875 56 50.046875 50.171875 
Q 54.890625 44.34375 54.890625 33.015625 
z
" id="DejaVuSans-110"/>
      <path d="M 45.40625 46.390625 
L 45.40625 75.984375 
L 54.390625 75.984375 
L 54.390625 0 
L 45.40625 0 
L 45.40625 8.203125 
Q 42.578125 3.328125 38.25 0.953125 
Q 33.9375 -1.421875 27.875 -1.421875 
Q 17.96875 -1.421875 11.734375 6.484375 
Q 5.515625 14.40625 5.515625 27.296875 
Q 5.515625 40.1875 11.734375 48.09375 
Q 17.96875 56 27.875 56 
Q 33.9375 56 38.25 53.625 
Q 42.578125 51.265625 45.40625 46.390625 
z
M 14.796875 27.296875 
Q 14.796875 17.390625 18.875 11.75 
Q 22.953125 6.109375 30.078125 6.109375 
Q 37.203125 6.109375 41.296875 11.75 
Q 45.40625 17.390625 45.40625 27.296875 
Q 45.40625 37.203125 41.296875 42.84375 
Q 37.203125 48.484375 30.078125 48.484375 
Q 22.953125 48.484375 18.875 42.84375 
Q 14.796875 37.203125 14.796875 27.296875 
z
" id="DejaVuSans-100"/>
      <path d="M 30.609375 48.390625 
Q 23.390625 48.390625 19.1875 42.75 
Q 14.984375 37.109375 14.984375 27.296875 
Q 14.984375 17.484375 19.15625 11.84375 
Q 23.34375 6.203125 30.609375 6.203125 
Q 37.796875 6.203125 41.984375 11.859375 
Q 46.1875 17.53125 46.1875 27.296875 
Q 46.1875 37.015625 41.984375 42.703125 
Q 37.796875 48.390625 30.609375 48.390625 
z
M 30.609375 56 
Q 42.328125 56 49.015625 48.375 
Q 55.71875 40.765625 55.71875 27.296875 
Q 55.71875 13.875 49.015625 6.21875 
Q 42.328125 -1.421875 30.609375 -1.421875 
Q 18.84375 -1.421875 12.171875 6.21875 
Q 5.515625 13.875 5.515625 27.296875 
Q 5.515625 40.765625 12.171875 48.375 
Q 18.84375 56 30.609375 56 
z
" id="DejaVuSans-111"/>
      <path d="M 52 44.1875 
Q 55.375 50.25 60.0625 53.125 
Q 64.75 56 71.09375 56 
Q 79.640625 56 84.28125 50.015625 
Q 88.921875 44.046875 88.921875 33.015625 
L 88.921875 0 
L 79.890625 0 
L 79.890625 32.71875 
Q 79.890625 40.578125 77.09375 44.375 
Q 74.3125 48.1875 68.609375 48.1875 
Q 61.625 48.1875 57.5625 43.546875 
Q 53.515625 38.921875 53.515625 30.90625 
L 53.515625 0 
L 44.484375 0 
L 44.484375 32.71875 
Q 44.484375 40.625 41.703125 44.40625 
Q 38.921875 48.1875 33.109375 48.1875 
Q 26.21875 48.1875 22.15625 43.53125 
Q 18.109375 38.875 18.109375 30.90625 
L 18.109375 0 
L 9.078125 0 
L 9.078125 54.6875 
L 18.109375 54.6875 
L 18.109375 46.1875 
Q 21.1875 51.21875 25.484375 53.609375 
Q 29.78125 56 35.6875 56 
Q 41.65625 56 45.828125 52.96875 
Q 50 49.953125 52 44.1875 
z
" id="DejaVuSans-109"/>
      <path d="M 9.421875 54.6875 
L 18.40625 54.6875 
L 18.40625 0 
L 9.421875 0 
z
M 9.421875 75.984375 
L 18.40625 75.984375 
L 18.40625 64.59375 
L 9.421875 64.59375 
z
" id="DejaVuSans-105"/>
      <path d="M 8.5 21.578125 
L 8.5 54.6875 
L 17.484375 54.6875 
L 17.484375 21.921875 
Q 17.484375 14.15625 20.5 10.265625 
Q 23.53125 6.390625 29.59375 6.390625 
Q 36.859375 6.390625 41.078125 11.03125 
Q 45.3125 15.671875 45.3125 23.6875 
L 45.3125 54.6875 
L 54.296875 54.6875 
L 54.296875 0 
L 45.3125 0 
L 45.3125 8.40625 
Q 42.046875 3.421875 37.71875 1 
Q 33.40625 -1.421875 27.6875 -1.421875 
Q 18.265625 -1.421875 13.375 4.4375 
Q 8.5 10.296875 8.5 21.578125 
z
M 31.109375 56 
z
" id="DejaVuSans-117"/>
      <path d="M 18.3125 70.21875 
L 18.3125 54.6875 
L 36.8125 54.6875 
L 36.8125 47.703125 
L 18.3125 47.703125 
L 18.3125 18.015625 
Q 18.3125 11.328125 20.140625 9.421875 
Q 21.96875 7.515625 27.59375 7.515625 
L 36.8125 7.515625 
L 36.8125 0 
L 27.59375 0 
Q 17.1875 0 13.234375 3.875 
Q 9.28125 7.765625 9.28125 18.015625 
L 9.28125 47.703125 
L 2.6875 47.703125 
L 2.6875 54.6875 
L 9.28125 54.6875 
L 9.28125 70.21875 
z
" id="DejaVuSans-116"/>
      <path d="M 31 75.875 
Q 24.46875 64.65625 21.28125 53.65625 
Q 18.109375 42.671875 18.109375 31.390625 
Q 18.109375 20.125 21.3125 9.0625 
Q 24.515625 -2 31 -13.1875 
L 23.1875 -13.1875 
Q 15.875 -1.703125 12.234375 9.375 
Q 8.59375 20.453125 8.59375 31.390625 
Q 8.59375 42.28125 12.203125 53.3125 
Q 15.828125 64.359375 23.1875 75.875 
z
" id="DejaVuSans-40"/>
      <path d="M 48.6875 27.296875 
Q 48.6875 37.203125 44.609375 42.84375 
Q 40.53125 48.484375 33.40625 48.484375 
Q 26.265625 48.484375 22.1875 42.84375 
Q 18.109375 37.203125 18.109375 27.296875 
Q 18.109375 17.390625 22.1875 11.75 
Q 26.265625 6.109375 33.40625 6.109375 
Q 40.53125 6.109375 44.609375 11.75 
Q 48.6875 17.390625 48.6875 27.296875 
z
M 18.109375 46.390625 
Q 20.953125 51.265625 25.265625 53.625 
Q 29.59375 56 35.59375 56 
Q 45.5625 56 51.78125 48.09375 
Q 58.015625 40.1875 58.015625 27.296875 
Q 58.015625 14.40625 51.78125 6.484375 
Q 45.5625 -1.421875 35.59375 -1.421875 
Q 29.59375 -1.421875 25.265625 0.953125 
Q 20.953125 3.328125 18.109375 8.203125 
L 18.109375 0 
L 9.078125 0 
L 9.078125 75.984375 
L 18.109375 75.984375 
z
" id="DejaVuSans-98"/>
      <path d="M 8.015625 75.875 
L 15.828125 75.875 
Q 23.140625 64.359375 26.78125 53.3125 
Q 30.421875 42.28125 30.421875 31.390625 
Q 30.421875 20.453125 26.78125 9.375 
Q 23.140625 -1.703125 15.828125 -13.1875 
L 8.015625 -13.1875 
Q 14.5 -2 17.703125 9.0625 
Q 20.90625 20.125 20.90625 31.390625 
Q 20.90625 42.671875 17.703125 53.65625 
Q 14.5 64.65625 8.015625 75.875 
z
" id="DejaVuSans-41"/>
     </defs>
     <g transform="translate(127.467656 562.316562)scale(0.1 -0.1)">
      <use xlink:href="#DejaVuSans-97"/>
      <use x="61.279297" xlink:href="#DejaVuSans-118"/>
      <use x="120.458984" xlink:href="#DejaVuSans-101"/>
      <use x="181.982422" xlink:href="#DejaVuSans-114"/>
      <use x="223.095703" xlink:href="#DejaVuSans-97"/>
      <use x="284.375" xlink:href="#DejaVuSans-103"/>
      <use x="347.851562" xlink:href="#DejaVuSans-101"/>
      <use x="409.375" xlink:href="#DejaVuSans-32"/>
      <use x="441.162109" xlink:href="#DejaVuSans-67"/>
      <use x="510.986328" xlink:href="#DejaVuSans-80"/>
      <use x="571.289062" xlink:href="#DejaVuSans-85"/>
      <use x="644.482422" xlink:href="#DejaVuSans-32"/>
      <use x="676.269531" xlink:href="#DejaVuSans-99"/>
      <use x="731.25" xlink:href="#DejaVuSans-121"/>
      <use x="790.429688" xlink:href="#DejaVuSans-99"/>
      <use x="845.410156" xlink:href="#DejaVuSans-108"/>
      <use x="873.193359" xlink:href="#DejaVuSans-101"/>
      <use x="934.716797" xlink:href="#DejaVuSans-115"/>
      <use x="986.816406" xlink:href="#DejaVuSans-32"/>
      <use x="1018.603516" xlink:href="#DejaVuSans-112"/>
      <use x="1082.080078" xlink:href="#DejaVuSans-101"/>
      <use x="1143.603516" xlink:href="#DejaVuSans-114"/>
      <use x="1184.716797" xlink:href="#DejaVuSans-32"/>
      <use x="1216.503906" xlink:href="#DejaVuSans-114"/>
      <use x="1257.617188" xlink:href="#DejaVuSans-97"/>
      <use x="1318.896484" xlink:href="#DejaVuSans-110"/>
      <use x="1382.275391" xlink:href="#DejaVuSans-100"/>
      <use x="1445.751953" xlink:href="#DejaVuSans-111"/>
      <use x="1506.933594" xlink:href="#DejaVuSans-109"/>
      <use x="1604.345703" xlink:href="#DejaVuSans-32"/>
      <use x="1636.132812" xlink:href="#DejaVuSans-105"/>
      <use x="1663.916016" xlink:href="#DejaVuSans-110"/>
      <use x="1727.294922" xlink:href="#DejaVuSans-112"/>
      <use x="1790.771484" xlink:href="#DejaVuSans-117"/>
      <use x="1854.150391" xlink:href="#DejaVuSans-116"/>
      <use x="1893.359375" xlink:href="#DejaVuSans-32"/>
      <use x="1925.146484" xlink:href="#DejaVuSans-118"/>
      <use x="1984.326172" xlink:href="#DejaVuSans-97"/>
      <use x="2045.605469" xlink:href="#DejaVuSans-108"/>
      <use x="2073.388672" xlink:href="#DejaVuSans-117"/>
      <use x="2136.767578" xlink:href="#DejaVuSans-101"/>
      <use x="2198.291016" xlink:href="#DejaVuSans-32"/>
      <use x="2230.078125" xlink:href="#DejaVuSans-40"/>
      <use x="2269.091797" xlink:href="#DejaVuSans-115"/>
      <use x="2321.191406" xlink:href="#DejaVuSans-109"/>
      <use x="2418.603516" xlink:href="#DejaVuSans-97"/>
      <use x="2479.882812" xlink:href="#DejaVuSans-108"/>
      <use x="2507.666016" xlink:href="#DejaVuSans-108"/>
      <use x="2535.449219" xlink:href="#DejaVuSans-101"/>
      <use x="2596.972656" xlink:href="#DejaVuSans-114"/>
      <use x="2638.085938" xlink:href="#DejaVuSans-32"/>
      <use x="2669.873047" xlink:href="#DejaVuSans-105"/>
      <use x="2697.65625" xlink:href="#DejaVuSans-115"/>
      <use x="2749.755859" xlink:href="#DejaVuSans-32"/>
      <use x="2781.542969" xlink:href="#DejaVuSans-98"/>
      <use x="2845.019531" xlink:href="#DejaVuSans-101"/>
      <use x="2906.542969" xlink:href="#DejaVuSans-116"/>
      <use x="2945.751953" xlink:href="#DejaVuSans-116"/>
      <use x="2984.960938" xlink:href="#DejaVuSans-101"/>
      <use x="3046.484375" xlink:href="#DejaVuSans-114"/>
      <use x="3087.597656" xlink:href="#DejaVuSans-41"/>
     </g>
    </g>
   </g>
   <g id="matplotlib.axis_2">
    <g id="ytick_1"/>
    <g id="ytick_2"/>
    <g id="ytick_3"/>
    <g id="ytick_4"/>
    <g id="ytick_5"/>
    <g id="ytick_6"/>
    <g id="ytick_7"/>
    <g id="ytick_8"/>
    <g id="ytick_9"/>
   </g>
   <g id="patch_79">
    <path d="M 80.74125 534.04 
L 80.74125 13.32 
" style="fill:none;stroke:#000000;stroke-linecap:square;stroke-linejoin:miter;stroke-width:0.8;"/>
   </g>
   <g id="patch_80">
    <path d="M 486.855 534.04 
L 486.855 13.32 
" style="fill:none;stroke:#000000;stroke-linecap:square;stroke-linejoin:miter;stroke-width:0.8;"/>
   </g>
   <g id="patch_81">
    <path d="M 80.74125 534.04 
L 486.855 534.04 
" style="fill:none;stroke:#000000;stroke-linecap:square;stroke-linejoin:miter;stroke-width:0.8;"/>
   </g>
   <g id="patch_82">
    <path d="M 80.74125 13.32 
L 486.855 13.32 
" style="fill:none;stroke:#000000;stroke-linecap:square;stroke-linejoin:miter;stroke-width:0.8;"/>
   </g>
   <g id="text_11">
    <!-- boost-SS-call -->
    <defs>
     <path d="M 4.890625 31.390625 
L 31.203125 31.390625 
L 31.203125 23.390625 
L 4.890625 23.390625 
z
" id="DejaVuSans-45"/>
     <path d="M 53.515625 70.515625 
L 53.515625 60.890625 
Q 47.90625 63.578125 42.921875 64.890625 
Q 37.9375 66.21875 33.296875 66.21875 
Q 25.25 66.21875 20.875 63.09375 
Q 16.5 59.96875 16.5 54.203125 
Q 16.5 49.359375 19.40625 46.890625 
Q 22.3125 44.4375 30.421875 42.921875 
L 36.375 41.703125 
Q 47.40625 39.59375 52.65625 34.296875 
Q 57.90625 29 57.90625 20.125 
Q 57.90625 9.515625 50.796875 4.046875 
Q 43.703125 -1.421875 29.984375 -1.421875 
Q 24.8125 -1.421875 18.96875 -0.25 
Q 13.140625 0.921875 6.890625 3.21875 
L 6.890625 13.375 
Q 12.890625 10.015625 18.65625 8.296875 
Q 24.421875 6.59375 29.984375 6.59375 
Q 38.421875 6.59375 43.015625 9.90625 
Q 47.609375 13.234375 47.609375 19.390625 
Q 47.609375 24.75 44.3125 27.78125 
Q 41.015625 30.8125 33.5 32.328125 
L 27.484375 33.5 
Q 16.453125 35.6875 11.515625 40.375 
Q 6.59375 45.0625 6.59375 53.421875 
Q 6.59375 63.09375 13.40625 68.65625 
Q 20.21875 74.21875 32.171875 74.21875 
Q 37.3125 74.21875 42.625 73.28125 
Q 47.953125 72.359375 53.515625 70.515625 
z
" id="DejaVuSans-83"/>
    </defs>
    <g transform="translate(13.392102 530.600327)scale(0.1 -0.1)">
     <use xlink:href="#DejaVuSans-98"/>
     <use x="63.476562" xlink:href="#DejaVuSans-111"/>
     <use x="124.658203" xlink:href="#DejaVuSans-111"/>
     <use x="185.839844" xlink:href="#DejaVuSans-115"/>
     <use x="237.939453" xlink:href="#DejaVuSans-116"/>
     <use x="277.148438" xlink:href="#DejaVuSans-45"/>
     <use x="313.232422" xlink:href="#DejaVuSans-83"/>
     <use x="376.708984" xlink:href="#DejaVuSans-83"/>
     <use x="440.185547" xlink:href="#DejaVuSans-45"/>
     <use x="476.269531" xlink:href="#DejaVuSans-99"/>
     <use x="531.25" xlink:href="#DejaVuSans-97"/>
     <use x="592.529297" xlink:href="#DejaVuSans-108"/>
     <use x="620.3125" xlink:href="#DejaVuSans-108"/>
    </g>
   </g>
   <g id="text_12">
    <!-- boost-SD-call -->
    <defs>
     <path d="M 19.671875 64.796875 
L 19.671875 8.109375 
L 31.59375 8.109375 
Q 46.6875 8.109375 53.6875 14.9375 
Q 60.6875 21.78125 60.6875 36.53125 
Q 60.6875 51.171875 53.6875 57.984375 
Q 46.6875 64.796875 31.59375 64.796875 
z
M 9.8125 72.90625 
L 30.078125 72.90625 
Q 51.265625 72.90625 61.171875 64.09375 
Q 71.09375 55.28125 71.09375 36.53125 
Q 71.09375 17.671875 61.125 8.828125 
Q 51.171875 0 30.078125 0 
L 9.8125 0 
z
" id="DejaVuSans-68"/>
    </defs>
    <g transform="translate(12.040539 518.202232)scale(0.1 -0.1)">
     <use xlink:href="#DejaVuSans-98"/>
     <use x="63.476562" xlink:href="#DejaVuSans-111"/>
     <use x="124.658203" xlink:href="#DejaVuSans-111"/>
     <use x="185.839844" xlink:href="#DejaVuSans-115"/>
     <use x="237.939453" xlink:href="#DejaVuSans-116"/>
     <use x="277.148438" xlink:href="#DejaVuSans-45"/>
     <use x="313.232422" xlink:href="#DejaVuSans-83"/>
     <use x="376.708984" xlink:href="#DejaVuSans-68"/>
     <use x="453.710938" xlink:href="#DejaVuSans-45"/>
     <use x="489.794922" xlink:href="#DejaVuSans-99"/>
     <use x="544.775391" xlink:href="#DejaVuSans-97"/>
     <use x="606.054688" xlink:href="#DejaVuSans-108"/>
     <use x="633.837891" xlink:href="#DejaVuSans-108"/>
    </g>
   </g>
   <g id="text_13">
    <!-- boost-DS-call -->
    <g transform="translate(12.040539 505.804137)scale(0.1 -0.1)">
     <use xlink:href="#DejaVuSans-98"/>
     <use x="63.476562" xlink:href="#DejaVuSans-111"/>
     <use x="124.658203" xlink:href="#DejaVuSans-111"/>
     <use x="185.839844" xlink:href="#DejaVuSans-115"/>
     <use x="237.939453" xlink:href="#DejaVuSans-116"/>
     <use x="277.148438" xlink:href="#DejaVuSans-45"/>
     <use x="313.232422" xlink:href="#DejaVuSans-68"/>
     <use x="390.234375" xlink:href="#DejaVuSans-83"/>
     <use x="453.710938" xlink:href="#DejaVuSans-45"/>
     <use x="489.794922" xlink:href="#DejaVuSans-99"/>
     <use x="544.775391" xlink:href="#DejaVuSans-97"/>
     <use x="606.054688" xlink:href="#DejaVuSans-108"/>
     <use x="633.837891" xlink:href="#DejaVuSans-108"/>
    </g>
   </g>
   <g id="text_14">
    <!-- boost-DD-call -->
    <g transform="translate(10.688977 493.406042)scale(0.1 -0.1)">
     <use xlink:href="#DejaVuSans-98"/>
     <use x="63.476562" xlink:href="#DejaVuSans-111"/>
     <use x="124.658203" xlink:href="#DejaVuSans-111"/>
     <use x="185.839844" xlink:href="#DejaVuSans-115"/>
     <use x="237.939453" xlink:href="#DejaVuSans-116"/>
     <use x="277.148438" xlink:href="#DejaVuSans-45"/>
     <use x="313.232422" xlink:href="#DejaVuSans-68"/>
     <use x="390.234375" xlink:href="#DejaVuSans-68"/>
     <use x="467.236328" xlink:href="#DejaVuSans-45"/>
     <use x="503.320312" xlink:href="#DejaVuSans-99"/>
     <use x="558.300781" xlink:href="#DejaVuSans-97"/>
     <use x="619.580078" xlink:href="#DejaVuSans-108"/>
     <use x="647.363281" xlink:href="#DejaVuSans-108"/>
    </g>
   </g>
   <g id="text_15">
    <!-- boost-SS-fill -->
    <defs>
     <path d="M 37.109375 75.984375 
L 37.109375 68.5 
L 28.515625 68.5 
Q 23.6875 68.5 21.796875 66.546875 
Q 19.921875 64.59375 19.921875 59.515625 
L 19.921875 54.6875 
L 34.71875 54.6875 
L 34.71875 47.703125 
L 19.921875 47.703125 
L 19.921875 0 
L 10.890625 0 
L 10.890625 47.703125 
L 2.296875 47.703125 
L 2.296875 54.6875 
L 10.890625 54.6875 
L 10.890625 58.5 
Q 10.890625 67.625 15.140625 71.796875 
Q 19.390625 75.984375 28.609375 75.984375 
z
" id="DejaVuSans-102"/>
    </defs>
    <g transform="translate(18.720227 481.007946)scale(0.1 -0.1)">
     <use xlink:href="#DejaVuSans-98"/>
     <use x="63.476562" xlink:href="#DejaVuSans-111"/>
     <use x="124.658203" xlink:href="#DejaVuSans-111"/>
     <use x="185.839844" xlink:href="#DejaVuSans-115"/>
     <use x="237.939453" xlink:href="#DejaVuSans-116"/>
     <use x="277.148438" xlink:href="#DejaVuSans-45"/>
     <use x="313.232422" xlink:href="#DejaVuSans-83"/>
     <use x="376.708984" xlink:href="#DejaVuSans-83"/>
     <use x="440.185547" xlink:href="#DejaVuSans-45"/>
     <use x="476.269531" xlink:href="#DejaVuSans-102"/>
     <use x="511.474609" xlink:href="#DejaVuSans-105"/>
     <use x="539.257812" xlink:href="#DejaVuSans-108"/>
     <use x="567.041016" xlink:href="#DejaVuSans-108"/>
    </g>
   </g>
   <g id="text_16">
    <!-- boost-SD-fill -->
    <g transform="translate(17.368664 468.609851)scale(0.1 -0.1)">
     <use xlink:href="#DejaVuSans-98"/>
     <use x="63.476562" xlink:href="#DejaVuSans-111"/>
     <use x="124.658203" xlink:href="#DejaVuSans-111"/>
     <use x="185.839844" xlink:href="#DejaVuSans-115"/>
     <use x="237.939453" xlink:href="#DejaVuSans-116"/>
     <use x="277.148438" xlink:href="#DejaVuSans-45"/>
     <use x="313.232422" xlink:href="#DejaVuSans-83"/>
     <use x="376.708984" xlink:href="#DejaVuSans-68"/>
     <use x="453.710938" xlink:href="#DejaVuSans-45"/>
     <use x="489.794922" xlink:href="#DejaVuSans-102"/>
     <use x="525" xlink:href="#DejaVuSans-105"/>
     <use x="552.783203" xlink:href="#DejaVuSans-108"/>
     <use x="580.566406" xlink:href="#DejaVuSans-108"/>
    </g>
   </g>
   <g id="text_17">
    <!-- boost-DS-fill -->
    <g transform="translate(17.368664 456.211756)scale(0.1 -0.1)">
     <use xlink:href="#DejaVuSans-98"/>
     <use x="63.476562" xlink:href="#DejaVuSans-111"/>
     <use x="124.658203" xlink:href="#DejaVuSans-111"/>
     <use x="185.839844" xlink:href="#DejaVuSans-115"/>
     <use x="237.939453" xlink:href="#DejaVuSans-116"/>
     <use x="277.148438" xlink:href="#DejaVuSans-45"/>
     <use x="313.232422" xlink:href="#DejaVuSans-68"/>
     <use x="390.234375" xlink:href="#DejaVuSans-83"/>
     <use x="453.710938" xlink:href="#DejaVuSans-45"/>
     <use x="489.794922" xlink:href="#DejaVuSans-102"/>
     <use x="525" xlink:href="#DejaVuSans-105"/>
     <use x="552.783203" xlink:href="#DejaVuSans-108"/>
     <use x="580.566406" xlink:href="#DejaVuSans-108"/>
    </g>
   </g>
   <g id="text_18">
    <!-- boost-DD-fill -->
    <g transform="translate(16.017102 443.813661)scale(0.1 -0.1)">
     <use xlink:href="#DejaVuSans-98"/>
     <use x="63.476562" xlink:href="#DejaVuSans-111"/>
     <use x="124.658203" xlink:href="#DejaVuSans-111"/>
     <use x="185.839844" xlink:href="#DejaVuSans-115"/>
     <use x="237.939453" xlink:href="#DejaVuSans-116"/>
     <use x="277.148438" xlink:href="#DejaVuSans-45"/>
     <use x="313.232422" xlink:href="#DejaVuSans-68"/>
     <use x="390.234375" xlink:href="#DejaVuSans-68"/>
     <use x="467.236328" xlink:href="#DejaVuSans-45"/>
     <use x="503.320312" xlink:href="#DejaVuSans-102"/>
     <use x="538.525391" xlink:href="#DejaVuSans-105"/>
     <use x="566.308594" xlink:href="#DejaVuSans-108"/>
     <use x="594.091797" xlink:href="#DejaVuSans-108"/>
    </g>
   </g>
   <g id="text_19">
    <!-- GSL -->
    <defs>
     <path d="M 59.515625 10.40625 
L 59.515625 29.984375 
L 43.40625 29.984375 
L 43.40625 38.09375 
L 69.28125 38.09375 
L 69.28125 6.78125 
Q 63.578125 2.734375 56.6875 0.65625 
Q 49.8125 -1.421875 42 -1.421875 
Q 24.90625 -1.421875 15.25 8.5625 
Q 5.609375 18.5625 5.609375 36.375 
Q 5.609375 54.25 15.25 64.234375 
Q 24.90625 74.21875 42 74.21875 
Q 49.125 74.21875 55.546875 72.453125 
Q 61.96875 70.703125 67.390625 67.28125 
L 67.390625 56.78125 
Q 61.921875 61.421875 55.765625 63.765625 
Q 49.609375 66.109375 42.828125 66.109375 
Q 29.4375 66.109375 22.71875 58.640625 
Q 16.015625 51.171875 16.015625 36.375 
Q 16.015625 21.625 22.71875 14.15625 
Q 29.4375 6.6875 42.828125 6.6875 
Q 48.046875 6.6875 52.140625 7.59375 
Q 56.25 8.5 59.515625 10.40625 
z
" id="DejaVuSans-71"/>
     <path d="M 9.8125 72.90625 
L 19.671875 72.90625 
L 19.671875 8.296875 
L 55.171875 8.296875 
L 55.171875 0 
L 9.8125 0 
z
" id="DejaVuSans-76"/>
    </defs>
    <g transform="translate(58.534289 431.415565)scale(0.1 -0.1)">
     <use xlink:href="#DejaVuSans-71"/>
     <use x="77.490234" xlink:href="#DejaVuSans-83"/>
     <use x="140.966797" xlink:href="#DejaVuSans-76"/>
    </g>
   </g>
   <g id="text_20">
    <!-- ROOT 6 -->
    <defs>
     <path d="M 44.390625 34.1875 
Q 47.5625 33.109375 50.5625 29.59375 
Q 53.5625 26.078125 56.59375 19.921875 
L 66.609375 0 
L 56 0 
L 46.6875 18.703125 
Q 43.0625 26.03125 39.671875 28.421875 
Q 36.28125 30.8125 30.421875 30.8125 
L 19.671875 30.8125 
L 19.671875 0 
L 9.8125 0 
L 9.8125 72.90625 
L 32.078125 72.90625 
Q 44.578125 72.90625 50.734375 67.671875 
Q 56.890625 62.453125 56.890625 51.90625 
Q 56.890625 45.015625 53.6875 40.46875 
Q 50.484375 35.9375 44.390625 34.1875 
z
M 19.671875 64.796875 
L 19.671875 38.921875 
L 32.078125 38.921875 
Q 39.203125 38.921875 42.84375 42.21875 
Q 46.484375 45.515625 46.484375 51.90625 
Q 46.484375 58.296875 42.84375 61.546875 
Q 39.203125 64.796875 32.078125 64.796875 
z
" id="DejaVuSans-82"/>
     <path d="M 39.40625 66.21875 
Q 28.65625 66.21875 22.328125 58.203125 
Q 16.015625 50.203125 16.015625 36.375 
Q 16.015625 22.609375 22.328125 14.59375 
Q 28.65625 6.59375 39.40625 6.59375 
Q 50.140625 6.59375 56.421875 14.59375 
Q 62.703125 22.609375 62.703125 36.375 
Q 62.703125 50.203125 56.421875 58.203125 
Q 50.140625 66.21875 39.40625 66.21875 
z
M 39.40625 74.21875 
Q 54.734375 74.21875 63.90625 63.9375 
Q 73.09375 53.65625 73.09375 36.375 
Q 73.09375 19.140625 63.90625 8.859375 
Q 54.734375 -1.421875 39.40625 -1.421875 
Q 24.03125 -1.421875 14.8125 8.828125 
Q 5.609375 19.09375 5.609375 36.375 
Q 5.609375 53.65625 14.8125 63.9375 
Q 24.03125 74.21875 39.40625 74.21875 
z
" id="DejaVuSans-79"/>
     <path d="M -0.296875 72.90625 
L 61.375 72.90625 
L 61.375 64.59375 
L 35.5 64.59375 
L 35.5 0 
L 25.59375 0 
L 25.59375 64.59375 
L -0.296875 64.59375 
z
" id="DejaVuSans-84"/>
    </defs>
    <g transform="translate(39.862414 419.01747)scale(0.1 -0.1)">
     <use xlink:href="#DejaVuSans-82"/>
     <use x="69.482422" xlink:href="#DejaVuSans-79"/>
     <use x="148.193359" xlink:href="#DejaVuSans-79"/>
     <use x="226.904297" xlink:href="#DejaVuSans-84"/>
     <use x="287.988281" xlink:href="#DejaVuSans-32"/>
     <use x="319.775391" xlink:href="#DejaVuSans-54"/>
    </g>
   </g>
   <g id="text_21">
    <!-- 1D -->
    <defs>
     <path d="M 11.71875 12.984375 
L 28.328125 12.984375 
L 28.328125 60.109375 
L 11.28125 56.59375 
L 11.28125 69.390625 
L 28.21875 72.90625 
L 46.09375 72.90625 
L 46.09375 12.984375 
L 62.703125 12.984375 
L 62.703125 0 
L 11.71875 0 
z
" id="DejaVuSans-Bold-49"/>
     <path d="M 27.984375 58.6875 
L 27.984375 14.203125 
L 34.71875 14.203125 
Q 46.234375 14.203125 52.3125 19.921875 
Q 58.40625 25.640625 58.40625 36.53125 
Q 58.40625 47.359375 52.34375 53.015625 
Q 46.296875 58.6875 34.71875 58.6875 
z
M 9.1875 72.90625 
L 29 72.90625 
Q 45.609375 72.90625 53.734375 70.53125 
Q 61.859375 68.171875 67.671875 62.5 
Q 72.796875 57.5625 75.28125 51.109375 
Q 77.78125 44.671875 77.78125 36.53125 
Q 77.78125 28.265625 75.28125 21.796875 
Q 72.796875 15.328125 67.671875 10.40625 
Q 61.8125 4.734375 53.609375 2.359375 
Q 45.40625 0 29 0 
L 9.1875 0 
z
" id="DejaVuSans-Bold-68"/>
    </defs>
    <g transform="translate(62.943664 407.859185)scale(0.1 -0.1)">
     <use xlink:href="#DejaVuSans-Bold-49"/>
     <use x="69.580078" xlink:href="#DejaVuSans-Bold-68"/>
    </g>
   </g>
   <g id="text_22">
    <!-- boost-SS-call -->
    <g transform="translate(13.392102 394.22128)scale(0.1 -0.1)">
     <use xlink:href="#DejaVuSans-98"/>
     <use x="63.476562" xlink:href="#DejaVuSans-111"/>
     <use x="124.658203" xlink:href="#DejaVuSans-111"/>
     <use x="185.839844" xlink:href="#DejaVuSans-115"/>
     <use x="237.939453" xlink:href="#DejaVuSans-116"/>
     <use x="277.148438" xlink:href="#DejaVuSans-45"/>
     <use x="313.232422" xlink:href="#DejaVuSans-83"/>
     <use x="376.708984" xlink:href="#DejaVuSans-83"/>
     <use x="440.185547" xlink:href="#DejaVuSans-45"/>
     <use x="476.269531" xlink:href="#DejaVuSans-99"/>
     <use x="531.25" xlink:href="#DejaVuSans-97"/>
     <use x="592.529297" xlink:href="#DejaVuSans-108"/>
     <use x="620.3125" xlink:href="#DejaVuSans-108"/>
    </g>
   </g>
   <g id="text_23">
    <!-- boost-SD-call -->
    <g transform="translate(12.040539 381.823185)scale(0.1 -0.1)">
     <use xlink:href="#DejaVuSans-98"/>
     <use x="63.476562" xlink:href="#DejaVuSans-111"/>
     <use x="124.658203" xlink:href="#DejaVuSans-111"/>
     <use x="185.839844" xlink:href="#DejaVuSans-115"/>
     <use x="237.939453" xlink:href="#DejaVuSans-116"/>
     <use x="277.148438" xlink:href="#DejaVuSans-45"/>
     <use x="313.232422" xlink:href="#DejaVuSans-83"/>
     <use x="376.708984" xlink:href="#DejaVuSans-68"/>
     <use x="453.710938" xlink:href="#DejaVuSans-45"/>
     <use x="489.794922" xlink:href="#DejaVuSans-99"/>
     <use x="544.775391" xlink:href="#DejaVuSans-97"/>
     <use x="606.054688" xlink:href="#DejaVuSans-108"/>
     <use x="633.837891" xlink:href="#DejaVuSans-108"/>
    </g>
   </g>
   <g id="text_24">
    <!-- boost-DS-call -->
    <g transform="translate(12.040539 369.425089)scale(0.1 -0.1)">
     <use xlink:href="#DejaVuSans-98"/>
     <use x="63.476562" xlink:href="#DejaVuSans-111"/>
     <use x="124.658203" xlink:href="#DejaVuSans-111"/>
     <use x="185.839844" xlink:href="#DejaVuSans-115"/>
     <use x="237.939453" xlink:href="#DejaVuSans-116"/>
     <use x="277.148438" xlink:href="#DejaVuSans-45"/>
     <use x="313.232422" xlink:href="#DejaVuSans-68"/>
     <use x="390.234375" xlink:href="#DejaVuSans-83"/>
     <use x="453.710938" xlink:href="#DejaVuSans-45"/>
     <use x="489.794922" xlink:href="#DejaVuSans-99"/>
     <use x="544.775391" xlink:href="#DejaVuSans-97"/>
     <use x="606.054688" xlink:href="#DejaVuSans-108"/>
     <use x="633.837891" xlink:href="#DejaVuSans-108"/>
    </g>
   </g>
   <g id="text_25">
    <!-- boost-DD-call -->
    <g transform="translate(10.688977 357.026994)scale(0.1 -0.1)">
     <use xlink:href="#DejaVuSans-98"/>
     <use x="63.476562" xlink:href="#DejaVuSans-111"/>
     <use x="124.658203" xlink:href="#DejaVuSans-111"/>
     <use x="185.839844" xlink:href="#DejaVuSans-115"/>
     <use x="237.939453" xlink:href="#DejaVuSans-116"/>
     <use x="277.148438" xlink:href="#DejaVuSans-45"/>
     <use x="313.232422" xlink:href="#DejaVuSans-68"/>
     <use x="390.234375" xlink:href="#DejaVuSans-68"/>
     <use x="467.236328" xlink:href="#DejaVuSans-45"/>
     <use x="503.320312" xlink:href="#DejaVuSans-99"/>
     <use x="558.300781" xlink:href="#DejaVuSans-97"/>
     <use x="619.580078" xlink:href="#DejaVuSans-108"/>
     <use x="647.363281" xlink:href="#DejaVuSans-108"/>
    </g>
   </g>
   <g id="text_26">
    <!-- boost-SS-fill -->
    <g transform="translate(18.720227 344.628899)scale(0.1 -0.1)">
     <use xlink:href="#DejaVuSans-98"/>
     <use x="63.476562" xlink:href="#DejaVuSans-111"/>
     <use x="124.658203" xlink:href="#DejaVuSans-111"/>
     <use x="185.839844" xlink:href="#DejaVuSans-115"/>
     <use x="237.939453" xlink:href="#DejaVuSans-116"/>
     <use x="277.148438" xlink:href="#DejaVuSans-45"/>
     <use x="313.232422" xlink:href="#DejaVuSans-83"/>
     <use x="376.708984" xlink:href="#DejaVuSans-83"/>
     <use x="440.185547" xlink:href="#DejaVuSans-45"/>
     <use x="476.269531" xlink:href="#DejaVuSans-102"/>
     <use x="511.474609" xlink:href="#DejaVuSans-105"/>
     <use x="539.257812" xlink:href="#DejaVuSans-108"/>
     <use x="567.041016" xlink:href="#DejaVuSans-108"/>
    </g>
   </g>
   <g id="text_27">
    <!-- boost-SD-fill -->
    <g transform="translate(17.368664 332.230804)scale(0.1 -0.1)">
     <use xlink:href="#DejaVuSans-98"/>
     <use x="63.476562" xlink:href="#DejaVuSans-111"/>
     <use x="124.658203" xlink:href="#DejaVuSans-111"/>
     <use x="185.839844" xlink:href="#DejaVuSans-115"/>
     <use x="237.939453" xlink:href="#DejaVuSans-116"/>
     <use x="277.148438" xlink:href="#DejaVuSans-45"/>
     <use x="313.232422" xlink:href="#DejaVuSans-83"/>
     <use x="376.708984" xlink:href="#DejaVuSans-68"/>
     <use x="453.710938" xlink:href="#DejaVuSans-45"/>
     <use x="489.794922" xlink:href="#DejaVuSans-102"/>
     <use x="525" xlink:href="#DejaVuSans-105"/>
     <use x="552.783203" xlink:href="#DejaVuSans-108"/>
     <use x="580.566406" xlink:href="#DejaVuSans-108"/>
    </g>
   </g>
   <g id="text_28">
    <!-- boost-DS-fill -->
    <g transform="translate(17.368664 319.832708)scale(0.1 -0.1)">
     <use xlink:href="#DejaVuSans-98"/>
     <use x="63.476562" xlink:href="#DejaVuSans-111"/>
     <use x="124.658203" xlink:href="#DejaVuSans-111"/>
     <use x="185.839844" xlink:href="#DejaVuSans-115"/>
     <use x="237.939453" xlink:href="#DejaVuSans-116"/>
     <use x="277.148438" xlink:href="#DejaVuSans-45"/>
     <use x="313.232422" xlink:href="#DejaVuSans-68"/>
     <use x="390.234375" xlink:href="#DejaVuSans-83"/>
     <use x="453.710938" xlink:href="#DejaVuSans-45"/>
     <use x="489.794922" xlink:href="#DejaVuSans-102"/>
     <use x="525" xlink:href="#DejaVuSans-105"/>
     <use x="552.783203" xlink:href="#DejaVuSans-108"/>
     <use x="580.566406" xlink:href="#DejaVuSans-108"/>
    </g>
   </g>
   <g id="text_29">
    <!-- boost-DD-fill -->
    <g transform="translate(16.017102 307.434613)scale(0.1 -0.1)">
     <use xlink:href="#DejaVuSans-98"/>
     <use x="63.476562" xlink:href="#DejaVuSans-111"/>
     <use x="124.658203" xlink:href="#DejaVuSans-111"/>
     <use x="185.839844" xlink:href="#DejaVuSans-115"/>
     <use x="237.939453" xlink:href="#DejaVuSans-116"/>
     <use x="277.148438" xlink:href="#DejaVuSans-45"/>
     <use x="313.232422" xlink:href="#DejaVuSans-68"/>
     <use x="390.234375" xlink:href="#DejaVuSans-68"/>
     <use x="467.236328" xlink:href="#DejaVuSans-45"/>
     <use x="503.320312" xlink:href="#DejaVuSans-102"/>
     <use x="538.525391" xlink:href="#DejaVuSans-105"/>
     <use x="566.308594" xlink:href="#DejaVuSans-108"/>
     <use x="594.091797" xlink:href="#DejaVuSans-108"/>
    </g>
   </g>
   <g id="text_30">
    <!-- GSL -->
    <g transform="translate(58.534289 295.036518)scale(0.1 -0.1)">
     <use xlink:href="#DejaVuSans-71"/>
     <use x="77.490234" xlink:href="#DejaVuSans-83"/>
     <use x="140.966797" xlink:href="#DejaVuSans-76"/>
    </g>
   </g>
   <g id="text_31">
    <!-- ROOT 6 -->
    <g transform="translate(39.862414 282.638423)scale(0.1 -0.1)">
     <use xlink:href="#DejaVuSans-82"/>
     <use x="69.482422" xlink:href="#DejaVuSans-79"/>
     <use x="148.193359" xlink:href="#DejaVuSans-79"/>
     <use x="226.904297" xlink:href="#DejaVuSans-84"/>
     <use x="287.988281" xlink:href="#DejaVuSans-32"/>
     <use x="319.775391" xlink:href="#DejaVuSans-54"/>
    </g>
   </g>
   <g id="text_32">
    <!-- 2D -->
    <defs>
     <path d="M 28.8125 13.8125 
L 60.890625 13.8125 
L 60.890625 0 
L 7.90625 0 
L 7.90625 13.8125 
L 34.515625 37.3125 
Q 38.09375 40.53125 39.796875 43.609375 
Q 41.5 46.6875 41.5 50 
Q 41.5 55.125 38.0625 58.25 
Q 34.625 61.375 28.90625 61.375 
Q 24.515625 61.375 19.28125 59.5 
Q 14.0625 57.625 8.109375 53.90625 
L 8.109375 69.921875 
Q 14.453125 72.015625 20.65625 73.109375 
Q 26.859375 74.21875 32.8125 74.21875 
Q 45.90625 74.21875 53.15625 68.453125 
Q 60.40625 62.703125 60.40625 52.390625 
Q 60.40625 46.4375 57.328125 41.28125 
Q 54.25 36.140625 44.390625 27.484375 
z
" id="DejaVuSans-Bold-50"/>
    </defs>
    <g transform="translate(62.943664 271.480137)scale(0.1 -0.1)">
     <use xlink:href="#DejaVuSans-Bold-50"/>
     <use x="69.580078" xlink:href="#DejaVuSans-Bold-68"/>
    </g>
   </g>
   <g id="text_33">
    <!-- boost-SS-call -->
    <g transform="translate(13.392102 257.842232)scale(0.1 -0.1)">
     <use xlink:href="#DejaVuSans-98"/>
     <use x="63.476562" xlink:href="#DejaVuSans-111"/>
     <use x="124.658203" xlink:href="#DejaVuSans-111"/>
     <use x="185.839844" xlink:href="#DejaVuSans-115"/>
     <use x="237.939453" xlink:href="#DejaVuSans-116"/>
     <use x="277.148438" xlink:href="#DejaVuSans-45"/>
     <use x="313.232422" xlink:href="#DejaVuSans-83"/>
     <use x="376.708984" xlink:href="#DejaVuSans-83"/>
     <use x="440.185547" xlink:href="#DejaVuSans-45"/>
     <use x="476.269531" xlink:href="#DejaVuSans-99"/>
     <use x="531.25" xlink:href="#DejaVuSans-97"/>
     <use x="592.529297" xlink:href="#DejaVuSans-108"/>
     <use x="620.3125" xlink:href="#DejaVuSans-108"/>
    </g>
   </g>
   <g id="text_34">
    <!-- boost-SD-call -->
    <g transform="translate(12.040539 245.444137)scale(0.1 -0.1)">
     <use xlink:href="#DejaVuSans-98"/>
     <use x="63.476562" xlink:href="#DejaVuSans-111"/>
     <use x="124.658203" xlink:href="#DejaVuSans-111"/>
     <use x="185.839844" xlink:href="#DejaVuSans-115"/>
     <use x="237.939453" xlink:href="#DejaVuSans-116"/>
     <use x="277.148438" xlink:href="#DejaVuSans-45"/>
     <use x="313.232422" xlink:href="#DejaVuSans-83"/>
     <use x="376.708984" xlink:href="#DejaVuSans-68"/>
     <use x="453.710938" xlink:href="#DejaVuSans-45"/>
     <use x="489.794922" xlink:href="#DejaVuSans-99"/>
     <use x="544.775391" xlink:href="#DejaVuSans-97"/>
     <use x="606.054688" xlink:href="#DejaVuSans-108"/>
     <use x="633.837891" xlink:href="#DejaVuSans-108"/>
    </g>
   </g>
   <g id="text_35">
    <!-- boost-DS-call -->
    <g transform="translate(12.040539 233.046042)scale(0.1 -0.1)">
     <use xlink:href="#DejaVuSans-98"/>
     <use x="63.476562" xlink:href="#DejaVuSans-111"/>
     <use x="124.658203" xlink:href="#DejaVuSans-111"/>
     <use x="185.839844" xlink:href="#DejaVuSans-115"/>
     <use x="237.939453" xlink:href="#DejaVuSans-116"/>
     <use x="277.148438" xlink:href="#DejaVuSans-45"/>
     <use x="313.232422" xlink:href="#DejaVuSans-68"/>
     <use x="390.234375" xlink:href="#DejaVuSans-83"/>
     <use x="453.710938" xlink:href="#DejaVuSans-45"/>
     <use x="489.794922" xlink:href="#DejaVuSans-99"/>
     <use x="544.775391" xlink:href="#DejaVuSans-97"/>
     <use x="606.054688" xlink:href="#DejaVuSans-108"/>
     <use x="633.837891" xlink:href="#DejaVuSans-108"/>
    </g>
   </g>
   <g id="text_36">
    <!-- boost-DD-call -->
    <g transform="translate(10.688977 220.647946)scale(0.1 -0.1)">
     <use xlink:href="#DejaVuSans-98"/>
     <use x="63.476562" xlink:href="#DejaVuSans-111"/>
     <use x="124.658203" xlink:href="#DejaVuSans-111"/>
     <use x="185.839844" xlink:href="#DejaVuSans-115"/>
     <use x="237.939453" xlink:href="#DejaVuSans-116"/>
     <use x="277.148438" xlink:href="#DejaVuSans-45"/>
     <use x="313.232422" xlink:href="#DejaVuSans-68"/>
     <use x="390.234375" xlink:href="#DejaVuSans-68"/>
     <use x="467.236328" xlink:href="#DejaVuSans-45"/>
     <use x="503.320312" xlink:href="#DejaVuSans-99"/>
     <use x="558.300781" xlink:href="#DejaVuSans-97"/>
     <use x="619.580078" xlink:href="#DejaVuSans-108"/>
     <use x="647.363281" xlink:href="#DejaVuSans-108"/>
    </g>
   </g>
   <g id="text_37">
    <!-- boost-SS-fill -->
    <g transform="translate(18.720227 208.249851)scale(0.1 -0.1)">
     <use xlink:href="#DejaVuSans-98"/>
     <use x="63.476562" xlink:href="#DejaVuSans-111"/>
     <use x="124.658203" xlink:href="#DejaVuSans-111"/>
     <use x="185.839844" xlink:href="#DejaVuSans-115"/>
     <use x="237.939453" xlink:href="#DejaVuSans-116"/>
     <use x="277.148438" xlink:href="#DejaVuSans-45"/>
     <use x="313.232422" xlink:href="#DejaVuSans-83"/>
     <use x="376.708984" xlink:href="#DejaVuSans-83"/>
     <use x="440.185547" xlink:href="#DejaVuSans-45"/>
     <use x="476.269531" xlink:href="#DejaVuSans-102"/>
     <use x="511.474609" xlink:href="#DejaVuSans-105"/>
     <use x="539.257812" xlink:href="#DejaVuSans-108"/>
     <use x="567.041016" xlink:href="#DejaVuSans-108"/>
    </g>
   </g>
   <g id="text_38">
    <!-- boost-SD-fill -->
    <g transform="translate(17.368664 195.851756)scale(0.1 -0.1)">
     <use xlink:href="#DejaVuSans-98"/>
     <use x="63.476562" xlink:href="#DejaVuSans-111"/>
     <use x="124.658203" xlink:href="#DejaVuSans-111"/>
     <use x="185.839844" xlink:href="#DejaVuSans-115"/>
     <use x="237.939453" xlink:href="#DejaVuSans-116"/>
     <use x="277.148438" xlink:href="#DejaVuSans-45"/>
     <use x="313.232422" xlink:href="#DejaVuSans-83"/>
     <use x="376.708984" xlink:href="#DejaVuSans-68"/>
     <use x="453.710938" xlink:href="#DejaVuSans-45"/>
     <use x="489.794922" xlink:href="#DejaVuSans-102"/>
     <use x="525" xlink:href="#DejaVuSans-105"/>
     <use x="552.783203" xlink:href="#DejaVuSans-108"/>
     <use x="580.566406" xlink:href="#DejaVuSans-108"/>
    </g>
   </g>
   <g id="text_39">
    <!-- boost-DS-fill -->
    <g transform="translate(17.368664 183.453661)scale(0.1 -0.1)">
     <use xlink:href="#DejaVuSans-98"/>
     <use x="63.476562" xlink:href="#DejaVuSans-111"/>
     <use x="124.658203" xlink:href="#DejaVuSans-111"/>
     <use x="185.839844" xlink:href="#DejaVuSans-115"/>
     <use x="237.939453" xlink:href="#DejaVuSans-116"/>
     <use x="277.148438" xlink:href="#DejaVuSans-45"/>
     <use x="313.232422" xlink:href="#DejaVuSans-68"/>
     <use x="390.234375" xlink:href="#DejaVuSans-83"/>
     <use x="453.710938" xlink:href="#DejaVuSans-45"/>
     <use x="489.794922" xlink:href="#DejaVuSans-102"/>
     <use x="525" xlink:href="#DejaVuSans-105"/>
     <use x="552.783203" xlink:href="#DejaVuSans-108"/>
     <use x="580.566406" xlink:href="#DejaVuSans-108"/>
    </g>
   </g>
   <g id="text_40">
    <!-- boost-DD-fill -->
    <g transform="translate(16.017102 171.055565)scale(0.1 -0.1)">
     <use xlink:href="#DejaVuSans-98"/>
     <use x="63.476562" xlink:href="#DejaVuSans-111"/>
     <use x="124.658203" xlink:href="#DejaVuSans-111"/>
     <use x="185.839844" xlink:href="#DejaVuSans-115"/>
     <use x="237.939453" xlink:href="#DejaVuSans-116"/>
     <use x="277.148438" xlink:href="#DejaVuSans-45"/>
     <use x="313.232422" xlink:href="#DejaVuSans-68"/>
     <use x="390.234375" xlink:href="#DejaVuSans-68"/>
     <use x="467.236328" xlink:href="#DejaVuSans-45"/>
     <use x="503.320312" xlink:href="#DejaVuSans-102"/>
     <use x="538.525391" xlink:href="#DejaVuSans-105"/>
     <use x="566.308594" xlink:href="#DejaVuSans-108"/>
     <use x="594.091797" xlink:href="#DejaVuSans-108"/>
    </g>
   </g>
   <g id="text_41">
    <!-- ROOT 6 -->
    <g transform="translate(39.862414 158.65747)scale(0.1 -0.1)">
     <use xlink:href="#DejaVuSans-82"/>
     <use x="69.482422" xlink:href="#DejaVuSans-79"/>
     <use x="148.193359" xlink:href="#DejaVuSans-79"/>
     <use x="226.904297" xlink:href="#DejaVuSans-84"/>
     <use x="287.988281" xlink:href="#DejaVuSans-32"/>
     <use x="319.775391" xlink:href="#DejaVuSans-54"/>
    </g>
   </g>
   <g id="text_42">
    <!-- 3D -->
    <defs>
     <path d="M 46.578125 39.3125 
Q 53.953125 37.40625 57.78125 32.6875 
Q 61.625 27.984375 61.625 20.703125 
Q 61.625 9.859375 53.3125 4.21875 
Q 45.015625 -1.421875 29.109375 -1.421875 
Q 23.484375 -1.421875 17.84375 -0.515625 
Q 12.203125 0.390625 6.6875 2.203125 
L 6.6875 16.703125 
Q 11.96875 14.0625 17.15625 12.71875 
Q 22.359375 11.375 27.390625 11.375 
Q 34.859375 11.375 38.84375 13.953125 
Q 42.828125 16.546875 42.828125 21.390625 
Q 42.828125 26.375 38.75 28.9375 
Q 34.671875 31.5 26.703125 31.5 
L 19.1875 31.5 
L 19.1875 43.609375 
L 27.09375 43.609375 
Q 34.1875 43.609375 37.640625 45.828125 
Q 41.109375 48.046875 41.109375 52.59375 
Q 41.109375 56.78125 37.734375 59.078125 
Q 34.375 61.375 28.21875 61.375 
Q 23.6875 61.375 19.046875 60.34375 
Q 14.40625 59.328125 9.8125 57.328125 
L 9.8125 71.09375 
Q 15.375 72.65625 20.84375 73.4375 
Q 26.3125 74.21875 31.59375 74.21875 
Q 45.796875 74.21875 52.84375 69.546875 
Q 59.90625 64.890625 59.90625 55.515625 
Q 59.90625 49.125 56.53125 45.046875 
Q 53.171875 40.96875 46.578125 39.3125 
z
" id="DejaVuSans-Bold-51"/>
    </defs>
    <g transform="translate(62.943664 147.499185)scale(0.1 -0.1)">
     <use xlink:href="#DejaVuSans-Bold-51"/>
     <use x="69.580078" xlink:href="#DejaVuSans-Bold-68"/>
    </g>
   </g>
   <g id="text_43">
    <!-- boost-SS-call -->
    <g transform="translate(13.392102 133.86128)scale(0.1 -0.1)">
     <use xlink:href="#DejaVuSans-98"/>
     <use x="63.476562" xlink:href="#DejaVuSans-111"/>
     <use x="124.658203" xlink:href="#DejaVuSans-111"/>
     <use x="185.839844" xlink:href="#DejaVuSans-115"/>
     <use x="237.939453" xlink:href="#DejaVuSans-116"/>
     <use x="277.148438" xlink:href="#DejaVuSans-45"/>
     <use x="313.232422" xlink:href="#DejaVuSans-83"/>
     <use x="376.708984" xlink:href="#DejaVuSans-83"/>
     <use x="440.185547" xlink:href="#DejaVuSans-45"/>
     <use x="476.269531" xlink:href="#DejaVuSans-99"/>
     <use x="531.25" xlink:href="#DejaVuSans-97"/>
     <use x="592.529297" xlink:href="#DejaVuSans-108"/>
     <use x="620.3125" xlink:href="#DejaVuSans-108"/>
    </g>
   </g>
   <g id="text_44">
    <!-- boost-SD-call -->
    <g transform="translate(12.040539 121.463185)scale(0.1 -0.1)">
     <use xlink:href="#DejaVuSans-98"/>
     <use x="63.476562" xlink:href="#DejaVuSans-111"/>
     <use x="124.658203" xlink:href="#DejaVuSans-111"/>
     <use x="185.839844" xlink:href="#DejaVuSans-115"/>
     <use x="237.939453" xlink:href="#DejaVuSans-116"/>
     <use x="277.148438" xlink:href="#DejaVuSans-45"/>
     <use x="313.232422" xlink:href="#DejaVuSans-83"/>
     <use x="376.708984" xlink:href="#DejaVuSans-68"/>
     <use x="453.710938" xlink:href="#DejaVuSans-45"/>
     <use x="489.794922" xlink:href="#DejaVuSans-99"/>
     <use x="544.775391" xlink:href="#DejaVuSans-97"/>
     <use x="606.054688" xlink:href="#DejaVuSans-108"/>
     <use x="633.837891" xlink:href="#DejaVuSans-108"/>
    </g>
   </g>
   <g id="text_45">
    <!-- boost-DS-call -->
    <g transform="translate(12.040539 109.065089)scale(0.1 -0.1)">
     <use xlink:href="#DejaVuSans-98"/>
     <use x="63.476562" xlink:href="#DejaVuSans-111"/>
     <use x="124.658203" xlink:href="#DejaVuSans-111"/>
     <use x="185.839844" xlink:href="#DejaVuSans-115"/>
     <use x="237.939453" xlink:href="#DejaVuSans-116"/>
     <use x="277.148438" xlink:href="#DejaVuSans-45"/>
     <use x="313.232422" xlink:href="#DejaVuSans-68"/>
     <use x="390.234375" xlink:href="#DejaVuSans-83"/>
     <use x="453.710938" xlink:href="#DejaVuSans-45"/>
     <use x="489.794922" xlink:href="#DejaVuSans-99"/>
     <use x="544.775391" xlink:href="#DejaVuSans-97"/>
     <use x="606.054688" xlink:href="#DejaVuSans-108"/>
     <use x="633.837891" xlink:href="#DejaVuSans-108"/>
    </g>
   </g>
   <g id="text_46">
    <!-- boost-DD-call -->
    <g transform="translate(10.688977 96.666994)scale(0.1 -0.1)">
     <use xlink:href="#DejaVuSans-98"/>
     <use x="63.476562" xlink:href="#DejaVuSans-111"/>
     <use x="124.658203" xlink:href="#DejaVuSans-111"/>
     <use x="185.839844" xlink:href="#DejaVuSans-115"/>
     <use x="237.939453" xlink:href="#DejaVuSans-116"/>
     <use x="277.148438" xlink:href="#DejaVuSans-45"/>
     <use x="313.232422" xlink:href="#DejaVuSans-68"/>
     <use x="390.234375" xlink:href="#DejaVuSans-68"/>
     <use x="467.236328" xlink:href="#DejaVuSans-45"/>
     <use x="503.320312" xlink:href="#DejaVuSans-99"/>
     <use x="558.300781" xlink:href="#DejaVuSans-97"/>
     <use x="619.580078" xlink:href="#DejaVuSans-108"/>
     <use x="647.363281" xlink:href="#DejaVuSans-108"/>
    </g>
   </g>
   <g id="text_47">
    <!-- boost-SS-fill -->
    <g transform="translate(18.720227 84.268899)scale(0.1 -0.1)">
     <use xlink:href="#DejaVuSans-98"/>
     <use x="63.476562" xlink:href="#DejaVuSans-111"/>
     <use x="124.658203" xlink:href="#DejaVuSans-111"/>
     <use x="185.839844" xlink:href="#DejaVuSans-115"/>
     <use x="237.939453" xlink:href="#DejaVuSans-116"/>
     <use x="277.148438" xlink:href="#DejaVuSans-45"/>
     <use x="313.232422" xlink:href="#DejaVuSans-83"/>
     <use x="376.708984" xlink:href="#DejaVuSans-83"/>
     <use x="440.185547" xlink:href="#DejaVuSans-45"/>
     <use x="476.269531" xlink:href="#DejaVuSans-102"/>
     <use x="511.474609" xlink:href="#DejaVuSans-105"/>
     <use x="539.257812" xlink:href="#DejaVuSans-108"/>
     <use x="567.041016" xlink:href="#DejaVuSans-108"/>
    </g>
   </g>
   <g id="text_48">
    <!-- boost-SD-fill -->
    <g transform="translate(17.368664 71.870804)scale(0.1 -0.1)">
     <use xlink:href="#DejaVuSans-98"/>
     <use x="63.476562" xlink:href="#DejaVuSans-111"/>
     <use x="124.658203" xlink:href="#DejaVuSans-111"/>
     <use x="185.839844" xlink:href="#DejaVuSans-115"/>
     <use x="237.939453" xlink:href="#DejaVuSans-116"/>
     <use x="277.148438" xlink:href="#DejaVuSans-45"/>
     <use x="313.232422" xlink:href="#DejaVuSans-83"/>
     <use x="376.708984" xlink:href="#DejaVuSans-68"/>
     <use x="453.710938" xlink:href="#DejaVuSans-45"/>
     <use x="489.794922" xlink:href="#DejaVuSans-102"/>
     <use x="525" xlink:href="#DejaVuSans-105"/>
     <use x="552.783203" xlink:href="#DejaVuSans-108"/>
     <use x="580.566406" xlink:href="#DejaVuSans-108"/>
    </g>
   </g>
   <g id="text_49">
    <!-- boost-DS-fill -->
    <g transform="translate(17.368664 59.472708)scale(0.1 -0.1)">
     <use xlink:href="#DejaVuSans-98"/>
     <use x="63.476562" xlink:href="#DejaVuSans-111"/>
     <use x="124.658203" xlink:href="#DejaVuSans-111"/>
     <use x="185.839844" xlink:href="#DejaVuSans-115"/>
     <use x="237.939453" xlink:href="#DejaVuSans-116"/>
     <use x="277.148438" xlink:href="#DejaVuSans-45"/>
     <use x="313.232422" xlink:href="#DejaVuSans-68"/>
     <use x="390.234375" xlink:href="#DejaVuSans-83"/>
     <use x="453.710938" xlink:href="#DejaVuSans-45"/>
     <use x="489.794922" xlink:href="#DejaVuSans-102"/>
     <use x="525" xlink:href="#DejaVuSans-105"/>
     <use x="552.783203" xlink:href="#DejaVuSans-108"/>
     <use x="580.566406" xlink:href="#DejaVuSans-108"/>
    </g>
   </g>
   <g id="text_50">
    <!-- boost-DD-fill -->
    <g transform="translate(16.017102 47.074613)scale(0.1 -0.1)">
     <use xlink:href="#DejaVuSans-98"/>
     <use x="63.476562" xlink:href="#DejaVuSans-111"/>
     <use x="124.658203" xlink:href="#DejaVuSans-111"/>
     <use x="185.839844" xlink:href="#DejaVuSans-115"/>
     <use x="237.939453" xlink:href="#DejaVuSans-116"/>
     <use x="277.148438" xlink:href="#DejaVuSans-45"/>
     <use x="313.232422" xlink:href="#DejaVuSans-68"/>
     <use x="390.234375" xlink:href="#DejaVuSans-68"/>
     <use x="467.236328" xlink:href="#DejaVuSans-45"/>
     <use x="503.320312" xlink:href="#DejaVuSans-102"/>
     <use x="538.525391" xlink:href="#DejaVuSans-105"/>
     <use x="566.308594" xlink:href="#DejaVuSans-108"/>
     <use x="594.091797" xlink:href="#DejaVuSans-108"/>
    </g>
   </g>
   <g id="text_51">
    <!-- ROOT 6 -->
    <g transform="translate(39.862414 34.676518)scale(0.1 -0.1)">
     <use xlink:href="#DejaVuSans-82"/>
     <use x="69.482422" xlink:href="#DejaVuSans-79"/>
     <use x="148.193359" xlink:href="#DejaVuSans-79"/>
     <use x="226.904297" xlink:href="#DejaVuSans-84"/>
     <use x="287.988281" xlink:href="#DejaVuSans-32"/>
     <use x="319.775391" xlink:href="#DejaVuSans-54"/>
    </g>
   </g>
   <g id="text_52">
    <!-- 6D -->
    <defs>
     <path d="M 36.1875 35.984375 
Q 31.25 35.984375 28.78125 32.78125 
Q 26.3125 29.59375 26.3125 23.1875 
Q 26.3125 16.796875 28.78125 13.59375 
Q 31.25 10.40625 36.1875 10.40625 
Q 41.15625 10.40625 43.625 13.59375 
Q 46.09375 16.796875 46.09375 23.1875 
Q 46.09375 29.59375 43.625 32.78125 
Q 41.15625 35.984375 36.1875 35.984375 
z
M 59.421875 71 
L 59.421875 57.515625 
Q 54.78125 59.71875 50.671875 60.765625 
Q 46.578125 61.8125 42.671875 61.8125 
Q 34.28125 61.8125 29.59375 57.140625 
Q 24.90625 52.484375 24.125 43.3125 
Q 27.34375 45.703125 31.09375 46.890625 
Q 34.859375 48.09375 39.3125 48.09375 
Q 50.484375 48.09375 57.34375 41.546875 
Q 64.203125 35.015625 64.203125 24.421875 
Q 64.203125 12.703125 56.53125 5.640625 
Q 48.875 -1.421875 35.984375 -1.421875 
Q 21.78125 -1.421875 13.984375 8.171875 
Q 6.203125 17.78125 6.203125 35.40625 
Q 6.203125 53.46875 15.3125 63.796875 
Q 24.421875 74.125 40.28125 74.125 
Q 45.3125 74.125 50.046875 73.34375 
Q 54.78125 72.5625 59.421875 71 
z
" id="DejaVuSans-Bold-54"/>
    </defs>
    <g transform="translate(62.943664 23.518232)scale(0.1 -0.1)">
     <use xlink:href="#DejaVuSans-Bold-54"/>
     <use x="69.580078" xlink:href="#DejaVuSans-Bold-68"/>
    </g>
   </g>
  </g>
 </g>
 <defs>
  <clipPath id="pabc28fcca8">
   <rect height="520.72" width="406.11375" x="80.74125" y="13.32"/>
  </clipPath>
 </defs>
 <defs>
  <pattern height="72" id="heec0181a81" patternUnits="userSpaceOnUse" width="72" x="0" y="0">
   <rect fill="none" height="73" width="73" x="0" y="0"/>
   <path d="M -36 36 
L 36 -36 
M -34 38 
L 38 -34 
M -32 40 
L 40 -32 
M -30 42 
L 42 -30 
M -28 44 
L 44 -28 
M -26 46 
L 46 -26 
M -24 48 
L 48 -24 
M -22 50 
L 50 -22 
M -20 52 
L 52 -20 
M -18 54 
L 54 -18 
M -16 56 
L 56 -16 
M -14 58 
L 58 -14 
M -12 60 
L 60 -12 
M -10 62 
L 62 -10 
M -8 64 
L 64 -8 
M -6 66 
L 66 -6 
M -4 68 
L 68 -4 
M -2 70 
L 70 -2 
M 0 72 
L 72 0 
M 2 74 
L 74 2 
M 4 76 
L 76 4 
M 6 78 
L 78 6 
M 8 80 
L 80 8 
M 10 82 
L 82 10 
M 12 84 
L 84 12 
M 14 86 
L 86 14 
M 16 88 
L 88 16 
M 18 90 
L 90 18 
M 20 92 
L 92 20 
M 22 94 
L 94 22 
M 24 96 
L 96 24 
M 26 98 
L 98 26 
M 28 100 
L 100 28 
M 30 102 
L 102 30 
M 32 104 
L 104 32 
M 34 106 
L 106 34 
M 36 108 
L 108 36 
" style="fill:#ffffff;stroke:#ffffff;stroke-linecap:butt;stroke-linejoin:miter;stroke-width:1.0;"/>
  </pattern>
 </defs>
</svg>
