<?xml version="1.0" encoding="UTF-8" standalone="no"?>
<svg width="700" height ="400" version="1.1"
xmlns:svg ="http://www.w3.org/2000/svg"
xmlns:rdf="http://www.w3.org/1999/02/22-rdf-syntax-ns#"
xmlns:cc="http://web.resource.org/cc/"
xmlns:dc="http://purl.org/dc/elements/1.1/"
xmlns ="http://www.w3.org/2000/svg"
>
<!-- SVG plot written using Boost.Plot program (Creator Jacob Voytko) --> 
<!-- Use, modification and distribution of Boost.Plot subject to the --> 
<!-- Boost Software License, Version 1.0.--> 
<!-- (See accompanying file LICENSE_1_0.txt --> 
<!-- or copy at http://www.boost.org/LICENSE_1_0.txt) --> 

<clipPath id="plot_window"><rect x="57.2" y="54" width="616" height="286"/></clipPath>
<g id="imageBackground" stroke="rgb(211,211,211)" fill="rgb(255,255,255)" stroke-width="2"><rect x="0" y="0" width="700" height="400"/></g>
<g id="plotBackground" stroke="rgb(211,211,211)" fill="rgb(255,255,255)" stroke-width="2"><rect x="56.2" y="53" width="618" height="288"/></g>
<g id="yMinorGrid" stroke="rgb(200,220,255)" stroke-width="0.5"></g>
<g id="yMajorGrid" stroke="rgb(200,220,255)" stroke-width="1"></g>
<g id="xMinorGrid" stroke="rgb(200,220,255)" stroke-width="0.5"></g>
<g id="xMajorGrid" stroke="rgb(200,220,255)" stroke-width="1"></g>
<g id="yAxis" stroke="rgb(0,0,0)" stroke-width="1"><line x1="365" y1="53" x2="365" y2="346"/><line x1="56.2" y1="53" x2="56.2" y2="341"/></g>
<g id="xAxis" stroke="rgb(0,0,0)" stroke-width="1"><line x1="51.2" y1="216" x2="674" y2="216"/><line x1="51.2" y1="341" x2="674" y2="341"/></g>
<g id="yMinorTicks" stroke="rgb(0,0,0)" stroke-width="1"><path d="M54.2,194 L56.2,194 M54.2,173 L56.2,173 M54.2,151 L56.2,151 M54.2,129 L56.2,129 M54.2,85.6 L56.2,85.6 M54.2,63.9 L56.2,63.9 M54.2,216 L56.2,216 M54.2,238 L56.2,238 M54.2,259 L56.2,259 M54.2,281 L56.2,281 M54.2,303 L56.2,303 M54.2,325 L56.2,325 " fill="none"/></g>
<g id="xMinorTicks" stroke="rgb(0,0,0)" stroke-width="1"><path d="M427,341 L427,343 M489,341 L489,343 M550,341 L550,343 M612,341 L612,343 M303,341 L303,343 M242,341 L242,343 M180,341 L180,343 M118,341 L118,343 " fill="none"/></g>
<g id="yMajorTicks" stroke="rgb(0,0,0)" stroke-width="2"><path d="M51.2,216 L56.2,216 M51.2,107 L56.2,107 M51.2,216 L56.2,216 M51.2,325 L56.2,325 " fill="none"/></g>
<g id="xMajorTicks" stroke="rgb(0,0,0)" stroke-width="2"><path d="M365,341 L365,346 M674,341 L674,346 M365,341 L365,346 M56.2,341 L56.2,346 " fill="none"/></g>
<g id="xTicksValues">
<text x="365" y="362" text-anchor="middle" font-size="12" font-family="Lucida Sans Unicode">0</text>
<text x="674" y="362" text-anchor="middle" font-size="12" font-family="Lucida Sans Unicode">1</text>
<text x="365" y="362" text-anchor="middle" font-size="12" font-family="Lucida Sans Unicode">0</text>
<text x="56.2" y="362" text-anchor="middle" font-size="12" font-family="Lucida Sans Unicode">-1</text></g>
<g id="yTicksValues">
<text x="45.2" y="218" text-anchor="end" font-size="12" font-family="Lucida Sans Unicode">0</text>
<text x="45.2" y="110" text-anchor="end" font-size="12" font-family="Lucida Sans Unicode">20</text>
<text x="45.2" y="218" text-anchor="end" font-size="12" font-family="Lucida Sans Unicode">0</text>
<text x="45.2" y="327" text-anchor="end" font-size="12" font-family="Lucida Sans Unicode">-20</text></g>
<g id="yLabel">
<text x="14.9" y="197" text-anchor="middle" transform = "rotate(-90 14.9 197 )" font-size="14" font-family="Lucida Sans Unicode"></text></g>
<g id="xLabel">
<text x="365" y="377" text-anchor="middle" font-size="14" font-family="Lucida Sans Unicode">x</text></g>
<g id="plotLines" stroke-width="2"><g clip-path="url(#plot_window)" stroke="rgb(0,0,0)" fill="rgb(0,128,0)" stroke-width="2"><path d="M56.2,216 L56.2,133 L59.3,202 L62.4,209 L65.5,208 L68.6,208 L71.6,115 L74.7,212 L77.8,212 L80.9,211 L84,211 L87.1,211 L90.2,211 L93.3,211 L96.4,211 L99.4,211 L103,211 L106,211 L109,211 L112,211 L115,211 L118,211 L121,211 L124,210 L127,213 L130,213 L133,213 L137,213 L140,213 L143,213 L146,213 L149,216 L152,216 L155,216 L158,216 L161,216 L164,216 L167,216 L170,213 L174,213 L177,213 L180,213 L183,213 L186,213 L189,213 L192,213 L195,213 L198,213 L201,216 L204,213 L208,213 L211,213 L214,213 L217,213 L220,213 L223,216 L226,216 L229,216 L232,216 L235,216 L238,216 L242,216 L245,216 L248,216 L251,216 L254,216 L257,216 L260,216 L263,216 L266,213 L269,213 L272,213 L276,213 L279,213 L282,213 L285,213 L288,213 L291,213 L294,213 L297,213 L300,213 L303,213 L306,213 L309,213 L313,213 L316,213 L319,213 L322,213 L325,213 L328,213 L331,213 L334,213 L337,213 L340,213 L343,213 L347,213 L350,213 L353,213 L356,213 L359,213 L362,213 L365,213 L368,213 L371,213 L374,213 L377,213 L381,213 L384,213 L387,213 L390,213 L393,213 L396,213 L399,213 L402,213 L405,213 L408,213 L411,213 L415,213 L418,213 L421,213 L424,213 L427,213 L430,213 L433,213 L436,213 L439,213 L442,213 L445,213 L449,213 L452,213 L455,213 L458,213 L461,213 L464,216 L467,216 L470,216 L473,216 L476,216 L479,216 L482,216 L486,216 L489,216 L492,216 L495,216 L498,216 L501,216 L504,216 L507,213 L510,216 L513,213 L516,213 L520,213 L523,213 L526,213 L529,213 L532,213 L535,213 L538,213 L541,213 L544,213 L547,213 L550,213 L554,213 L557,213 L560,216 L563,216 L566,216 L569,216 L572,216 L575,216 L578,216 L581,213 L584,213 L588,213 L591,213 L594,213 L597,213 L600,213 L603,213 L606,210 L609,211 L612,211 L615,211 L618,211 L621,211 L625,211 L628,211 L631,211 L634,211 L637,211 L640,211 L643,211 L646,211 L649,211 L652,212 L655,111 L659,212 L662,212 L665,209 L668,203 L671,56 L671,216 Z" fill="rgb(0,128,0)"/></g>
<g clip-path="url(#plot_window)" stroke="rgb(0,0,0)" fill="rgb(0,128,0)" stroke-width="2"><path d="M56.2,216 L56.2,339 L59.3,227 L62.4,227 L65.5,224 L68.6,228 L71.6,220 L74.7,216 L77.8,334 L80.9,216 L84,216 L87.1,226 L90.2,216 L93.3,216 L96.4,216 L99.4,216 L103,216 L106,221 L109,221 L112,221 L115,221 L118,219 L121,219 L124,219 L127,219 L130,219 L133,219 L137,219 L140,219 L143,219 L146,219 L149,219 L152,219 L155,219 L158,219 L161,219 L164,219 L167,219 L170,219 L174,219 L177,219 L180,219 L183,219 L186,219 L189,219 L192,219 L195,222 L198,219 L201,216 L204,216 L208,216 L211,216 L214,216 L217,216 L220,216 L223,219 L226,219 L229,219 L232,219 L235,219 L238,219 L242,219 L245,219 L248,219 L251,219 L254,219 L257,219 L260,219 L263,219 L266,219 L269,216 L272,216 L276,216 L279,216 L282,216 L285,216 L288,216 L291,216 L294,216 L297,216 L300,216 L303,216 L306,216 L309,216 L313,216 L316,216 L319,216 L322,216 L325,216 L328,216 L331,216 L334,216 L337,216 L340,216 L343,216 L347,216 L350,216 L353,216 L356,216 L359,216 L362,216 L365,216 L368,216 L371,216 L374,216 L377,216 L381,216 L384,216 L387,216 L390,216 L393,216 L396,216 L399,216 L402,216 L405,216 L408,216 L411,216 L415,216 L418,216 L421,216 L424,216 L427,216 L430,216 L433,216 L436,216 L439,216 L442,216 L445,216 L449,216 L452,216 L455,216 L458,216 L461,219 L464,219 L467,219 L470,219 L473,219 L476,219 L479,219 L482,219 L486,219 L489,219 L492,219 L495,219 L498,219 L501,219 L504,219 L507,216 L510,216 L513,216 L516,216 L520,216 L523,216 L526,216 L529,219 L532,222 L535,219 L538,219 L541,219 L544,219 L547,219 L550,219 L554,219 L557,219 L560,219 L563,219 L566,219 L569,219 L572,219 L575,219 L578,219 L581,219 L584,219 L588,219 L591,219 L594,219 L597,219 L600,219 L603,219 L606,219 L609,219 L612,221 L615,221 L618,221 L621,221 L625,216 L628,216 L631,216 L634,216 L637,216 L640,226 L643,216 L646,216 L649,334 L652,216 L655,216 L659,224 L662,228 L665,227 L668,223 L671,308 L671,216 Z" fill="rgb(0,128,0)"/></g>
</g>
<g id="plotPoints" clip-path="url(#plot_window)"><g stroke="rgb(0,128,0)" fill="rgb(0,128,0)"><circle cx="59.3" cy="202" r="0"/><circle cx="62.4" cy="209" r="0"/><circle cx="65.5" cy="208" r="0"/><circle cx="68.6" cy="208" r="0"/><circle cx="71.6" cy="115" r="0"/><circle cx="74.7" cy="212" r="0"/><circle cx="77.8" cy="212" r="0"/><circle cx="80.9" cy="211" r="0"/><circle cx="84" cy="211" r="0"/><circle cx="87.1" cy="211" r="0"/><circle cx="90.2" cy="211" r="0"/><circle cx="93.3" cy="211" r="0"/><circle cx="96.4" cy="211" r="0"/><circle cx="99.4" cy="211" r="0"/><circle cx="103" cy="211" r="0"/><circle cx="106" cy="211" r="0"/><circle cx="109" cy="211" r="0"/><circle cx="112" cy="211" r="0"/><circle cx="115" cy="211" r="0"/><circle cx="118" cy="211" r="0"/><circle cx="121" cy="211" r="0"/><circle cx="124" cy="210" r="0"/><circle cx="127" cy="213" r="0"/><circle cx="130" cy="213" r="0"/><circle cx="133" cy="213" r="0"/><circle cx="137" cy="213" r="0"/><circle cx="140" cy="213" r="0"/><circle cx="143" cy="213" r="0"/><circle cx="146" cy="213" r="0"/><circle cx="149" cy="216" r="0"/><circle cx="152" cy="216" r="0"/><circle cx="155" cy="216" r="0"/><circle cx="158" cy="216" r="0"/><circle cx="161" cy="216" r="0"/><circle cx="164" cy="216" r="0"/><circle cx="167" cy="216" r="0"/><circle cx="170" cy="213" r="0"/><circle cx="174" cy="213" r="0"/><circle cx="177" cy="213" r="0"/><circle cx="180" cy="213" r="0"/><circle cx="183" cy="213" r="0"/><circle cx="186" cy="213" r="0"/><circle cx="189" cy="213" r="0"/><circle cx="192" cy="213" r="0"/><circle cx="195" cy="213" r="0"/><circle cx="198" cy="213" r="0"/><circle cx="201" cy="216" r="0"/><circle cx="204" cy="213" r="0"/><circle cx="208" cy="213" r="0"/><circle cx="211" cy="213" r="0"/><circle cx="214" cy="213" r="0"/><circle cx="217" cy="213" r="0"/><circle cx="220" cy="213" r="0"/><circle cx="223" cy="216" r="0"/><circle cx="226" cy="216" r="0"/><circle cx="229" cy="216" r="0"/><circle cx="232" cy="216" r="0"/><circle cx="235" cy="216" r="0"/><circle cx="238" cy="216" r="0"/><circle cx="242" cy="216" r="0"/><circle cx="245" cy="216" r="0"/><circle cx="248" cy="216" r="0"/><circle cx="251" cy="216" r="0"/><circle cx="254" cy="216" r="0"/><circle cx="257" cy="216" r="0"/><circle cx="260" cy="216" r="0"/><circle cx="263" cy="216" r="0"/><circle cx="266" cy="213" r="0"/><circle cx="269" cy="213" r="0"/><circle cx="272" cy="213" r="0"/><circle cx="276" cy="213" r="0"/><circle cx="279" cy="213" r="0"/><circle cx="282" cy="213" r="0"/><circle cx="285" cy="213" r="0"/><circle cx="288" cy="213" r="0"/><circle cx="291" cy="213" r="0"/><circle cx="294" cy="213" r="0"/><circle cx="297" cy="213" r="0"/><circle cx="300" cy="213" r="0"/><circle cx="303" cy="213" r="0"/><circle cx="306" cy="213" r="0"/><circle cx="309" cy="213" r="0"/><circle cx="313" cy="213" r="0"/><circle cx="316" cy="213" r="0"/><circle cx="319" cy="213" r="0"/><circle cx="322" cy="213" r="0"/><circle cx="325" cy="213" r="0"/><circle cx="328" cy="213" r="0"/><circle cx="331" cy="213" r="0"/><circle cx="334" cy="213" r="0"/><circle cx="337" cy="213" r="0"/><circle cx="340" cy="213" r="0"/><circle cx="343" cy="213" r="0"/><circle cx="347" cy="213" r="0"/><circle cx="350" cy="213" r="0"/><circle cx="353" cy="213" r="0"/><circle cx="356" cy="213" r="0"/><circle cx="359" cy="213" r="0"/><circle cx="362" cy="213" r="0"/><circle cx="365" cy="213" r="0"/><circle cx="368" cy="213" r="0"/><circle cx="371" cy="213" r="0"/><circle cx="374" cy="213" r="0"/><circle cx="377" cy="213" r="0"/><circle cx="381" cy="213" r="0"/><circle cx="384" cy="213" r="0"/><circle cx="387" cy="213" r="0"/><circle cx="390" cy="213" r="0"/><circle cx="393" cy="213" r="0"/><circle cx="396" cy="213" r="0"/><circle cx="399" cy="213" r="0"/><circle cx="402" cy="213" r="0"/><circle cx="405" cy="213" r="0"/><circle cx="408" cy="213" r="0"/><circle cx="411" cy="213" r="0"/><circle cx="415" cy="213" r="0"/><circle cx="418" cy="213" r="0"/><circle cx="421" cy="213" r="0"/><circle cx="424" cy="213" r="0"/><circle cx="427" cy="213" r="0"/><circle cx="430" cy="213" r="0"/><circle cx="433" cy="213" r="0"/><circle cx="436" cy="213" r="0"/><circle cx="439" cy="213" r="0"/><circle cx="442" cy="213" r="0"/><circle cx="445" cy="213" r="0"/><circle cx="449" cy="213" r="0"/><circle cx="452" cy="213" r="0"/><circle cx="455" cy="213" r="0"/><circle cx="458" cy="213" r="0"/><circle cx="461" cy="213" r="0"/><circle cx="464" cy="216" r="0"/><circle cx="467" cy="216" r="0"/><circle cx="470" cy="216" r="0"/><circle cx="473" cy="216" r="0"/><circle cx="476" cy="216" r="0"/><circle cx="479" cy="216" r="0"/><circle cx="482" cy="216" r="0"/><circle cx="486" cy="216" r="0"/><circle cx="489" cy="216" r="0"/><circle cx="492" cy="216" r="0"/><circle cx="495" cy="216" r="0"/><circle cx="498" cy="216" r="0"/><circle cx="501" cy="216" r="0"/><circle cx="504" cy="216" r="0"/><circle cx="507" cy="213" r="0"/><circle cx="510" cy="216" r="0"/><circle cx="513" cy="213" r="0"/><circle cx="516" cy="213" r="0"/><circle cx="520" cy="213" r="0"/><circle cx="523" cy="213" r="0"/><circle cx="526" cy="213" r="0"/><circle cx="529" cy="213" r="0"/><circle cx="532" cy="213" r="0"/><circle cx="535" cy="213" r="0"/><circle cx="538" cy="213" r="0"/><circle cx="541" cy="213" r="0"/><circle cx="544" cy="213" r="0"/><circle cx="547" cy="213" r="0"/><circle cx="550" cy="213" r="0"/><circle cx="554" cy="213" r="0"/><circle cx="557" cy="213" r="0"/><circle cx="560" cy="216" r="0"/><circle cx="563" cy="216" r="0"/><circle cx="566" cy="216" r="0"/><circle cx="569" cy="216" r="0"/><circle cx="572" cy="216" r="0"/><circle cx="575" cy="216" r="0"/><circle cx="578" cy="216" r="0"/><circle cx="581" cy="213" r="0"/><circle cx="584" cy="213" r="0"/><circle cx="588" cy="213" r="0"/><circle cx="591" cy="213" r="0"/><circle cx="594" cy="213" r="0"/><circle cx="597" cy="213" r="0"/><circle cx="600" cy="213" r="0"/><circle cx="603" cy="213" r="0"/><circle cx="606" cy="210" r="0"/><circle cx="609" cy="211" r="0"/><circle cx="612" cy="211" r="0"/><circle cx="615" cy="211" r="0"/><circle cx="618" cy="211" r="0"/><circle cx="621" cy="211" r="0"/><circle cx="625" cy="211" r="0"/><circle cx="628" cy="211" r="0"/><circle cx="631" cy="211" r="0"/><circle cx="634" cy="211" r="0"/><circle cx="637" cy="211" r="0"/><circle cx="640" cy="211" r="0"/><circle cx="643" cy="211" r="0"/><circle cx="646" cy="211" r="0"/><circle cx="649" cy="211" r="0"/><circle cx="652" cy="212" r="0"/><circle cx="655" cy="111" r="0"/><circle cx="659" cy="212" r="0"/><circle cx="662" cy="212" r="0"/><circle cx="665" cy="209" r="0"/><circle cx="668" cy="203" r="0"/><circle cx="671" cy="56" r="0"/></g>
<g stroke="rgb(0,128,0)" fill="rgb(0,128,0)"><circle cx="59.3" cy="227" r="0"/><circle cx="62.4" cy="227" r="0"/><circle cx="65.5" cy="224" r="0"/><circle cx="68.6" cy="228" r="0"/><circle cx="71.6" cy="220" r="0"/><circle cx="74.7" cy="216" r="0"/><circle cx="77.8" cy="334" r="0"/><circle cx="80.9" cy="216" r="0"/><circle cx="84" cy="216" r="0"/><circle cx="87.1" cy="226" r="0"/><circle cx="90.2" cy="216" r="0"/><circle cx="93.3" cy="216" r="0"/><circle cx="96.4" cy="216" r="0"/><circle cx="99.4" cy="216" r="0"/><circle cx="103" cy="216" r="0"/><circle cx="106" cy="221" r="0"/><circle cx="109" cy="221" r="0"/><circle cx="112" cy="221" r="0"/><circle cx="115" cy="221" r="0"/><circle cx="118" cy="219" r="0"/><circle cx="121" cy="219" r="0"/><circle cx="124" cy="219" r="0"/><circle cx="127" cy="219" r="0"/><circle cx="130" cy="219" r="0"/><circle cx="133" cy="219" r="0"/><circle cx="137" cy="219" r="0"/><circle cx="140" cy="219" r="0"/><circle cx="143" cy="219" r="0"/><circle cx="146" cy="219" r="0"/><circle cx="149" cy="219" r="0"/><circle cx="152" cy="219" r="0"/><circle cx="155" cy="219" r="0"/><circle cx="158" cy="219" r="0"/><circle cx="161" cy="219" r="0"/><circle cx="164" cy="219" r="0"/><circle cx="167" cy="219" r="0"/><circle cx="170" cy="219" r="0"/><circle cx="174" cy="219" r="0"/><circle cx="177" cy="219" r="0"/><circle cx="180" cy="219" r="0"/><circle cx="183" cy="219" r="0"/><circle cx="186" cy="219" r="0"/><circle cx="189" cy="219" r="0"/><circle cx="192" cy="219" r="0"/><circle cx="195" cy="222" r="0"/><circle cx="198" cy="219" r="0"/><circle cx="201" cy="216" r="0"/><circle cx="204" cy="216" r="0"/><circle cx="208" cy="216" r="0"/><circle cx="211" cy="216" r="0"/><circle cx="214" cy="216" r="0"/><circle cx="217" cy="216" r="0"/><circle cx="220" cy="216" r="0"/><circle cx="223" cy="219" r="0"/><circle cx="226" cy="219" r="0"/><circle cx="229" cy="219" r="0"/><circle cx="232" cy="219" r="0"/><circle cx="235" cy="219" r="0"/><circle cx="238" cy="219" r="0"/><circle cx="242" cy="219" r="0"/><circle cx="245" cy="219" r="0"/><circle cx="248" cy="219" r="0"/><circle cx="251" cy="219" r="0"/><circle cx="254" cy="219" r="0"/><circle cx="257" cy="219" r="0"/><circle cx="260" cy="219" r="0"/><circle cx="263" cy="219" r="0"/><circle cx="266" cy="219" r="0"/><circle cx="269" cy="216" r="0"/><circle cx="272" cy="216" r="0"/><circle cx="276" cy="216" r="0"/><circle cx="279" cy="216" r="0"/><circle cx="282" cy="216" r="0"/><circle cx="285" cy="216" r="0"/><circle cx="288" cy="216" r="0"/><circle cx="291" cy="216" r="0"/><circle cx="294" cy="216" r="0"/><circle cx="297" cy="216" r="0"/><circle cx="300" cy="216" r="0"/><circle cx="303" cy="216" r="0"/><circle cx="306" cy="216" r="0"/><circle cx="309" cy="216" r="0"/><circle cx="313" cy="216" r="0"/><circle cx="316" cy="216" r="0"/><circle cx="319" cy="216" r="0"/><circle cx="322" cy="216" r="0"/><circle cx="325" cy="216" r="0"/><circle cx="328" cy="216" r="0"/><circle cx="331" cy="216" r="0"/><circle cx="334" cy="216" r="0"/><circle cx="337" cy="216" r="0"/><circle cx="340" cy="216" r="0"/><circle cx="343" cy="216" r="0"/><circle cx="347" cy="216" r="0"/><circle cx="350" cy="216" r="0"/><circle cx="353" cy="216" r="0"/><circle cx="356" cy="216" r="0"/><circle cx="359" cy="216" r="0"/><circle cx="362" cy="216" r="0"/><circle cx="365" cy="216" r="0"/><circle cx="368" cy="216" r="0"/><circle cx="371" cy="216" r="0"/><circle cx="374" cy="216" r="0"/><circle cx="377" cy="216" r="0"/><circle cx="381" cy="216" r="0"/><circle cx="384" cy="216" r="0"/><circle cx="387" cy="216" r="0"/><circle cx="390" cy="216" r="0"/><circle cx="393" cy="216" r="0"/><circle cx="396" cy="216" r="0"/><circle cx="399" cy="216" r="0"/><circle cx="402" cy="216" r="0"/><circle cx="405" cy="216" r="0"/><circle cx="408" cy="216" r="0"/><circle cx="411" cy="216" r="0"/><circle cx="415" cy="216" r="0"/><circle cx="418" cy="216" r="0"/><circle cx="421" cy="216" r="0"/><circle cx="424" cy="216" r="0"/><circle cx="427" cy="216" r="0"/><circle cx="430" cy="216" r="0"/><circle cx="433" cy="216" r="0"/><circle cx="436" cy="216" r="0"/><circle cx="439" cy="216" r="0"/><circle cx="442" cy="216" r="0"/><circle cx="445" cy="216" r="0"/><circle cx="449" cy="216" r="0"/><circle cx="452" cy="216" r="0"/><circle cx="455" cy="216" r="0"/><circle cx="458" cy="216" r="0"/><circle cx="461" cy="219" r="0"/><circle cx="464" cy="219" r="0"/><circle cx="467" cy="219" r="0"/><circle cx="470" cy="219" r="0"/><circle cx="473" cy="219" r="0"/><circle cx="476" cy="219" r="0"/><circle cx="479" cy="219" r="0"/><circle cx="482" cy="219" r="0"/><circle cx="486" cy="219" r="0"/><circle cx="489" cy="219" r="0"/><circle cx="492" cy="219" r="0"/><circle cx="495" cy="219" r="0"/><circle cx="498" cy="219" r="0"/><circle cx="501" cy="219" r="0"/><circle cx="504" cy="219" r="0"/><circle cx="507" cy="216" r="0"/><circle cx="510" cy="216" r="0"/><circle cx="513" cy="216" r="0"/><circle cx="516" cy="216" r="0"/><circle cx="520" cy="216" r="0"/><circle cx="523" cy="216" r="0"/><circle cx="526" cy="216" r="0"/><circle cx="529" cy="219" r="0"/><circle cx="532" cy="222" r="0"/><circle cx="535" cy="219" r="0"/><circle cx="538" cy="219" r="0"/><circle cx="541" cy="219" r="0"/><circle cx="544" cy="219" r="0"/><circle cx="547" cy="219" r="0"/><circle cx="550" cy="219" r="0"/><circle cx="554" cy="219" r="0"/><circle cx="557" cy="219" r="0"/><circle cx="560" cy="219" r="0"/><circle cx="563" cy="219" r="0"/><circle cx="566" cy="219" r="0"/><circle cx="569" cy="219" r="0"/><circle cx="572" cy="219" r="0"/><circle cx="575" cy="219" r="0"/><circle cx="578" cy="219" r="0"/><circle cx="581" cy="219" r="0"/><circle cx="584" cy="219" r="0"/><circle cx="588" cy="219" r="0"/><circle cx="591" cy="219" r="0"/><circle cx="594" cy="219" r="0"/><circle cx="597" cy="219" r="0"/><circle cx="600" cy="219" r="0"/><circle cx="603" cy="219" r="0"/><circle cx="606" cy="219" r="0"/><circle cx="609" cy="219" r="0"/><circle cx="612" cy="221" r="0"/><circle cx="615" cy="221" r="0"/><circle cx="618" cy="221" r="0"/><circle cx="621" cy="221" r="0"/><circle cx="625" cy="216" r="0"/><circle cx="628" cy="216" r="0"/><circle cx="631" cy="216" r="0"/><circle cx="634" cy="216" r="0"/><circle cx="637" cy="216" r="0"/><circle cx="640" cy="226" r="0"/><circle cx="643" cy="216" r="0"/><circle cx="646" cy="216" r="0"/><circle cx="649" cy="334" r="0"/><circle cx="652" cy="216" r="0"/><circle cx="655" cy="216" r="0"/><circle cx="659" cy="224" r="0"/><circle cx="662" cy="228" r="0"/><circle cx="665" cy="227" r="0"/><circle cx="668" cy="223" r="0"/><circle cx="671" cy="308" r="0"/></g>
</g>
<g id="title">
<text x="350" y="36" text-anchor="middle" font-size="18" font-family="Lucida Sans Unicode">Errors in Elliptic Integral K, double</text></g>
<g id="plotXValues"></g>
<g id="plotYValues"></g>
</svg>
